<?xml version="1.0" encoding="UTF-8" standalone="no"?>
<!-- Created with Inkscape (http://www.inkscape.org/) -->

<svg
   xmlns:dc="http://purl.org/dc/elements/1.1/"
   xmlns:cc="http://creativecommons.org/ns#"
   xmlns:rdf="http://www.w3.org/1999/02/22-rdf-syntax-ns#"
   xmlns:svg="http://www.w3.org/2000/svg"
   xmlns="http://www.w3.org/2000/svg"
   xmlns:sodipodi="http://sodipodi.sourceforge.net/DTD/sodipodi-0.dtd"
   xmlns:inkscape="http://www.inkscape.org/namespaces/inkscape"
   width="283.84375"
   height="165.65627"
   id="svg4970"
   version="1.1"
   inkscape:version="0.48.4 r9939"
   sodipodi:docname="New document 16">
  <defs
     id="defs4972" />
  <sodipodi:namedview
     id="base"
     pagecolor="#ffffff"
     bordercolor="#666666"
     borderopacity="1.0"
     inkscape:pageopacity="0.0"
     inkscape:pageshadow="2"
     inkscape:zoom="0.35"
     inkscape:cx="141.92187"
     inkscape:cy="82.828134"
     inkscape:document-units="px"
     inkscape:current-layer="layer1"
     showgrid="false"
     fit-margin-top="0"
     fit-margin-left="0"
     fit-margin-right="0"
     fit-margin-bottom="0"
     inkscape:window-width="472"
     inkscape:window-height="383"
     inkscape:window-x="960"
     inkscape:window-y="24"
     inkscape:window-maximized="0" />
  <metadata
     id="metadata4975">
    <rdf:RDF>
      <cc:Work
         rdf:about="">
        <dc:format>image/svg+xml</dc:format>
        <dc:type
           rdf:resource="http://purl.org/dc/dcmitype/StillImage" />
        <dc:title></dc:title>
      </cc:Work>
    </rdf:RDF>
  </metadata>
  <g
     inkscape:label="Layer 1"
     inkscape:groupmode="layer"
     id="layer1"
     transform="translate(-233.07813,-449.53405)">
    <g
       transform="translate(195.70313,-29.349863)"
       id="g4927">
      <rect
         y="478.88391"
         x="37.375"
         height="165.65627"
         width="283.84375"
         id="rect4620"
         style="fill:#ffffff;fill-opacity:1;stroke:none" />
      <path
         inkscape:connector-curvature="0"
         id="path4622"
         d="m 217.73661,518.83036 c -12.00902,0.53433 -21.5625,9.26346 -21.5625,19.9375 0,6.347 3.39388,12.00229 8.65625,15.65625 -11.41218,3.52608 -19.25,10.78776 -19.25,19.1875 0,0.0617 -8.4e-4,0.12592 0,0.1875 l 0,62.125 69.6875,0 0,-62.125 c 8.4e-4,-0.0616 0,-0.1258 0,-0.1875 0,-8.92744 -8.84824,-16.57623 -21.4375,-19.8125 4.77543,-3.65731 7.8125,-9.03132 7.8125,-15.03125 0,-11.01837 -10.16618,-19.9375 -22.71875,-19.9375 -0.39227,0 -0.80011,-0.0172 -1.1875,0 z"
         style="fill:#999999;fill-opacity:1;stroke:none" />
      <path
         id="path4714"
         d="m 96.885172,643.76903 c -13.62073,-7.86394 -27.108304,-15.65099 -40.657334,-23.47353 0.23095,-0.49306 0.48247,-0.99336 0.703051,-1.50788 0.221081,-0.51697 0.574821,-0.80165 1.153241,-0.78636 0.709655,0.0182 1.098335,-0.3601 1.44971,-0.97028 10.860258,-18.8531 21.741002,-37.69436 32.618331,-56.53761 0.138773,-0.24036 0.277546,-0.48072 0.442734,-0.76683 -0.3746,-0.28001 -0.69208,-0.51702 -1.056542,-0.78936 0.94815,-1.64224 1.886839,-3.2681 2.861009,-4.95541 0.377461,0.12051 0.786467,0.25103 1.278288,0.40843 0.433272,-0.75045 0.86812,-1.50362 1.345152,-2.32987 0.520928,0.23156 0.969236,0.43122 1.513198,0.67335 0.367827,-0.6371 0.737626,-1.27761 1.145271,-1.98367 5.589859,1.97815 11.097409,3.92699 16.652029,5.89208 0.3024,-0.3298 0.5935,-0.64792 0.91476,-0.99779 0.25344,0.0799 0.51557,0.162 0.79362,0.2497 0.0683,-0.0489 0.17016,-0.0866 0.21371,-0.15886 0.43631,-0.73048 0.88775,-1.45405 1.28299,-2.20643 0.21288,-0.40971 0.53138,-0.57817 0.91735,-0.45821 0.61695,0.1914 1.28797,0.36485 1.78595,0.74341 0.91388,0.69424 0.91324,1.05806 0.32939,2.06299 -0.3617,0.62334 -0.72067,1.24825 -1.09756,1.90105 0.25164,0.26273 0.46132,0.48303 0.6747,0.70638 -0.007,0.10237 0.0107,0.20377 -0.024,0.28293 -0.40096,0.91841 -0.40724,0.92298 0.31606,1.54362 3.84597,3.30027 7.69577,6.59548 11.53722,9.90044 0.3749,0.32206 0.70271,0.69887 1.09645,1.09555 -0.36467,0.63163 -0.70687,1.22434 -1.08732,1.88328 0.45353,0.32467 0.85119,0.60888 1.31865,0.94251 -0.44391,0.76888 -0.87718,1.51933 -1.33096,2.30529 0.39625,0.36079 0.73824,0.67204 1.11608,1.01583 -0.94382,1.63473 -1.88211,3.25991 -2.81646,4.87825 -0.0772,0.009 -0.14835,0.0409 -0.19726,0.0199 -1.17855,-0.49288 -1.17844,-0.49464 -1.84471,0.65937 -10.78476,18.67818 -21.56679,37.35793 -32.365887,56.02783 -0.331057,0.57183 -0.501303,1.07171 -0.105993,1.64228 0.416789,0.60117 0.35244,1.14945 -0.07713,1.72632 -0.2937,0.39673 -0.505621,0.85526 -0.797753,1.36125 z M 81.6949,589.57054 c 3.183428,1.83795 6.364125,3.67433 9.568038,5.52411 2.177001,-3.77068 4.32601,-7.49287 6.478568,-11.22121 -3.202548,-1.84899 -6.351833,-3.66723 -9.568038,-5.52411 -2.169904,3.75838 -4.306692,7.45941 -6.478568,11.22121 z m 51.12098,-12.94284 c -12.24548,-7.06993 -24.40629,-14.09097 -36.577333,-21.11793 -0.81332,1.40871 -1.593523,2.76007 -2.368207,4.10186 12.2168,7.05337 24.38306,14.07757 36.57733,21.11793 0.79913,-1.38413 1.5679,-2.71568 2.36821,-4.10186 z m -22.21511,-4.5498 c -10.75727,18.63214 -21.486942,37.21647 -32.228835,55.82198 0.273821,0.15809 0.504623,0.29134 0.770933,0.4451 10.752144,-18.62326 21.481422,-37.20692 32.228832,-55.82198 -0.2745,-0.15849 -0.50326,-0.29056 -0.77093,-0.4451 z m -9.61939,52.50727 c -3.675762,-2.1222 -7.266166,-4.19512 -10.889347,-6.28696 -2.41118,4.17628 -4.795946,8.30682 -7.195693,12.4633 3.657323,2.11156 7.265481,4.19473 10.889345,6.28697 2.411574,-4.17697 4.786484,-8.29044 7.195695,-12.46331 z m -2.26546,-21.19244 c -2.45021,4.24389 -4.848774,8.39833 -7.226443,12.51657 3.655957,2.11077 7.249093,4.18527 10.837453,6.25701 2.42852,-4.20634 4.82748,-8.36145 7.22644,-12.51657 -3.63957,-2.10131 -7.21154,-4.16358 -10.83745,-6.25701 z m 1.33796,-2.36315 c 3.65255,2.1088 7.26139,4.19236 10.85657,6.26804 2.42774,-4.20496 4.82591,-8.35872 7.21462,-12.49608 -3.65664,-2.11116 -7.245,-4.1829 -10.85657,-6.26804 -2.41788,4.18789 -4.80501,8.32252 -7.21462,12.49608 z m -20.728977,-8.82224 c -2.433652,4.21521 -4.819995,8.34847 -7.218559,12.50291 3.664152,2.1155 7.278456,4.20222 10.899588,6.29288 2.42143,-4.19404 4.810138,-8.3314 7.218559,-12.50291 -3.637521,-2.10012 -7.230657,-4.17462 -10.899588,-6.29288 z m -8.605126,14.88717 c -2.428921,4.20701 -4.803831,8.32048 -7.205155,12.47969 3.658006,2.11195 7.272993,4.19907 10.896174,6.29091 2.421824,-4.19472 4.809744,-8.33072 7.205154,-12.47969 -3.651177,-2.10801 -7.247727,-4.18448 -10.896173,-6.29091 z m 29.545653,-32.88335 c -1.036069,1.79452 -2.047692,3.5467 -3.050642,5.28386 1.031097,0.59531 1.999373,1.15434 2.979252,1.72008 1.03331,-1.78974 2.03271,-3.52075 3.05064,-5.28386 -1.01675,-0.58703 -1.98435,-1.14567 -2.97925,-1.72008 z m -0.93679,-0.5363 c -1.052949,-0.60792 -2.021224,-1.16695 -2.999743,-1.7319 -1.037249,1.79657 -2.048478,3.54807 -3.046303,5.27635 1.037926,0.59925 2.006202,1.15828 2.999743,1.7319 1.024633,-1.77472 2.01339,-3.48729 3.046303,-5.27635 z m -3.980451,-2.26625 c -1.047486,-0.60476 -2.034881,-1.17484 -2.998377,-1.73111 -1.040009,1.80135 -2.039805,3.53304 -3.037629,5.26133 1.03178,0.59569 1.999373,1.15433 2.998376,1.73111 1.019903,-1.76652 2.009054,-3.47978 3.03763,-5.26133 z m 27.658831,14.92453 c 1.0538,-1.82524 2.06464,-3.57606 3.06049,-5.30093 -1.03451,-0.59727 -1.99869,-1.15394 -2.95536,-1.70628 -1.04158,1.80408 -2.04256,3.53783 -3.06049,5.30094 0.99969,0.57717 1.94611,1.12359 2.95536,1.70627 z m -3.82891,-9.3286 c -1.04513,1.81022 -2.04453,3.54124 -3.0601,5.30025 1.03246,0.59609 2.01849,1.16538 2.98472,1.72323 1.0404,-1.80203 2.04059,-3.53441 3.0601,-5.30025 -1.00515,-0.58033 -1.95294,-1.12753 -2.98472,-1.72323 z m -3.94761,-2.28371 c -1.03882,1.7993 -2.0398,3.53305 -3.06168,5.30298 1.02973,0.59452 2.01781,1.16499 2.99633,1.72993 1.04159,-1.80407 2.04257,-3.53782 3.06168,-5.30298 -1.00652,-0.58111 -1.95499,-1.12871 -2.99633,-1.72993 z m -0.52551,7.91351 c -1.06933,-0.61738 -2.05741,-1.18785 -3.05095,-1.76147 -1.03173,1.78701 -2.01813,3.49549 -3.02581,5.24085 1.03998,0.60042 2.03079,1.17247 3.05096,1.76147 1.01951,-1.76584 2.00905,-3.47979 3.0258,-5.24085 z m -14.901697,-9.82261 c 1.030157,-1.78427 2.028767,-3.51392 3.024227,-5.23811 -1.03246,-0.59609 -2.01849,-1.16537 -3.014767,-1.74057 -1.02345,1.77267 -2.008265,3.47842 -3.024225,5.23811 1.001052,0.57796 1.967962,1.1362 3.014765,1.74057 z m 6.976437,-2.95448 c -1.04817,-0.60516 -2.03352,-1.17405 -3.02365,-1.7457 -1.02424,1.77404 -2.00866,3.4791 -3.02186,5.23402 1.02359,0.59096 2.00894,1.15985 3.02365,1.7457 1.0199,-1.76653 2.0055,-3.47364 3.02186,-5.23402 z m 8.83704,13.32991 c -1.0203,1.7672 -2.01655,3.49276 -3.02896,5.24631 1.01949,0.5886 1.9864,1.14684 2.9895,1.72598 1.01911,-1.76515 2.01536,-3.4907 3.02896,-5.2463 -1.01266,-0.58466 -1.97957,-1.14291 -2.9895,-1.72599 z m 3.9029,9.24933 c 1.03804,-1.79794 2.02206,-3.50232 3.02896,-5.24631 -1.00652,-0.58111 -1.97206,-1.13857 -2.98677,-1.72441 -1.01517,1.75833 -2.01103,3.4832 -3.02896,5.2463 1.00652,0.58112 1.97274,1.13897 2.98677,1.72442 z M 92.849542,568.76148 c 1.035195,0.59767 2.00347,1.1567 2.998377,1.73111 1.025422,-1.77608 2.02167,-3.50163 3.019889,-5.2306 -1.022904,-0.59057 -1.990496,-1.14921 -2.998377,-1.73111 -1.012018,1.75286 -1.996044,3.45725 -3.019889,5.2306 z M 120.8581,557.15496 c 0.44194,-0.76547 0.88467,-1.53231 1.35224,-2.34216 -0.63299,-0.36547 -1.20385,-0.69505 -1.84573,-1.06564 -0.41789,0.72382 -0.79761,1.32947 -1.12209,1.96245 -0.20245,0.3948 -0.18112,0.81045 0.30357,1.01016 0.42163,0.17332 0.86678,0.29012 1.31201,0.43519 z"
         inkscape:connector-curvature="0"
         style="fill:#3346b5" />
      <path
         id="path4716"
         d="m 94.938084,559.37863 c 0.551938,-0.95598 1.081404,-1.87305 1.641621,-2.84337 11.723785,6.76873 23.422305,13.52287 35.189105,20.31644 -0.52907,0.91638 -1.06958,1.85256 -1.64162,2.84337 -11.69852,-6.75414 -23.39431,-13.50671 -35.189106,-20.31644 z"
         inkscape:connector-curvature="0"
         style="fill:#3346b5" />
      <path
         id="path4718"
         d="m 93.446808,636.03796 c -3.211425,-1.85411 -6.342956,-3.6621 -9.516825,-5.49454 2.160443,-3.74199 4.298414,-7.44507 6.473837,-11.21301 3.184111,1.83835 6.330666,3.65501 9.516825,5.49454 -2.152558,3.72834 -4.290528,7.43141 -6.473837,11.21301 z"
         inkscape:connector-curvature="0"
         style="fill:#3346b5" />
      <path
         id="path4720"
         d="m 99.027363,604.43657 c 3.193667,1.84387 6.318377,3.64792 9.490877,5.47956 -2.16399,3.74814 -4.31221,7.46897 -6.48921,11.23965 -3.163629,-1.82652 -6.3095,-3.64279 -9.49088,-5.47956 2.163597,-3.74746 4.301173,-7.44985 6.489213,-11.23965 z"
         inkscape:connector-curvature="0"
         style="fill:#3346b5" />
      <path
         id="path4722"
         d="m 110.59745,606.27382 c -3.15884,-1.82376 -6.26511,-3.61716 -9.45536,-5.45905 2.15965,-3.74064 4.30748,-7.46078 6.48369,-11.23009 3.13426,1.80957 6.26238,3.61559 9.45537,5.45906 -2.14152,3.70922 -4.28974,7.43005 -6.4837,11.23008 z"
         inkscape:connector-curvature="0"
         style="fill:#3346b5" />
      <path
         id="path4724"
         d="m 89.184158,598.77089 c -2.185279,3.78502 -4.311029,7.46693 -6.473442,11.21234 -3.171137,-1.83086 -6.320423,-3.6491 -9.533213,-5.50401 2.147826,-3.72014 4.296442,-7.44165 6.473442,-11.21233 3.168406,1.82928 6.318374,3.64792 9.533213,5.504 z"
         inkscape:connector-curvature="0"
         style="fill:#3346b5" />
      <path
         id="path4726"
         d="m 80.56698,613.64109 c -2.16399,3.74814 -4.314971,7.47375 -6.483298,11.2294 -3.178648,-1.83519 -6.310863,-3.64358 -9.507948,-5.48941 2.15374,-3.73039 4.301961,-7.45122 6.483299,-11.22941 3.160894,1.82495 6.311545,3.64398 9.507947,5.48942 z"
         inkscape:connector-curvature="0"
         style="fill:#3346b5" />
      <path
         inkscape:connector-curvature="0"
         id="path4624"
         d="m 37.375,478.88393 0,165.65625 283.84375,0 0,-165.65625 -283.84375,0 z m 6.03125,5.34375 10.34375,0 0,6.4375 -10.34375,0 0,-6.4375 z m 262,0 10.34375,0 0,6.4375 -10.34375,0 0,-6.4375 z m -240.3125,10.8125 228.4375,0 0,133.34375 -228.4375,0 0,-133.34375 z m -21.6875,2.6875 10.34375,0 0,6.4375 -10.34375,0 0,-6.4375 z m 262,0 10.34375,0 0,6.4375 -10.34375,0 0,-6.4375 z m -262,13.5 10.34375,0 0,6.4375 -10.34375,0 0,-6.4375 z m 262,0 10.34375,0 0,6.4375 -10.34375,0 0,-6.4375 z m -262,13.5 10.34375,0 0,6.4375 -10.34375,0 0,-6.4375 z m 262,0 10.34375,0 0,6.4375 -10.34375,0 0,-6.4375 z m -262,13.5 10.34375,0 0,6.4375 -10.34375,0 0,-6.4375 z m 262,0 10.34375,0 0,6.4375 -10.34375,0 0,-6.4375 z m -262,13.5 10.34375,0 0,6.4375 -10.34375,0 0,-6.4375 z m 262,0 10.34375,0 0,6.4375 -10.34375,0 0,-6.4375 z m -262,13.5 10.34375,0 0,6.4375 -10.34375,0 0,-6.4375 z m 262,0 10.34375,0 0,6.4375 -10.34375,0 0,-6.4375 z m -262,13.5 10.34375,0 0,6.4375 -10.34375,0 0,-6.4375 z m 262,0 10.34375,0 0,6.4375 -10.34375,0 0,-6.4375 z m -262,13.5 10.34375,0 0,6.4375 -10.34375,0 0,-6.4375 z m 262,0 10.34375,0 0,6.4375 -10.34375,0 0,-6.4375 z m -262,13.5 10.34375,0 0,6.4375 -10.34375,0 0,-6.4375 z m 262,0 10.34375,0 0,6.4375 -10.34375,0 0,-6.4375 z m -262,13.5 10.34375,0 0,6.4375 -10.34375,0 0,-6.4375 z m 262,0 10.34375,0 0,6.4375 -10.34375,0 0,-6.4375 z m -262,13.5 10.34375,0 0,6.4375 -10.34375,0 0,-6.4375 z m 262,0 10.34375,0 0,6.4375 -10.34375,0 0,-6.4375 z"
         style="fill:#222222;fill-opacity:1;stroke:none" />
      <g
         transform="translate(0,208)"
         id="g4626"
         style="fill:#4d4d4d;fill-opacity:1">
        <path
           style="font-size:medium;font-style:normal;font-variant:normal;font-weight:normal;font-stretch:normal;text-indent:0;text-align:start;text-decoration:none;line-height:normal;letter-spacing:normal;word-spacing:normal;text-transform:none;direction:ltr;block-progression:tb;writing-mode:lr-tb;text-anchor:start;baseline-shift:baseline;color:#000000;fill:#4d4d4d;fill-opacity:1;fill-rule:nonzero;stroke:none;stroke-width:2;marker:none;visibility:visible;display:inline;overflow:visible;enable-background:accumulate;font-family:Sans;-inkscape-font-specification:Sans"
           d="m 149.8125,363.65625 c -0.5236,0.0491 -0.95534,2.57015 -0.90625,3.09375 0.0491,0.5236 0.57015,2.95534 1.09375,2.90625 l 38.4375,0 c 0.52831,0.007 1.01424,-2.47163 1.01424,-3 0,-0.52837 -0.48593,-3.00747 -1.01424,-3 l -38.4375,0 c -0.0623,-0.006 -0.12518,-0.006 -0.1875,0 z"
           id="path4628"
           inkscape:connector-curvature="0"
           sodipodi:nodetypes="csccsccc" />
        <path
           style="fill:#4d4d4d;fill-opacity:1;fill-rule:evenodd;stroke:none"
           d="m 186.42857,366.6479 -8,8 28,-8 -28,-8 8,8 z"
           id="path4630"
           inkscape:connector-curvature="0" />
      </g>
      <text
         xml:space="preserve"
         style="font-size:20px;font-style:normal;font-weight:normal;line-height:125%;letter-spacing:0px;word-spacing:0px;fill:#000000;fill-opacity:1;stroke:none;font-family:Sans"
         x="138.22266"
         y="514.86047"
         id="text4632"
         sodipodi:linespacing="125%"><tspan
           sodipodi:role="line"
           id="tspan4634"
           x="138.22266"
           y="514.86047">B-Frame</tspan></text>
    </g>
  </g>
</svg>
