<?xml version="1.0" encoding="UTF-8" standalone="no"?>
<!-- Created with Inkscape (http://www.inkscape.org/) -->

<svg
   xmlns:dc="http://purl.org/dc/elements/1.1/"
   xmlns:cc="http://creativecommons.org/ns#"
   xmlns:rdf="http://www.w3.org/1999/02/22-rdf-syntax-ns#"
   xmlns:svg="http://www.w3.org/2000/svg"
   xmlns="http://www.w3.org/2000/svg"
   xmlns:sodipodi="http://sodipodi.sourceforge.net/DTD/sodipodi-0.dtd"
   xmlns:inkscape="http://www.inkscape.org/namespaces/inkscape"
   width="283.84375"
   height="165.65627"
   id="svg4783"
   version="1.1"
   inkscape:version="0.48.4 r9939"
   sodipodi:docname="New document 9">
  <defs
     id="defs4785" />
  <sodipodi:namedview
     id="base"
     pagecolor="#ffffff"
     bordercolor="#666666"
     borderopacity="1.0"
     inkscape:pageopacity="0.0"
     inkscape:pageshadow="2"
     inkscape:zoom="0.98994949"
     inkscape:cx="152.32823"
     inkscape:cy="44.170323"
     inkscape:document-units="px"
     inkscape:current-layer="layer1"
     showgrid="false"
     fit-margin-top="0"
     fit-margin-left="0"
     fit-margin-right="0"
     fit-margin-bottom="0"
     inkscape:window-width="771"
     inkscape:window-height="808"
     inkscape:window-x="717"
     inkscape:window-y="27"
     inkscape:window-maximized="0" />
  <metadata
     id="metadata4788">
    <rdf:RDF>
      <cc:Work
         rdf:about="">
        <dc:format>image/svg+xml</dc:format>
        <dc:type
           rdf:resource="http://purl.org/dc/dcmitype/StillImage" />
        <dc:title></dc:title>
      </cc:Work>
    </rdf:RDF>
  </metadata>
  <g
     inkscape:label="Layer 1"
     inkscape:groupmode="layer"
     id="layer1"
     transform="translate(-100.93527,-426.6769)">
    <g
       transform="translate(63.560268,374.36441)"
       id="g4601">
      <rect
         y="52.312492"
         x="37.375"
         height="165.65627"
         width="283.84375"
         id="rect3283"
         style="fill:#ffffff;fill-opacity:1;stroke:none" />
      <path
         inkscape:connector-curvature="0"
         id="path3231"
         d="m 171.73661,92.258932 c -12.00902,0.53433 -21.5625,9.263458 -21.5625,19.937498 0,6.347 3.39388,12.00229 8.65625,15.65625 -11.41218,3.52608 -19.25,10.78776 -19.25,19.1875 0,0.0617 -8.4e-4,0.12592 0,0.1875 l 0,62.125 69.6875,0 0,-62.125 c 8.4e-4,-0.0616 0,-0.1258 0,-0.1875 0,-8.92744 -8.84824,-16.57623 -21.4375,-19.8125 4.77543,-3.65731 7.8125,-9.03132 7.8125,-15.03125 0,-11.01837 -10.16618,-19.937498 -22.71875,-19.937498 -0.39227,0 -0.80011,-0.0172 -1.1875,0 z"
         style="fill:#999999;fill-opacity:1;stroke:none" />
      <path
         id="rect2985"
         d="m 37.375,52.3125 0,165.65625 283.84375,0 0,-165.65625 -283.84375,0 z m 6.03125,5.34375 10.34375,0 0,6.4375 -10.34375,0 0,-6.4375 z m 262,0 10.34375,0 0,6.4375 -10.34375,0 0,-6.4375 z m -240.3125,10.8125 228.4375,0 0,133.34375 -228.4375,0 0,-133.34375 z m -21.6875,2.6875 10.34375,0 0,6.4375 -10.34375,0 0,-6.4375 z m 262,0 10.34375,0 0,6.4375 -10.34375,0 0,-6.4375 z m -262,13.5 10.34375,0 0,6.4375 -10.34375,0 0,-6.4375 z m 262,0 10.34375,0 0,6.4375 -10.34375,0 0,-6.4375 z m -262,13.5 10.34375,0 0,6.4375 -10.34375,0 0,-6.4375 z m 262,0 10.34375,0 0,6.4375 -10.34375,0 0,-6.4375 z m -262,13.5 10.34375,0 0,6.4375 -10.34375,0 0,-6.4375 z m 262,0 10.34375,0 0,6.4375 -10.34375,0 0,-6.4375 z m -262,13.5 10.34375,0 0,6.4375 -10.34375,0 0,-6.4375 z m 262,0 10.34375,0 0,6.4375 -10.34375,0 0,-6.4375 z m -262,13.5 10.34375,0 0,6.4375 -10.34375,0 0,-6.4375 z m 262,0 10.34375,0 0,6.4375 -10.34375,0 0,-6.4375 z m -262,13.5 10.34375,0 0,6.4375 -10.34375,0 0,-6.4375 z m 262,0 10.34375,0 0,6.4375 -10.34375,0 0,-6.4375 z m -262,13.5 10.34375,0 0,6.4375 -10.34375,0 0,-6.4375 z m 262,0 10.34375,0 0,6.4375 -10.34375,0 0,-6.4375 z m -262,13.5 10.34375,0 0,6.4375 -10.34375,0 0,-6.4375 z m 262,0 10.34375,0 0,6.4375 -10.34375,0 0,-6.4375 z m -262,13.5 10.34375,0 0,6.4375 -10.34375,0 0,-6.4375 z m 262,0 10.34375,0 0,6.4375 -10.34375,0 0,-6.4375 z m -262,13.5 10.34375,0 0,6.4375 -10.34375,0 0,-6.4375 z m 262,0 10.34375,0 0,6.4375 -10.34375,0 0,-6.4375 z"
         style="fill:#222222;fill-opacity:1;stroke:none"
         inkscape:connector-curvature="0" />
      <text
         sodipodi:linespacing="125%"
         id="text3365"
         y="88.289062"
         x="141.09375"
         style="font-size:10px;font-style:normal;font-weight:normal;line-height:125%;letter-spacing:0px;word-spacing:0px;fill:#000000;fill-opacity:1;stroke:none;font-family:Sans"
         xml:space="preserve"><tspan
           style="font-size:20px"
           y="88.289062"
           x="141.09375"
           id="tspan3367"
           sodipodi:role="line">I-Frame</tspan></text>
    </g>
  </g>
</svg>
