<?xml version="1.0" encoding="UTF-8" standalone="no"?>
<!-- Created with Inkscape (http://www.inkscape.org/) -->

<svg
   xmlns:dc="http://purl.org/dc/elements/1.1/"
   xmlns:cc="http://creativecommons.org/ns#"
   xmlns:rdf="http://www.w3.org/1999/02/22-rdf-syntax-ns#"
   xmlns:svg="http://www.w3.org/2000/svg"
   xmlns="http://www.w3.org/2000/svg"
   xmlns:sodipodi="http://sodipodi.sourceforge.net/DTD/sodipodi-0.dtd"
   xmlns:inkscape="http://www.inkscape.org/namespaces/inkscape"
   width="283.84375"
   height="165.65627"
   id="svg4862"
   version="1.1"
   inkscape:version="0.48.4 r9939"
   sodipodi:docname="New document 13">
  <defs
     id="defs4864" />
  <sodipodi:namedview
     id="base"
     pagecolor="#ffffff"
     bordercolor="#666666"
     borderopacity="1.0"
     inkscape:pageopacity="0.0"
     inkscape:pageshadow="2"
     inkscape:zoom="0.35"
     inkscape:cx="141.92187"
     inkscape:cy="82.828137"
     inkscape:document-units="px"
     inkscape:current-layer="layer1"
     showgrid="false"
     fit-margin-top="0"
     fit-margin-left="0"
     fit-margin-right="0"
     fit-margin-bottom="0"
     inkscape:window-width="472"
     inkscape:window-height="383"
     inkscape:window-x="960"
     inkscape:window-y="24"
     inkscape:window-maximized="0" />
  <metadata
     id="metadata4867">
    <rdf:RDF>
      <cc:Work
         rdf:about="">
        <dc:format>image/svg+xml</dc:format>
        <dc:type
           rdf:resource="http://purl.org/dc/dcmitype/StillImage" />
        <dc:title></dc:title>
      </cc:Work>
    </rdf:RDF>
  </metadata>
  <g
     inkscape:label="Layer 1"
     inkscape:groupmode="layer"
     id="layer1"
     transform="translate(-233.07813,-449.53405)">
    <g
       transform="translate(195.70313,178.65014)"
       id="g4608">
      <rect
         style="fill:#ffffff;fill-opacity:1;stroke:none"
         id="rect3359"
         width="283.84375"
         height="165.65627"
         x="37.375"
         y="270.88391" />
      <path
         style="fill:#999999;fill-opacity:1;stroke:none"
         d="m 217.73661,310.83036 c -12.00902,0.53433 -21.5625,9.26346 -21.5625,19.9375 0,6.347 3.39388,12.00229 8.65625,15.65625 -11.41218,3.52608 -19.25,10.78776 -19.25,19.1875 0,0.0617 -8.4e-4,0.12592 0,0.1875 l 0,62.125 69.6875,0 0,-62.125 c 8.4e-4,-0.0616 0,-0.1258 0,-0.1875 0,-8.92744 -8.84824,-16.57623 -21.4375,-19.8125 4.77543,-3.65731 7.8125,-9.03132 7.8125,-15.03125 0,-11.01837 -10.16618,-19.9375 -22.71875,-19.9375 -0.39227,0 -0.80011,-0.0172 -1.1875,0 z"
         id="path3361"
         inkscape:connector-curvature="0" />
      <path
         style="fill:#222222;fill-opacity:1;stroke:none"
         d="m 37.375,270.88393 0,165.65625 283.84375,0 0,-165.65625 -283.84375,0 z m 6.03125,5.34375 10.34375,0 0,6.4375 -10.34375,0 0,-6.4375 z m 262,0 10.34375,0 0,6.4375 -10.34375,0 0,-6.4375 z m -240.3125,10.8125 228.4375,0 0,133.34375 -228.4375,0 0,-133.34375 z m -21.6875,2.6875 10.34375,0 0,6.4375 -10.34375,0 0,-6.4375 z m 262,0 10.34375,0 0,6.4375 -10.34375,0 0,-6.4375 z m -262,13.5 10.34375,0 0,6.4375 -10.34375,0 0,-6.4375 z m 262,0 10.34375,0 0,6.4375 -10.34375,0 0,-6.4375 z m -262,13.5 10.34375,0 0,6.4375 -10.34375,0 0,-6.4375 z m 262,0 10.34375,0 0,6.4375 -10.34375,0 0,-6.4375 z m -262,13.5 10.34375,0 0,6.4375 -10.34375,0 0,-6.4375 z m 262,0 10.34375,0 0,6.4375 -10.34375,0 0,-6.4375 z m -262,13.5 10.34375,0 0,6.4375 -10.34375,0 0,-6.4375 z m 262,0 10.34375,0 0,6.4375 -10.34375,0 0,-6.4375 z m -262,13.5 10.34375,0 0,6.4375 -10.34375,0 0,-6.4375 z m 262,0 10.34375,0 0,6.4375 -10.34375,0 0,-6.4375 z m -262,13.5 10.34375,0 0,6.4375 -10.34375,0 0,-6.4375 z m 262,0 10.34375,0 0,6.4375 -10.34375,0 0,-6.4375 z m -262,13.5 10.34375,0 0,6.4375 -10.34375,0 0,-6.4375 z m 262,0 10.34375,0 0,6.4375 -10.34375,0 0,-6.4375 z m -262,13.5 10.34375,0 0,6.4375 -10.34375,0 0,-6.4375 z m 262,0 10.34375,0 0,6.4375 -10.34375,0 0,-6.4375 z m -262,13.5 10.34375,0 0,6.4375 -10.34375,0 0,-6.4375 z m 262,0 10.34375,0 0,6.4375 -10.34375,0 0,-6.4375 z m -262,13.5 10.34375,0 0,6.4375 -10.34375,0 0,-6.4375 z m 262,0 10.34375,0 0,6.4375 -10.34375,0 0,-6.4375 z"
         id="path3363"
         inkscape:connector-curvature="0" />
      <g
         style="fill:#4d4d4d;fill-opacity:1"
         id="g4586">
        <path
           sodipodi:nodetypes="csccsccc"
           inkscape:connector-curvature="0"
           id="path3372"
           d="m 149.8125,363.65625 c -0.5236,0.0491 -0.95534,2.57015 -0.90625,3.09375 0.0491,0.5236 0.57015,2.95534 1.09375,2.90625 l 38.4375,0 c 0.52831,0.007 1.01424,-2.47163 1.01424,-3 0,-0.52837 -0.48593,-3.00747 -1.01424,-3 l -38.4375,0 c -0.0623,-0.006 -0.12518,-0.006 -0.1875,0 z"
           style="font-size:medium;font-style:normal;font-variant:normal;font-weight:normal;font-stretch:normal;text-indent:0;text-align:start;text-decoration:none;line-height:normal;letter-spacing:normal;word-spacing:normal;text-transform:none;direction:ltr;block-progression:tb;writing-mode:lr-tb;text-anchor:start;baseline-shift:baseline;color:#000000;fill:#4d4d4d;fill-opacity:1;fill-rule:nonzero;stroke:none;stroke-width:2;marker:none;visibility:visible;display:inline;overflow:visible;enable-background:accumulate;font-family:Sans;-inkscape-font-specification:Sans" />
        <path
           inkscape:connector-curvature="0"
           id="path4592"
           d="m 186.42857,366.6479 -8,8 28,-8 -28,-8 8,8 z"
           style="fill:#4d4d4d;fill-opacity:1;fill-rule:evenodd;stroke:none" />
      </g>
      <text
         sodipodi:linespacing="125%"
         id="text4594"
         y="306.8605"
         x="138.22266"
         style="font-size:20px;font-style:normal;font-weight:normal;line-height:125%;letter-spacing:0px;word-spacing:0px;fill:#000000;fill-opacity:1;stroke:none;font-family:Sans"
         xml:space="preserve"><tspan
           y="306.8605"
           x="138.22266"
           id="tspan4596"
           sodipodi:role="line">P-Frame</tspan></text>
    </g>
  </g>
</svg>
