<?xml version="1.0" encoding="UTF-8" standalone="no"?>
<!-- Created with Inkscape (http://www.inkscape.org/) -->

<svg
   xmlns:dc="http://purl.org/dc/elements/1.1/"
   xmlns:cc="http://creativecommons.org/ns#"
   xmlns:rdf="http://www.w3.org/1999/02/22-rdf-syntax-ns#"
   xmlns:svg="http://www.w3.org/2000/svg"
   xmlns="http://www.w3.org/2000/svg"
   xmlns:sodipodi="http://sodipodi.sourceforge.net/DTD/sodipodi-0.dtd"
   xmlns:inkscape="http://www.inkscape.org/namespaces/inkscape"
   width="313.39062"
   height="186.02269"
   id="svg5045"
   version="1.1"
   inkscape:version="0.48.4 r9939"
   sodipodi:docname="New document 19">
  <defs
     id="defs5047" />
  <sodipodi:namedview
     id="base"
     pagecolor="#ffffff"
     bordercolor="#666666"
     borderopacity="1.0"
     inkscape:pageopacity="0.0"
     inkscape:pageshadow="2"
     inkscape:zoom="0.35"
     inkscape:cx="156.68751"
     inkscape:cy="93.022256"
     inkscape:document-units="px"
     inkscape:current-layer="layer1"
     showgrid="false"
     fit-margin-top="0"
     fit-margin-left="0"
     fit-margin-right="0"
     fit-margin-bottom="0"
     inkscape:window-width="472"
     inkscape:window-height="383"
     inkscape:window-x="960"
     inkscape:window-y="24"
     inkscape:window-maximized="0" />
  <metadata
     id="metadata5050">
    <rdf:RDF>
      <cc:Work
         rdf:about="">
        <dc:format>image/svg+xml</dc:format>
        <dc:type
           rdf:resource="http://purl.org/dc/dcmitype/StillImage" />
        <dc:title></dc:title>
      </cc:Work>
    </rdf:RDF>
  </metadata>
  <g
     inkscape:label="Layer 1"
     inkscape:groupmode="layer"
     id="layer1"
     transform="translate(-218.31249,-439.36175)">
    <path
       style="fill:none;stroke:#fd1616;stroke-width:5;stroke-linecap:butt;stroke-linejoin:miter;stroke-miterlimit:4;stroke-opacity:1;stroke-dasharray:none"
       d="m 235.00951,517.63575 c 6.43941,-5.99591 11.98613,-13.03506 19.1929,-18.18275 5.41015,-3.8644 17.75788,-10.4208 22.22335,-13.13198 4.79031,-2.9084 9.2284,-6.39674 14.14213,-9.09137 6.59587,-3.61709 28.77194,-13.15289 35.35534,-16.16244 12.63527,-5.77613 21.98902,-11.00412 35.35534,-15.15229 3.59545,-1.11583 7.42782,-1.24476 11.11168,-2.02031 2.71708,-0.57202 5.33248,-1.62763 8.08122,-2.0203 0.47141,-0.0673 -0.67343,0.67343 -1.01015,1.01015 -1.68359,1.68359 -3.4262,3.31015 -5.05076,5.05076 -3.09095,3.31173 -6.03689,6.75614 -9.09138,10.10153 -4.01671,4.39926 -8.14517,8.69648 -12.12183,13.13198 -4.77876,5.33016 -9.24074,10.94483 -14.14213,16.16244 -5.54261,5.9002 -11.4484,11.4484 -17.1726,17.17259 -5.72419,5.7242 -11.27764,11.62441 -17.17259,17.1726 -5.55902,5.23201 -11.4484,10.10152 -17.17259,15.15229 -7.64733,6.74764 -25.39355,22.44831 -33.33503,29.29442 -4.34306,3.74402 -8.72694,7.4408 -13.13199,11.11168 -3.67644,3.0637 -7.52321,5.92508 -11.11168,9.09137 -3.21359,2.83552 -6.06091,6.06092 -9.09137,9.09137 -0.33672,0.33672 0.61394,-0.74601 1.01015,-1.01015 1.63364,-1.08909 3.39434,-1.97636 5.05077,-3.03046 2.04849,-1.30359 3.98905,-2.77447 6.06091,-4.04061 3.99151,-2.43925 8.08122,-4.71404 12.12183,-7.07106 5.05077,-3.36718 10.01299,-6.87111 15.15229,-10.10153 28.00606,-17.60381 13.27123,-6.82718 42.42641,-26.26397 64.70413,-43.13608 -18.75537,10.58749 47.47716,-31.31472 8.446,-5.34339 16.53371,-11.27918 25.25382,-16.16245 8.14699,-4.56231 16.94115,-7.86884 25.25381,-12.12183 6.17248,-3.15801 12.05972,-6.84866 18.18275,-10.10152 4.65443,-2.47267 9.46942,-4.63313 14.14213,-7.07107 3.07354,-1.60359 5.89133,-3.71741 9.09138,-5.05076 0.93244,-0.38852 2.5787,-0.90351 3.03045,0 0.42592,0.85183 -1.30356,1.39316 -2.0203,2.0203 -1.97916,1.73177 -4.20133,3.19118 -6.06092,5.05077 -4.21233,4.21233 -8.08122,8.75465 -12.12183,13.13198 -6.39763,5.7242 -12.96505,11.26412 -19.1929,17.17259 -6.90917,6.55486 -13.31031,13.63091 -20.20305,20.20305 -11.96781,11.41117 -33.04534,30.41124 -46.46701,40.4061 -24.17679,18.004 -21.96773,13.42339 -45.45687,29.29443 -35.10044,26.32533 -1.9543,2.6104 -25.25381,17.17259 -0.28553,0.17846 0.79981,0.26293 1.01015,0 1.22652,-1.53314 1.59171,-3.71477 3.03046,-5.05076 3.35609,-3.11637 7.39497,-5.40519 11.11168,-8.08122 10.76857,-7.75338 21.50792,-15.54778 32.32488,-23.23351 27.55286,-19.57703 13.17558,-10.04309 44.44671,-27.27412 5.3796,-2.96427 40.60487,-22.90417 47.47717,-26.26396 7.58671,-3.70906 15.35156,-7.07001 23.23351,-10.10153 23.54947,-9.05749 8.10435,-2.08517 29.29442,-7.07107 1.46582,-0.3449 2.61204,-2.49649 4.04061,-2.0203 1.01015,0.33671 -0.46232,2.1174 -1.01015,3.03045 -1.49026,2.48378 -3.06192,4.96524 -5.05076,7.07107 -3.76364,3.98503 -8.17069,7.3125 -12.12183,11.11168 -4.80556,4.62073 -9.42809,9.42809 -14.14214,14.14214 -11.78511,11.78511 -23.73736,23.40542 -35.35534,35.35534 -5.81136,5.97739 -11.46463,12.10653 -17.17259,18.18274 -4.73033,5.03551 -9.4482,10.08284 -14.14214,15.15229 -3.72408,4.02201 -7.47006,8.02501 -11.11168,12.12183 -1.74717,1.96557 -3.69771,3.80584 -5.05076,6.06092 -0.38737,0.64562 1.40763,-0.57253 2.02031,-1.01016 1.75444,-1.25317 3.31212,-2.7656 5.05076,-4.04061 14.91845,-10.94019 6.29738,-4.32004 25.25381,-15.15229 25.28891,-14.4508 15.69131,-10.0527 41.41626,-25.25381 7.65878,-4.52564 15.45703,-8.81172 23.23351,-13.13198 7.37624,-4.09791 14.64113,-8.41889 22.22335,-12.12183 6.91277,-3.376 14.04649,-6.29461 21.21321,-9.09138 6.64672,-2.59384 13.63477,-4.28452 20.20305,-7.07106 4.57674,-1.94165 8.46694,-5.35237 13.13198,-7.07107 1.89574,-0.69843 4.44467,-1.21218 6.06092,0 0.97124,0.72843 -1.27495,2.07214 -2.02031,3.03046 -1.61457,2.07587 -3.24505,4.14898 -5.05076,6.06091 -3.92357,4.15436 -8.23354,7.93444 -12.12183,12.12183 -4.87116,5.24586 -9.08016,11.10047 -14.14214,16.16244 -5.39799,5.39799 -11.44839,10.10153 -17.17259,15.15229 -5.7242,5.05076 -11.24781,10.3384 -17.1726,15.15229 -21.36983,17.36299 -8.50277,4.53141 -26.26396,20.20305 -1.67895,1.48143 -7.07107,5.33766 -7.07107,9.09137 0,0.33672 0.67802,0.0554 1.01015,0 1.69357,-0.28226 3.43721,-0.4234 5.05077,-1.01015 2.12277,-0.77192 3.98477,-2.14068 6.06091,-3.03046 2.6443,-1.13327 5.37752,-2.04729 8.08122,-3.03046 4.70429,-1.71065 9.42809,-3.36717 14.14214,-5.05076 4.71404,-1.68359 9.3614,-3.56709 14.14213,-5.05076 4.99237,-1.54936 10.0811,-2.77281 15.15229,-4.04061 0.50013,-0.12503 10.28484,-2.96936 13.13198,-2.02031 0.45176,0.15059 -0.72443,0.6292 -1.01015,1.01016 -0.72843,0.97124 -1.34687,2.0203 -2.0203,3.03045 -0.67344,1.01016 -1.2619,2.08245 -2.02031,3.03046 -0.59495,0.74369 -1.34687,1.34687 -2.0203,2.02031 -1.01016,1.01015 -2.02031,2.0203 -3.03046,3.03045 -0.67344,0.67344 -1.2584,1.44888 -2.02031,2.02031 -1.20467,0.90351 -2.78767,1.18501 -4.04061,2.0203 -1.87237,1.24825 -0.0926,1.01016 -2.0203,1.01016"
       id="path4781"
       inkscape:connector-curvature="0" />
  </g>
</svg>
