<?xml version="1.0" encoding="UTF-8" standalone="no"?>
<!-- Created with Inkscape (http://www.inkscape.org/) -->
<svg xmlns:rdf="http://www.w3.org/1999/02/22-rdf-syntax-ns#" xmlns="http://www.w3.org/2000/svg" version="1.1" xmlns:cc="http://creativecommons.org/ns#" xmlns:dc="http://purl.org/dc/elements/1.1/" viewBox="0 0 550.7 339.94">
<metadata>
<rdf:RDF>
<cc:Work rdf:about="">
<dc:format>image/svg+xml</dc:format>
<dc:type rdf:resource="http://purl.org/dc/dcmitype/StillImage"/>
<dc:title/>
</cc:Work>
</rdf:RDF>
</metadata>
<g transform="translate(2.3663409,18.080553)">
<g transform="translate(-180.71428,-521.42857)">
<path fill="#9f9fa1" d="m531.27,735.29c-10.992,41.454-63.378,83.51-63.378,83.51s-58.283-37.363-71.081-95.51c42.031-98.644,72.487-62.601,134.46,12z"/>
<path fill="#e75c3d" d="m314.71,839.54c1.3068-6.2491,1.8714-14.845,1.0612-16.156-0.59802-0.96761-1.9333-0.89797-6.1608,0.32134-19.138,5.5197-58.353,8.3914-70.897,5.1916-15.865-4.0468-26.793-13.006-33.817-27.724-9.4442-19.787-12.178-33.428-12.224-60.997-0.0319-19.129,2.0166-40.527,4.425-46.225,1.7221-4.0738,6.2423-8.5713,10.366-10.314,1.7875-0.75538,3.25-2.0044,3.25-2.7755,0-0.77115-3.3931-5.0979-7.5403-9.6149-9.158-9.9749-12.52-14.764-16.996-24.212-5.9258-12.508-7.7013-21.195-7.8163-38.244-0.0882-13.065,0.19849-15.964,2.2227-22.475,7.7211-24.834,22.725-38.671,48.877-45.075,8.9418-2.1896,9.3138-2.2046,11.25-0.45234,2.6558,2.4034,2.5253,5.5367-0.47725,11.462-2.3327,4.6034-2.392,5.1032-1,8.4346,1.8672,4.4689,1.8643,7.2639-0.0132,12.585-1.416,4.0135-1.38,4.3899,0.70095,7.3123,1.7569,2.4673,2.2794,4.8711,2.6236,12.069,0.40217,8.4118,0.61258,9.1418,3.2826,11.388,2.7317,2.2985,5.8858,10.091,5.8858,14.542,0,1.0606,2.2507,4.391,5.0016,7.4009s5.2665,6.5279,5.5902,7.8178c0.97995,3.9044,3.0967,3.6717,6.8877-0.75714,6.908-8.0704,12.725-20.98,15.997-35.5,0.83689-3.714,1.7556-7.7652,2.0415-9.0027,0.43873-1.8987,1.1832-2.25,4.7687-2.25,6.5022,0,10.884,3.5381,15.171,12.248,11.615,23.603,7.3368,49.956-11.801,72.695-3.386,4.0232-6.5643,7.8688-7.0631,8.5459-0.58258,0.79089-0.14059,2.8138,1.2361,5.6578,1.7109,3.5342,3.9827,16.718,4.1533,24.103,0.01,0.4125,0.63449,0.75,1.3888,0.75,1.4904,0,35.395-14.882,45.129-19.808,10.291-5.2087,18.128-5.9355,32.198-2.9861l5.1983,1.0896,5.6477-5.1617c3.1062-2.8389,7.6295-6.3231,10.052-7.7426l4.4039-2.5809-0.0216-6.155c-0.0473-13.437-6.3471-33.224-16.924-53.155-7.9922-15.061-11.121-25.298-11.765-38.5-0.59678-12.225,0.89488-19.445,6.1903-29.96,11.093-22.027,34.417-36.374,62.706-38.571,15.791-1.2264,39.526,4.1998,56.314,12.874,9.6035,4.9621,22.41,14.418,26.616,19.652,1.8296,2.2767,4.862,4.4886,7.5727,5.5239,6.3618,2.4296,11.108,6.8808,11.913,11.173,0.43866,2.3383,2.3503,5.282,5.6326,8.6736,11.709,12.099,14.887,20.794,11.464,31.363-0.84998,2.6242-1.3026,6.008-1.0058,7.5194,0.33081,1.6849-0.10175,3.7269-1.118,5.2779-1.1666,1.7804-1.7194,5.0945-1.8662,11.187l-0.20864,8.6576,10.5,7.0512c19.587,13.153,31.069,26.505,32.638,37.952,1.0841,7.9092-4.3932,12.992-13.386,12.422l-4.6697-0.29596-0.32098,3.9171c-0.17653,2.1544-1.2952,5.6506-2.486,7.7693-1.8771,3.3398-1.9729,4.0276-0.72007,5.171,1.9993,1.8247,40.46,17.643,42.898,17.643,3.4253,0,4.3128-3.302,3.04-11.311-1.4013-8.8174-1.4174-39.173-0.0247-46.689,0.56044-3.025,1.7484-7.1501,2.6399-9.1668,1.5924-3.6023,1.5721-3.7307-1.1528-7.3033-1.5256-2.0001-8.0172-7.8346-14.426-12.966-17.16-13.739-25.173-23.652-29.744-36.795-4.1968-12.068-2.9358-27.631,3.2235-39.786,3.9288-7.7532,5.7889-7.1349,14.957,4.9713,9.0969,12.012,19.478,22.411,26.701,26.747,8.0328,4.822,8.3152,4.8509,10.877,1.112,3.8035-5.5516,9.2554-10.879,13.234-12.933,2.8556-1.4738,4.3488-3.2407,6.1162-7.2372,2.3817-5.3855,8.3602-12.113,11.708-13.176,1.1252-0.35712,2.2896-2.2336,2.9649-4.7778,0.78271-2.9491,2.7488-5.7841,6.6401-9.5744,3.0405-2.9616,5.9213-6.7866,6.4019-8.5,1.3912-4.96,4.635-9.532,8.2954-11.692,2.3969-1.4142,3.5668-2.9586,4.0031-5.2844,0.33908-1.8074,1.9511-5.3906,3.5823-7.9628,4.0328-6.3591,6.2237-6.2246,13.866,0.85103,7.4496,6.897,11.303,12.862,14.515,22.472,9.6335,28.817,1.5784,64.725-23.077,102.87-2.977,4.6062-5.2089,8.9059-4.9599,9.5549,0.24902,0.64895,2.3688,1.8122,4.7106,2.5851,2.3418,0.77286,5.6892,2.7732,7.4386,4.4451,2.9893,2.8569,3.2832,3.7925,4.8807,15.54,2.5127,18.478,3.5873,35.22,3.6127,56.289,0.038,31.505-2.8943,49.349-10.659,64.859-6.2166,12.418-12.565,18.703-24.532,24.286-30.823,14.38-58.19,15.307-88.925,3.0099-14.851-5.9418-15.715-3.2939-3.0328,9.2928,7.6306,7.5729,15.171,16.864,15.171,18.693,0,0.3134-0.5625,0.5482-1.25,0.52177-0.6875-0.0264-2.825-2.5546-4.75-5.6181s-7.2486-9.0888-11.83-13.389l-8.3302-7.8194,1.2274-9.7511c2.394-19.019,0.31293-49.994-5.699-84.824-3.4811-20.168-2.871-19.004-9.9749-19.029-5.0076-0.0179-6.5992-0.51127-10.591-3.2832l-4.6978-3.2622-1.9261,4.3543c-1.0594,2.3949-3.2558,5.3011-4.881,6.4584-2.2861,1.6279-3.244,3.4176-4.2324,7.9078-4.3201,19.627-16.076,45.251-28.583,62.304-9.8145,13.381-29.965,33.37-43.481,43.132-14.097,10.181-35.164,22.868-37.975,22.868-1.4941,0,0.16747-1.2719,4.8457-3.7092,8.6285-4.4955,29.414-18.351,29.879-19.916,0.18371-0.61909-3.3973-4.1802-7.9579-7.9137-30.96-25.345-51.102-54.538-59.24-85.858-3.9879-15.349-4.2584-23.349-1.1483-33.964,3.0234-10.319,3.3263-14.638,1.0267-14.638-1.9997,0-9.0559,4.8775-12.851,8.8829-2.8501,3.0082-2.8764,3.1315-1.0895,5.106,2.8716,3.173,1.3103,3.2689-5.0877,0.31244-7.9283-3.6637-23.24-4.4792-30.819-1.6415-2.7042,1.0126-5.0864,2.3498-5.2937,2.9716-0.20728,0.62185,2.4666,3.1597,5.942,5.6397,8.8006,6.28,18.901,17.305,22.558,24.623,4.1986,8.4022,5.5643,15.779,4.9259,26.606-0.60088,10.191-2.8942,17.585-10.234,33-4.116,8.6437-5.9296,11.16-13.371,18.55-7.4854,7.4339-10.13,9.3062-20.253,14.339l-11.643,5.789-0.64858,6.6606c-1.2063,12.389-1.7681,15.161-3.0725,15.161-0.95203,0-1.0792-0.96117-0.49598-3.75zm-26.13-13.75c12.976-2.0231,32.481-7.6392,40.518-11.667,21.63-10.839,35.856-29.039,41.685-53.33,5.681-23.675-2.6881-43.91-25.003-60.453-3.7446-2.776-7.4872-5.0472-8.317-5.0472-2.5527,0-42.167,17.966-43.497,19.727-0.8555,1.133-1.25,5.8859-1.25,15.06,0,11.531,0.26367,13.775,1.8865,16.059,1.0376,1.4599,2.3851,4.4544,2.9944,6.6544,1.3827,4.9922,1.4634,15.5,0.11906,15.5-0.55,0-1.0449-2.5875-1.0997-5.75-0.12085-6.9712-1.0051-10.452-2.808-11.053-1.0912-0.36373-1.2226,0.87771-0.68034,6.4259,0.36968,3.7822,0.91397,8.1142,1.2095,9.6267,0.59426,3.0411-0.96434,3.7567-2.178,1-0.42376-0.9625-1.0406-18.85-1.3708-39.75-0.53625-33.944-0.79189-38.354-2.3952-41.314-0.98717-1.8226-2.331-3.1524-2.9862-2.9551-0.65524,0.19727-2.2315,2.4343-3.5028,4.9712l-2.3115,4.6125-8.6885,1.5894c-27.222,4.9796-52.484,6.1936-59.189,2.8443-5.5077-2.7514-5.1456-7.809,0.79936-11.164,1.3301-0.75064,1.4376-1.2255,0.4935-2.1792-2.1857-2.208-10.314,2.8845-12.982,8.134-4.2858,8.4306-7.418,46.427-5.381,65.277,3.2332,29.918,15.047,53.586,31.57,63.247,9.1837,5.3699,15.885,6.52,35,6.0063,9.35-0.25126,21.663-1.1839,27.363-2.0726zm373.64-7.8898c14.313-4.239,26.355-10.487,32.764-16.999,10.63-10.801,17.351-28.266,19.638-51.032,2.1218-21.114,1.0382-56.169-2.5475-82.415-1.4908-10.912-1.9991-12.652-4.3962-15.049-3.0602-3.0602-9.978-5.7028-12.448-4.7551-2.2207,0.85214-1.1352,2.2835,3.5409,4.669,5.539,2.8258,6.2925,6.3832,2.1385,10.095-4.7988,4.2877-10.014,5.3452-26.19,5.3106-12.782-0.0273-15.511-0.34296-23.032-2.6638-13.444-4.1486-19.773-6.7331-22.868-9.3375-3.6737-3.0912-4.6332-2.0414-6.0358,6.6036-1.3549,8.351-1.3548,37.571,0.00014,45.966,0.90103,5.5822,4.8514,18.577,7.3722,24.25,0.43078,0.96955,0.36281,1.75-0.15243,1.75-0.51149,0-2.2471-2.8096-3.857-6.2434-1.6099-3.4339-3.377-6.1385-3.927-6.0102-1.754,0.40917-1.7192,12.077,0.0518,17.41,0.90858,2.7355,1.3566,5.2689,0.99571,5.6299-1.6548,1.6548-4.4202-6.4973-5.2421-15.454l-0.56603-6.1679-20.62-8.5258c-11.341-4.6892-20.95-8.1978-21.355-7.797-0.4043,0.40079,0.34236,6.7879,1.6593,14.194,4.5529,25.603,5.7873,37.952,6.1945,61.965,0.21915,12.925,0.60522,24.062,0.85793,24.748,0.86328,2.3457,17.898,8.8874,30.628,11.762,4.5651,1.0308,10.974,1.3466,22.395,1.1031,13.785-0.2938,17.246-0.70993,25-3.0065zm-187.62-7.03c16.994-13.938,41.218-42.135,33.729-39.261-23.728,9.1052-54.345,8.9163-81.354-0.50212-3.4301-1.1961-6.5151-1.8962-6.8555-1.5558-0.8693,0.8693,7.6759,11.769,16.583,21.152,8.6082,9.0684,27.833,25.499,29.898,25.553,0.76378,0.0198,4.3638-2.404,8-5.3864zm-2.3802-36.591c1.0143-1.6411,4.4915-14.782,4.4915-16.974,0-1.8659-0.64803-2.0127-8.8895-2.0127-16.482,0-34.338-4.6156-52.927-13.681-6.2241-3.0354-11.581-5.2542-11.905-4.9306-0.69757,0.69757,3.4837,10.677,8.0056,19.107,3.6839,6.8678,6.0569,8.3373,21.716,13.447,15.34,5.0059,37.763,7.8683,39.509,5.0435zm22.491-2.1869c4.675-1.1176,11.304-3.149,14.731-4.5142l6.2306-2.4822,5.7502-11.337c3.1626-6.2356,5.5073-11.58,5.2104-11.877-0.29688-0.29687-5.3373,1.4936-11.201,3.9788-5.8636,2.4852-15.062,5.4527-20.441,6.5944-14.483,3.0742-13.7,2.5022-16.221,11.846-1.2125,4.4935-1.958,8.8122-1.6568,9.5972,0.64915,1.6916,4.7156,1.2745,17.598-1.8052zm-57.252-65.882c5.0889-1.6954,9.2525-3.4513,9.2525-3.9022,0-2.7737-16.083-4.0305-24.489-1.9138-4.8651,1.225-5.912,2.7131-4.5075,6.4071,0.82684,2.1748,1.5536,2.4913,5.7195,2.4913,2.6631,0,8.8615-1.3623,14.025-3.0825zm22.783-6.5356c3.5429-0.88994,6.1963-2.0149,5.8965-2.5-0.73523-1.1896-10.663-1.1228-13.862,0.0933-3.0704,1.1674-3.44,4.0248-0.52062,4.0248,1.1245,0,4.9432-0.72813,8.486-1.6181zm-240.53-2.848c0-1.3388-3.4956-7.5339-4.251-7.5339-4.1066,0-6.278,5.0101-2.999,6.9199,1.7555,1.0225,7.25,1.4878,7.25,0.61403zm475.75-34.073c6.3097-2.6364,6.9592-5.6799,1.7429-8.1674-2.5586-1.2201-3.809-1.3748-4.613-0.57078-1.2238,1.2238-2.523,10.277-1.4749,10.277,0.36419,0,2.3194-0.69245,4.345-1.5388zm-258.24-38.92c9.3298-5.6181,23.717-9.4879,35.496-9.5478,2.475-0.0126,5.045-0.36925,5.7112-0.7926,2.2392-1.423,4.2889-8.0895,4.279-13.918-0.0206-12.2-8.52-23.041-20.922-26.686-8.9707-2.6364-12.597-2.1809-17.584,2.2085-2.3774,2.0926-8.2743,6.0228-13.104,8.7336-15.151,8.5034-18.01,12.067-17.061,21.263,1.0534,10.206,9.3124,22.199,15.288,22.199,1.183,0,4.7366-1.557,7.8968-3.46zm3.5471-23.979c-2.5299-3.0483,1.4621-7.0402,4.5104-4.5104,2.1369,1.7734,1.416,5.3812-1.1485,5.7476-1.1481,0.16404-2.661-0.39273-3.3619-1.2373zm81.142,4.3209c7.7089-2.5828,11.177-3.1695,20.197-3.4173,7.7048-0.21167,11.142-0.68896,11.75-1.6319,1.8233-2.8243,3.0408-9.4962,2.4797-13.59-0.77625-5.6634-2.7698-9.3208-8.1291-14.914l-4.4371-4.6308-18.127,0.55995c-18.062,0.55796-18.137,0.56975-20.986,3.2994-6.711,6.4296-8.7154,16.915-4.8633,25.443,2.3866,5.2834,8.5823,12,11.069,12,0.95709,0,5.9283-1.4032,11.047-3.1181zm11.858-21.321c-2.5299-3.0483,1.4621-7.0402,4.5104-4.5104,2.1369,1.7734,1.416,5.3812-1.1485,5.7476-1.1481,0.16404-2.661-0.39273-3.3619-1.2373z"/>
<path fill="#2f2624" d="m314.71,839.54c1.3068-6.2491,1.8714-14.845,1.0612-16.156-0.59802-0.96761-1.9333-0.89797-6.1608,0.32134-19.138,5.5197-58.353,8.3914-70.897,5.1916-15.865-4.0468-26.793-13.006-33.817-27.724-9.4442-19.787-12.178-33.428-12.224-60.997-0.0319-19.129,2.0166-40.527,4.425-46.225,1.7221-4.0738,6.2423-8.5713,10.366-10.314,1.7875-0.75538,3.25-2.0044,3.25-2.7755,0-0.77115-3.3931-5.0979-7.5403-9.6149-9.158-9.9749-12.52-14.764-16.996-24.212-5.9258-12.508-7.7013-21.195-7.8163-38.244-0.0882-13.065,0.19849-15.964,2.2227-22.475,7.7211-24.834,22.725-38.671,48.877-45.075,8.9418-2.1896,9.3138-2.2046,11.25-0.45234,2.6558,2.4034,2.5253,5.5367-0.47725,11.462-2.3327,4.6034-2.392,5.1032-1,8.4346,1.8672,4.4689,1.8643,7.2639-0.0132,12.585-1.416,4.0135-1.38,4.3899,0.70095,7.3123,1.7569,2.4673,2.2794,4.8711,2.6236,12.069,0.40217,8.4118,0.61258,9.1418,3.2826,11.388,2.7317,2.2985,5.8858,10.091,5.8858,14.542,0,1.0606,2.2507,4.391,5.0016,7.4009s5.2665,6.5279,5.5902,7.8178c0.97995,3.9044,3.0967,3.6717,6.8877-0.75714,6.908-8.0704,12.725-20.98,15.997-35.5,0.83689-3.714,1.7556-7.7652,2.0415-9.0027,0.43873-1.8987,1.1832-2.25,4.7687-2.25,6.5022,0,10.884,3.5381,15.171,12.248,11.615,23.603,7.3368,49.956-11.801,72.695-3.386,4.0232-6.5643,7.8688-7.0631,8.5459-0.58258,0.79089-0.14059,2.8138,1.2361,5.6578,1.7109,3.5342,3.9827,16.718,4.1533,24.103,0.01,0.4125,0.63449,0.75,1.3888,0.75,1.4904,0,35.395-14.882,45.129-19.808,10.291-5.2087,18.128-5.9355,32.198-2.9861l5.1983,1.0896,5.6477-5.1617c3.1062-2.8389,7.6295-6.3231,10.052-7.7426l4.4039-2.5809-0.0216-6.155c-0.0473-13.437-6.3471-33.224-16.924-53.155-7.9922-15.061-11.121-25.298-11.765-38.5-0.59678-12.225,0.89488-19.445,6.1903-29.96,11.093-22.027,34.417-36.374,62.706-38.571,15.791-1.2264,39.526,4.1998,56.314,12.874,9.6035,4.9621,22.41,14.418,26.616,19.652,1.8296,2.2767,4.862,4.4886,7.5727,5.5239,6.3618,2.4296,11.108,6.8808,11.913,11.173,0.43866,2.3383,2.3503,5.282,5.6326,8.6736,11.709,12.099,14.887,20.794,11.464,31.363-0.84998,2.6242-1.3026,6.008-1.0058,7.5194,0.33081,1.6849-0.10175,3.7269-1.118,5.2779-1.1666,1.7804-1.7194,5.0945-1.8662,11.187l-0.20864,8.6576,10.5,7.0512c19.587,13.153,31.069,26.505,32.638,37.952,1.0841,7.9092-4.3932,12.992-13.386,12.422l-4.6697-0.29596-0.32098,3.9171c-0.17653,2.1544-1.2952,5.6506-2.486,7.7693-1.8771,3.3398-1.9729,4.0276-0.72007,5.171,1.9993,1.8247,40.46,17.643,42.898,17.643,3.4253,0,4.3128-3.302,3.04-11.311-1.4013-8.8174-1.4174-39.173-0.0247-46.689,0.56044-3.025,1.7484-7.1501,2.6399-9.1668,1.5924-3.6023,1.5721-3.7307-1.1528-7.3033-1.5256-2.0001-8.0172-7.8346-14.426-12.966-17.16-13.739-25.173-23.652-29.744-36.795-4.1968-12.068-2.9358-27.631,3.2235-39.786,3.9288-7.7532,5.7889-7.1349,14.957,4.9713,9.0969,12.012,19.478,22.411,26.701,26.747,8.0328,4.822,8.3152,4.8509,10.877,1.112,3.8035-5.5516,9.2554-10.879,13.234-12.933,2.8556-1.4738,4.3488-3.2407,6.1162-7.2372,2.3817-5.3855,8.3602-12.113,11.708-13.176,1.1252-0.35712,2.2896-2.2336,2.9649-4.7778,0.78271-2.9491,2.7488-5.7841,6.6401-9.5744,3.0405-2.9616,5.9213-6.7866,6.4019-8.5,1.3912-4.96,4.635-9.532,8.2954-11.692,2.3969-1.4142,3.5668-2.9586,4.0031-5.2844,0.33908-1.8074,1.9511-5.3906,3.5823-7.9628,4.0328-6.3591,6.2237-6.2246,13.866,0.85103,7.4496,6.897,11.303,12.862,14.515,22.472,9.6335,28.817,1.5784,64.725-23.077,102.87-2.977,4.6062-5.2089,8.9059-4.9599,9.5549,0.24902,0.64895,2.3688,1.8122,4.7106,2.5851,2.3418,0.77286,5.6892,2.7732,7.4386,4.4451,2.9893,2.8569,3.2832,3.7925,4.8807,15.54,2.5127,18.478,3.5873,35.22,3.6127,56.289,0.038,31.505-2.8943,49.349-10.659,64.859-6.2166,12.418-12.565,18.703-24.532,24.286-30.823,14.38-58.19,15.307-88.925,3.0099-14.851-5.9418-15.715-3.2939-3.0328,9.2928,7.6306,7.5729,15.171,16.864,15.171,18.693,0,0.3134-0.5625,0.5482-1.25,0.52177-0.6875-0.0264-2.825-2.5546-4.75-5.6181s-7.2486-9.0888-11.83-13.389l-8.3302-7.8194,1.2274-9.7511c2.394-19.019,0.31293-49.994-5.699-84.824-3.4811-20.168-2.871-19.004-9.9749-19.029-5.0076-0.0179-6.5992-0.51127-10.591-3.2832l-4.6978-3.2622-1.9261,4.3543c-1.0594,2.3949-3.2558,5.3011-4.881,6.4584-2.2861,1.6279-3.244,3.4176-4.2324,7.9078-4.3201,19.627-16.076,45.251-28.583,62.304-9.8145,13.381-29.965,33.37-43.481,43.132-14.097,10.181-35.164,22.868-37.975,22.868-1.4941,0,0.16747-1.2719,4.8457-3.7092,8.6285-4.4955,29.414-18.351,29.879-19.916,0.18371-0.61909-3.3973-4.1802-7.9579-7.9137-30.96-25.345-51.102-54.538-59.24-85.858-3.9879-15.349-4.2584-23.349-1.1483-33.964,3.0234-10.319,3.3263-14.638,1.0267-14.638-1.9997,0-9.0559,4.8775-12.851,8.8829-2.8501,3.0082-2.8764,3.1315-1.0895,5.106,2.8716,3.173,1.3103,3.2689-5.0877,0.31244-7.9283-3.6637-23.24-4.4792-30.819-1.6415-2.7042,1.0126-5.0864,2.3498-5.2937,2.9716-0.20728,0.62185,2.4666,3.1597,5.942,5.6397,8.8006,6.28,18.901,17.305,22.558,24.623,4.1986,8.4022,5.5643,15.779,4.9259,26.606-0.60088,10.191-2.8942,17.585-10.234,33-4.116,8.6437-5.9296,11.16-13.371,18.55-7.4854,7.4339-10.13,9.3062-20.253,14.339l-11.643,5.789-0.64858,6.6606c-1.2063,12.389-1.7681,15.161-3.0725,15.161-0.95203,0-1.0792-0.96117-0.49598-3.75zm-26.13-13.75c12.976-2.0231,32.481-7.6392,40.518-11.667,21.63-10.839,35.856-29.039,41.685-53.33,5.681-23.675-2.6881-43.91-25.003-60.453-3.7446-2.776-7.4872-5.0472-8.317-5.0472-2.5527,0-42.167,17.966-43.497,19.727-0.8555,1.133-1.25,5.8859-1.25,15.06,0,11.531,0.26367,13.775,1.8865,16.059,1.0376,1.4599,2.3851,4.4544,2.9944,6.6544,1.3827,4.9922,1.4634,15.5,0.11906,15.5-0.55,0-1.0449-2.5875-1.0997-5.75-0.12085-6.9712-1.0051-10.452-2.808-11.053-1.0912-0.36373-1.2226,0.87771-0.68034,6.4259,0.36968,3.7822,0.91397,8.1142,1.2095,9.6267,0.59426,3.0411-0.96434,3.7567-2.178,1-0.42376-0.9625-1.0406-18.85-1.3708-39.75-0.53625-33.944-0.79189-38.354-2.3952-41.314-0.98717-1.8226-2.331-3.1524-2.9862-2.9551-0.65524,0.19727-2.2315,2.4343-3.5028,4.9712l-2.3115,4.6125-8.6885,1.5894c-27.222,4.9796-52.484,6.1936-59.189,2.8443-5.5077-2.7514-5.1456-7.809,0.79936-11.164,1.3301-0.75064,1.4376-1.2255,0.4935-2.1792-2.1857-2.208-10.314,2.8845-12.982,8.134-4.2858,8.4306-7.418,46.427-5.381,65.277,3.2332,29.918,15.047,53.586,31.57,63.247,9.1837,5.3699,15.885,6.52,35,6.0063,9.35-0.25126,21.663-1.1839,27.363-2.0726zm373.64-7.8898c14.313-4.239,26.355-10.487,32.764-16.999,10.63-10.801,17.351-28.266,19.638-51.032,2.1218-21.114,1.0382-56.169-2.5475-82.415-1.4908-10.912-1.9991-12.652-4.3962-15.049-3.0602-3.0602-9.978-5.7028-12.448-4.7551-2.2207,0.85214-1.1352,2.2835,3.5409,4.669,5.539,2.8258,6.2925,6.3832,2.1385,10.095-4.7988,4.2877-10.014,5.3452-26.19,5.3106-12.782-0.0273-15.511-0.34296-23.032-2.6638-13.444-4.1486-19.773-6.7331-22.868-9.3375-3.6737-3.0912-4.6332-2.0414-6.0358,6.6036-1.3549,8.351-1.3548,37.571,0.00014,45.966,0.90103,5.5822,4.8514,18.577,7.3722,24.25,0.43078,0.96955,0.36281,1.75-0.15243,1.75-0.51149,0-2.2471-2.8096-3.857-6.2434-1.6099-3.4339-3.377-6.1385-3.927-6.0102-1.754,0.40917-1.7192,12.077,0.0518,17.41,0.90858,2.7355,1.3566,5.2689,0.99571,5.6299-1.6548,1.6548-4.4202-6.4973-5.2421-15.454l-0.56603-6.1679-20.62-8.5258c-11.341-4.6892-20.95-8.1978-21.355-7.797-0.4043,0.40079,0.34236,6.7879,1.6593,14.194,4.5529,25.603,5.7873,37.952,6.1945,61.965,0.21915,12.925,0.60522,24.062,0.85793,24.748,0.86328,2.3457,17.898,8.8874,30.628,11.762,4.5651,1.0308,10.974,1.3466,22.395,1.1031,13.785-0.2938,17.246-0.70993,25-3.0065zm-187.62-7.03c16.994-13.938,41.218-42.135,33.729-39.261-23.728,9.1052-54.345,8.9163-81.354-0.50212-3.4301-1.1961-6.5151-1.8962-6.8555-1.5558-0.8693,0.8693,7.6759,11.769,16.583,21.152,8.6082,9.0684,27.833,25.499,29.898,25.553,0.76378,0.0198,4.3638-2.404,8-5.3864zm-2.3802-36.591c1.0143-1.6411,4.4915-14.782,4.4915-16.974,0-1.8659-0.64803-2.0127-8.8895-2.0127-16.482,0-34.338-4.6156-52.927-13.681-6.2241-3.0354-11.581-5.2542-11.905-4.9306-0.69757,0.69757,3.4837,10.677,8.0056,19.107,3.6839,6.8678,6.0569,8.3373,21.716,13.447,15.34,5.0059,37.763,7.8683,39.509,5.0435zm22.491-2.1869c4.675-1.1176,11.304-3.149,14.731-4.5142l6.2306-2.4822,5.7502-11.337c3.1626-6.2356,5.5073-11.58,5.2104-11.877-0.29688-0.29687-5.3373,1.4936-11.201,3.9788-5.8636,2.4852-15.062,5.4527-20.441,6.5944-14.483,3.0742-13.7,2.5022-16.221,11.846-1.2125,4.4935-1.958,8.8122-1.6568,9.5972,0.64915,1.6916,4.7156,1.2745,17.598-1.8052zm-2.0044-22.429c8.5564-1.7619,22.519-6.9286,31.137-11.522l5.8617-3.1243,2.893-9.1122c4.862-15.314,4.8593-15.211,0.43295-16.671-2.0878-0.68905-6.389-3.7261-9.5582-6.749l-5.7622-5.4962v3.6843c0,4.8784-2.2978,10.174-5.0547,11.649-8.4929,4.5453-13.855,3.1695-21.659-5.5574-5.4362-6.079-6.0494-6.4708-10.129-6.4713-6.8762-0.00088-23.445,3.734-38.657,8.7143-15.934,5.2166-21.035,5.7683-25.122,2.7174-3.5525-2.6517-4.469-6.2274-3.3534-13.082,2.6962-16.566,14.852-29.001,31.741-32.47,16.13-3.3128,30.406,5.9348,40.735,26.388,7.8464,15.537,15.253,21.128,23.058,17.406,3.8712-1.846,5.0616-5.7934,4.1269-13.685-0.69899-5.9018-6.2165-19.47-12.22-30.051-4.4258-7.7999-5.4136-10.938-3.4428-10.938,1.5072,0,6.4488,8.0948,12.21,20,8.5638,17.698,17.62,28.93,24.553,30.453,4.0764,0.89532,8.5746-1.4912,10.198-5.4106,3.5927-8.6735-2.0249-23.102-17.202-44.182-2.6292-3.6518-4.7804-6.9143-4.7804-7.25,0-0.33567,0.7875-0.59862,1.75-0.58432,3.5458,0.0526,19.429,24.631,23.253,35.984,3.024,8.9766,3.5393,9.7444,8.7637,13.058,13.16,8.346,23.088-3.2899,15.842-18.567-3.5336-7.4496-11.444-18.137-20.529-27.734-7.5569-7.9833-9.7577-11.766-6.8457-11.766,2.9472,0,23.828,24.74,29.683,35.169,3.8921,6.9329,4.9741,7.8728,9.8094,8.5214,8.5634,1.1486,11.315-6.8108,5.9803-17.301-5.2903-10.403-19.364-22.857-37.957-33.588-9.2249-5.3243-11.171-7.9984-5.5-7.5554l3.25,0.25381,0.30501-5.3292c0.26734-4.6712,0.0513-5.3956-1.75-5.8666-2.8597-0.74783-2.571-3.1365,0.47137-3.9001,3.2315-0.81105,5.2418-4.172,3.008-5.0292-0.85351-0.32752-6.3854-0.40349-12.293-0.16883-8.747,0.34745-12.49,1.0248-20.161,3.648l-9.4195,3.2214-3.5805-2.8682c-12.498-10.012-15.511-24.926-7.4376-36.823,2.2123-3.26,2.327-3.822,0.93869-4.5989-0.86987-0.4868-1.5816-1.5878-1.5816-2.4467,0-1.2581,0.7164-1.4272,3.6866-0.86999,2.0276,0.38039,9.4287,0.37404,16.447-0.0141,11.987-0.66294,12.779-0.83449,13.063-2.8303,0.20223-1.4175,1.0342-2.1346,2.4998-2.1546,3.221-0.044,3.6292-0.93917,1.9282-4.2285-1.663-3.2158-4.4663-5.3428-9.1572-6.948-1.6678-0.57071-6.661-4.5827-11.096-8.9155-11.954-11.678-28.564-20.503-48.872-25.965-13.714-3.6887-33.048-3.953-44.791-0.61229-20.43,5.8121-36.636,18.209-44.709,34.2-5.0727,10.049-6.2937,16.082-5.7513,28.416,0.61641,14.017,3.2935,22.593,13.07,41.871,7.4514,14.693,11.538,25.769,14.282,38.713,2.2473,10.599,1.4428,30.054-1.6127,39-2.4955,7.3066-2.3383,15.166,0.55807,27.9,1.399,6.1508,1.9883,7.187,5.3538,9.4142,13.671,9.0471,36.356,17.389,54.601,20.079,5.4544,0.80416,26.863-0.45144,34.496-2.0232zm-49.5-108.37c-0.99594-1.6115,1.2477-2.9603,5-3.0058,4.2035-0.051,15.462-4.1842,21.474-7.8834,5.6522-3.4779,7.0257-3.7952,7.0257-1.6234,0,4.992-30.993,16.568-33.5,12.513zm-15-10.538c-10.119-4.9223-17.5-16.993-17.5-28.617,0-7.7811,6.1738-14.59,18.558-20.469,7.9364-3.7671,16.956-11.236,20.507-16.982,2.0493-3.3159,4.8532-4.1918,4.0627-1.2692-0.20454,0.75625-0.5802,2.1077-0.83478,3.0032-0.37052,1.3033,0.75799,1.8433,5.6557,2.706,16.734,2.9476,27.916,16.475,26.871,32.507-0.22073,3.3873-1.1705,7.6904-2.1107,9.5624-0.94015,1.872-1.7094,4.4329-1.7094,5.691,0,3.1445-1.7461,3.9452-4.0522,1.8582-3.8466-3.4811-24.204-0.10623-36.119,5.9878-5.6298,2.8795-6.2936,3.5313-6.0076,5.8983,0.39873,3.2997-0.75239,3.3191-7.3216,0.12353zm9.0035-6.9224c9.3298-5.6181,23.717-9.4879,35.496-9.5478,2.475-0.0126,5.045-0.36925,5.7112-0.7926,2.2392-1.423,4.2889-8.0895,4.279-13.918-0.0206-12.2-8.52-23.041-20.922-26.686-8.9707-2.6364-12.597-2.1809-17.584,2.2085-2.3774,2.0926-8.2743,6.0228-13.104,8.7336-15.151,8.5034-18.01,12.067-17.061,21.263,1.0534,10.206,9.3124,22.199,15.288,22.199,1.183,0,4.7366-1.557,7.8968-3.46zm3.5471-23.979c-2.5299-3.0483,1.4621-7.0402,4.5104-4.5104,2.1369,1.7734,1.416,5.3812-1.1485,5.7476-1.1481,0.16404-2.661-0.39273-3.3619-1.2373zm-3.3031,106.36c5.0889-1.6954,9.2525-3.4513,9.2525-3.9022,0-2.7737-16.083-4.0305-24.489-1.9138-4.8651,1.225-5.912,2.7131-4.5075,6.4071,0.82684,2.1748,1.5536,2.4913,5.7195,2.4913,2.6631,0,8.8615-1.3623,14.025-3.0825zm22.783-6.5356c3.5429-0.88994,6.1963-2.0149,5.8965-2.5-0.73523-1.1896-10.663-1.1228-13.862,0.0933-3.0704,1.1674-3.44,4.0248-0.52062,4.0248,1.1245,0,4.9432-0.72813,8.486-1.6181zm-240.53-2.848c0-1.3388-3.4956-7.5339-4.251-7.5339-4.1066,0-6.278,5.0101-2.999,6.9199,1.7555,1.0225,7.25,1.4878,7.25,0.61403zm38.49-2.0454c8.7946-1.3785,16.773-2.7548,17.73-3.0585,0.95699-0.30374,2.5852-2.4372,3.6182-4.7411s5.1214-7.7889,9.0852-12.189c9.1607-10.169,15.202-19.855,18.712-30,5.9134-17.093,2.5758-41.026-7.1345-51.16-3.0492-3.1823-4.9377-4.3396-7.0798-4.3384-2.8906,0.001-2.9494,0.11769-5.5753,11.006-3.332,13.817-9.9912,27.801-16.77,35.219l-4.9966,5.4671-0.28955,9.1586c-0.16544,5.233-0.71817,9.1649-1.2896,9.1733-0.55,0.008-1.3106-4.2359-1.6901-9.431-0.84252-11.531-3.2744-17.671-9.368-23.652-2.9396-2.885-4.4438-5.2191-4.4475-6.9012-0.0108-4.9346-2.0998-9.9787-5.4357-13.125-3.296-3.1089-3.3828-3.4001-3.7168-12.471-0.30248-8.215-0.62401-9.588-2.7831-11.885-2.4313-2.5862-2.4343-2.6156-0.74506-7.3287,2.1307-5.9449,2.1335-9.2262,0.0115-13.676-1.6334-3.4252-1.6087-3.6423,1-8.7983,3.0472-6.0228,3.208-7.0702,1.3252-8.6328-1.0101-0.83831-3.3366-0.61777-9.25,0.87681-23.986,6.0623-38.609,20.337-45.584,44.498-2.9652,10.271-3.164,30.07-0.41175,41,3.1036,12.325,10.455,25.831,20.023,36.787,9.7175,11.127,15.761,19.656,18.569,26.206l1.9319,4.5069,9.2855-0.003c5.107-0.001,16.481-1.1304,25.276-2.5089zm429.97-37.989c2.4641-9.174,3.4902-11.305,12.037-25,11.823-18.943,18.977-35.105,23.212-52.44,4.8986-20.049,3.0315-41.364-4.9356-56.346-3.451-6.4898-12.799-16.714-15.282-16.714-1.9618,0-6.0782,6.4877-7.4573,11.753-0.90123,3.441-1.7705,4.5274-4.5526,5.6898-3.7804,1.5796-6.9728,6.0264-7.909,11.017-0.43491,2.3183-1.8672,4.1304-5.0994,6.4516-4.7343,3.3999-6.7722,6.4487-7.9427,11.882-0.49713,2.3079-1.83,4.001-4.4533,5.6571-4.9322,3.1136-8.4968,7.4605-10.571,12.89-1.102,2.8856-2.6114,4.8322-4.3478,5.6072-8.5696,3.8246-14.626,10.937-19.204,22.552-2.5896,6.5698-3.7427,8.5-5.0781,8.5-1.3341,0-1.051-3.3406,0.62244-7.3458,2.1674-5.1872,1.9205-6.0833-2.2193-8.0574-9.0039-4.2936-22.304-17.258-32.248-31.435-4.2874-6.1121-6.6577-7.9361-8.2474-6.3465-1.6183,1.6183-5.532,14.613-6.23,20.685-0.93855,8.165,1.3816,18.674,6.1269,27.752,4.2215,8.0759,15.735,20.46,25.818,27.77,7.3849,5.3539,16.413,14.544,18.992,19.332,2.0599,3.825,5.4788,5.6905,17.558,9.5801,11.526,3.7115,19.145,4.9449,29.357,4.7522l9.9062-0.18693,2.1488-8zm7.286,5.9612c6.3097-2.6364,6.9592-5.6799,1.7429-8.1674-2.5586-1.2201-3.809-1.3748-4.613-0.57078-1.2238,1.2238-2.523,10.277-1.4749,10.277,0.36419,0,2.3194-0.69245,4.345-1.5388zm-173.55-58.57c7.7089-2.5828,11.177-3.1695,20.197-3.4173,7.7048-0.21167,11.142-0.68896,11.75-1.6319,1.8233-2.8243,3.0408-9.4962,2.4797-13.59-0.77625-5.6634-2.7698-9.3208-8.1291-14.914l-4.4371-4.6308-18.127,0.55995c-18.062,0.55796-18.137,0.56975-20.986,3.2994-6.711,6.4296-8.7154,16.915-4.8633,25.443,2.3866,5.2834,8.5823,12,11.069,12,0.95709,0,5.9283-1.4032,11.047-3.1181zm11.858-21.321c-2.5299-3.0483,1.4621-7.0402,4.5104-4.5104,2.1369,1.7734,1.416,5.3812-1.1485,5.7476-1.1481,0.16404-2.661-0.39273-3.3619-1.2373z"/>
</g>
</g>
</svg>
