<?xml version="1.0" encoding="UTF-8" standalone="no"?>
<!-- Created with Inkscape (http://www.inkscape.org/) -->
<svg xmlns:rdf="http://www.w3.org/1999/02/22-rdf-syntax-ns#" xmlns="http://www.w3.org/2000/svg" version="1.0" xmlns:cc="http://creativecommons.org/ns#" xmlns:xlink="http://www.w3.org/1999/xlink" viewBox="0 0 111.16 134.67" xmlns:dc="http://purl.org/dc/elements/1.1/">
<metadata>
<rdf:RDF>
<cc:Work rdf:about="">
<dc:format>image/svg+xml</dc:format>
<dc:type rdf:resource="http://purl.org/dc/dcmitype/StillImage"/>
<dc:title/>
</cc:Work>
</rdf:RDF>
</metadata>
<defs>
<linearGradient id="linearGradient3043" y2="114.4" gradientUnits="userSpaceOnUse" x2="135.67" gradientTransform="matrix(0.562541,0,0,0.567972,-9.399749,-5.305317)" y1="20.604" x1="26.649">
<stop stop-color="#5a9fd4" offset="0"/>
<stop stop-color="#306998" offset="1"/>
</linearGradient>
<linearGradient id="linearGradient3045" y2="137.27" gradientUnits="userSpaceOnUse" x2="112.03" gradientTransform="matrix(0.562541,0,0,0.567972,-9.399749,-5.305317)" y1="192.35" x1="150.96">
<stop stop-color="#ffd43b" offset="0"/>
<stop stop-color="#ffe873" offset="1"/>
</linearGradient>
<radialGradient id="radialGradient3047" gradientUnits="userSpaceOnUse" cy="132.29" cx="61.519" gradientTransform="matrix(1.7490565e-8,-0.23994696,1.054668,3.7915457e-7,-78.109429,148.85906)" r="29.037">
<stop stop-color="#b8b8b8" stop-opacity="0.49803922" offset="0"/>
<stop stop-color="#7f7f7f" stop-opacity="0" offset="1"/>
</radialGradient>
</defs>
<g transform="translate(-5.5913706,-6.3970536)">
<path fill="url(#linearGradient3043)" d="m60.51,6.398c-4.5837,0.021298-8.9609,0.41222-12.812,1.0938-11.347,2.0044-13.407,6.2002-13.407,13.937v10.219h26.812v3.4062h-26.812-10.062c-7.7925,0-14.616,4.6837-16.75,13.594-2.4618,10.213-2.571,16.586,0,27.25,1.9059,7.9379,6.4575,13.594,14.25,13.594h9.2188v-12.25c0-8.8499,7.6571-16.656,16.75-16.656h26.781c7.455,0,13.406-6.1382,13.406-13.625v-25.531c0-7.2663-6.13-12.725-13.406-13.938-4.606-0.76673-9.3851-1.115-13.969-1.0938zm-14.5,8.2188c2.7695,0,5.0312,2.2986,5.0312,5.125-0.000002,2.8163-2.2617,5.0938-5.0312,5.0938-2.7795-0.000001-5.0312-2.2774-5.0312-5.0938-0.000001-2.8264,2.2518-5.125,5.0312-5.125z"/>
<path fill="url(#linearGradient3045)" d="m91.229,35.054,0,11.906c0,9.2308-7.8259,17-16.75,17h-26.781c-7.3358,0-13.406,6.2785-13.406,13.625v25.531c0,7.2663,6.3186,11.54,13.406,13.625,8.4873,2.4956,16.626,2.9466,26.781,0,6.7502-1.9544,13.406-5.8876,13.406-13.625v-10.219h-26.781v-3.4062h26.781,13.406c7.7925,0,10.696-5.4354,13.406-13.594,2.7993-8.3989,2.6802-16.476,0-27.25-1.9258-7.7574-5.6039-13.594-13.406-13.594h-10.063zm-15.062,64.656c2.7795,0.000003,5.0312,2.2774,5.0312,5.0937-0.000002,2.8264-2.2518,5.125-5.0312,5.125-2.7696,0-5.0312-2.2986-5.0312-5.125,0.000002-2.8163,2.2617-5.0937,5.0312-5.0937z"/>
<path opacity="0.44382019" d="m97.339,134.1a35.931,6.9673,0,0,1,-71.862,0,35.931,6.9673,0,1,1,71.862,0z" fill-rule="nonzero" fill="url(#radialGradient3047)"/>
</g>
<path d="m13.539,33.826c2.3789,0.000026,4.248,1.377,5.6074,4.1309,0.49217,1.0899,0.74998,1.9219,0.77344,2.4961h0.05273c0.41014-1.8984,1.1543-3.4746,2.2324-4.7285,1.2656-1.2656,2.6894-1.8984,4.2715-1.8984,2.4492,0.000026,4.4121,1.3125,5.8887,3.9375,0.37497,0.97268,0.56247,1.8867,0.5625,2.7422-0.000029,2.9297-1.2188,5.7246-3.6562,8.3848l-9.2988,11.162h-0.10547l-9.8789-12.111c-1.9688-2.4023-2.9531-4.8808-2.9531-7.4355-0.000003-2.4726,1.166-4.4355,3.498-5.8887,0.98437-0.52732,1.9863-0.79099,3.0059-0.79102" style="text-align:start;" fill="#c80000"/>
<path d="m46.184,73.796c1.6992,0.3633,3.0234,1.1192,3.9727,2.2676,0.96092,1.1484,1.4414,2.5664,1.4414,4.2539-0.00002,2.5898-0.89065,4.5938-2.6719,6.0117-1.7813,1.418-4.3125,2.127-7.5937,2.127-1.1016,0-2.2383-0.11133-3.4102-0.33398-1.1602-0.21094-2.3613-0.5332-3.6035-0.9668v-3.4277c0.98437,0.57422,2.0625,1.0078,3.2344,1.3008,1.1719,0.29297,2.3965,0.43946,3.6738,0.43945,2.2266,0.000002,3.9199-0.43945,5.0801-1.3184,1.1719-0.8789,1.7578-2.1562,1.7578-3.832-0.00001-1.5469-0.54493-2.7539-1.6348-3.6211-1.0781-0.87889-2.584-1.3183-4.5176-1.3184h-3.0586v-2.918h3.1992c1.7461,0.000016,3.082-0.34569,4.0078-1.0371,0.92577-0.70311,1.3887-1.7109,1.3887-3.0234-0.00002-1.3476-0.48048-2.3789-1.4414-3.0938-0.94923-0.72654-2.3145-1.0898-4.0957-1.0898-0.97266,0.000023-2.0156,0.10549-3.1289,0.31641-1.1133,0.21096-2.3379,0.53908-3.6738,0.98438v-3.1641c1.3477-0.37497,2.6074-0.65622,3.7793-0.84375,1.1836-0.18747,2.2969-0.28122,3.3398-0.28125,2.6953,0.000027,4.8281,0.61526,6.3984,1.8457,1.5703,1.2188,2.3554,2.8711,2.3555,4.957-0.00002,1.4531-0.41603,2.6836-1.248,3.6914-0.83205,0.99611-2.0156,1.6875-3.5508,2.0742" style="text-align:start;" fill="#c80000"/>
</svg>
