<?xml version="1.0" encoding="UTF-8" standalone="no"?>
<!-- Created with Inkscape (http://www.inkscape.org/) -->

<svg
   xmlns:dc="http://purl.org/dc/elements/1.1/"
   xmlns:cc="http://creativecommons.org/ns#"
   xmlns:rdf="http://www.w3.org/1999/02/22-rdf-syntax-ns#"
   xmlns:svg="http://www.w3.org/2000/svg"
   xmlns="http://www.w3.org/2000/svg"
   xmlns:sodipodi="http://sodipodi.sourceforge.net/DTD/sodipodi-0.dtd"
   xmlns:inkscape="http://www.inkscape.org/namespaces/inkscape"
   width="596.05402"
   height="499.57916"
   id="svg2"
   version="1.1"
   inkscape:version="0.48.4 r9939"
   sodipodi:docname="New document 1">
  <defs
     id="defs4" />
  <sodipodi:namedview
     id="base"
     pagecolor="#ffffff"
     bordercolor="#666666"
     borderopacity="1.0"
     inkscape:pageopacity="0.0"
     inkscape:pageshadow="2"
     inkscape:zoom="1.4"
     inkscape:cx="186.26204"
     inkscape:cy="278.33664"
     inkscape:document-units="px"
     inkscape:current-layer="layer1"
     showgrid="false"
     fit-margin-top="0"
     fit-margin-left="0"
     fit-margin-right="0"
     fit-margin-bottom="0"
     inkscape:window-width="1920"
     inkscape:window-height="1056"
     inkscape:window-x="0"
     inkscape:window-y="24"
     inkscape:window-maximized="1" />
  <metadata
     id="metadata7">
    <rdf:RDF>
      <cc:Work
         rdf:about="">
        <dc:format>image/svg+xml</dc:format>
        <dc:type
           rdf:resource="http://purl.org/dc/dcmitype/StillImage" />
        <dc:title></dc:title>
      </cc:Work>
    </rdf:RDF>
  </metadata>
  <g
     inkscape:label="Layer 1"
     inkscape:groupmode="layer"
     id="layer1"
     transform="translate(-34.505701,-32.800109)">
    <path
       inkscape:connector-curvature="0"
       id="path3861"
       d="m 459.76817,531.47556 c -14.89045,-2.51426 -28.69939,-8.18081 -42.98236,-17.63794 -19.76427,-13.08652 -37.71713,-31.38787 -72.31489,-73.71877 -16.72646,-20.46511 -24.82323,-28.70745 -34.64701,-35.26992 -15.7554,-10.52503 -29.0116,-7.42298 -55.56514,13.00257 -3.87848,2.98345 -9.46955,7.42722 -12.42458,9.87506 -23.51707,19.48102 -37.54787,26.79903 -57.16609,29.81606 -16.19972,2.49136 -32.24036,0.0457 -38.36892,-5.84943 -2.13408,-2.05288 -2.1827,-2.22971 -2.1827,-7.93716 0,-7.41694 2.09575,-14.90796 6.79944,-24.30391 4.6521,-9.29285 9.44631,-15.9263 16.1888,-22.39931 7.99205,-7.67269 13.99818,-10.96003 39.1347,-21.41939 31.646,-13.16805 46.13408,-20.46544 57.24524,-28.8335 5.98653,-4.50858 8.94734,-8.6179 11.81932,-16.40395 3.25126,-8.81421 8.50818,-25.74482 8.50357,-27.38675 -6.7e-4,-0.31256 -1.66535,-1.43756 -3.69882,-2.50009 -2.03349,-1.06254 -4.61405,-2.97606 -5.7346,-4.2523 -2.56928,-2.92629 -4.8285,-3.56586 -12.38753,-3.50682 -8.5073,0.0665 -8.81429,0.25547 -6.35535,3.91555 1.09204,1.62541 1.98552,3.31052 1.98552,3.74464 0,2.97485 -9.09669,6.28718 -12.08247,4.39951 -0.87211,-0.55138 -0.83766,-0.90961 0.2674,-2.78028 1.20665,-2.04274 1.21092,-2.18942 0.0876,-3.01078 -2.90761,-2.12615 -13.31044,-2.95182 -19.76083,-1.56846 -4.30467,0.92318 -5.31765,2.05248 -3.85015,4.29219 1.48772,2.27055 1.3748,3.7208 -0.28971,3.7208 -3.02062,0 -7.31075,-3.3854 -8.59853,-6.78517 -0.62469,-1.64918 -0.92323,-1.7481 -5.27608,-1.7481 -5.67412,0 -9.76743,-1.20526 -9.44266,-2.78029 0.16442,-0.79732 0.86827,-1.07987 2.49286,-1.00055 2.58274,0.12606 4.76486,-1.37826 2.98819,-2.06006 -0.57478,-0.22056 -3.96699,-0.41418 -7.53823,-0.4303 -7.82309,-0.0356 -12.17321,-0.79101 -13.28221,-2.30768 -0.67728,-0.9262 -1.08641,-0.98692 -2.29437,-0.34043 -1.27655,0.68315 -1.74802,0.51948 -3.58094,-1.24327 -1.32183,-1.27127 -2.97011,-2.1103 -4.40971,-2.24482 -4.65956,-0.43526 -2.70676,-2.40399 3.64208,-3.67177 l 2.6864,-0.5364 -2.92951,-0.22828 c -3.1971,-0.2491 -12.38102,0.63056 -23.93447,2.29244 -12.85748,1.84951 -18.24928,1.91627 -22.61074,0.28012 -4.28863,-1.60888 -7.46326,-3.83174 -7.08654,-4.96191 0.17585,-0.52754 3.27548,-0.69087 10.27336,-0.54151 9.55078,0.20396 16.40173,-0.60437 16.40173,-1.93508 0,-0.29329 -1.86447,-0.78631 -4.14327,-1.09558 -4.85379,-0.65877 -5.69815,-1.84582 -2.31765,-3.25826 3.51924,-1.47047 8.77466,-1.2201 15.53603,0.7401 4.76328,1.38094 6.74505,1.64421 9.64654,1.28168 5.88681,-0.73547 6.14854,-1.31687 0.75473,-1.67645 -8.3167,-0.55447 -7.01053,-1.72359 8.67785,-7.76738 2.37185,-0.91378 4.71405,-1.99465 5.20489,-2.40204 0.60204,-0.4996 0.89244,-2.43838 0.89244,-5.95789 0,-4.81551 0.17268,-5.46843 2.24278,-8.48062 2.00687,-2.92019 5.76167,-6.34339 10.79641,-9.8429 1.35024,-0.93849 1.736,-1.77329 1.736,-3.75652 0,-4.62987 3.02473,-11.96676 7.28729,-17.67629 2.21993,-2.97351 2.42219,-3.62785 2.50224,-8.09513 0.1545,-8.62293 2.10424,-14.29479 6.27668,-18.25883 1.88805,-1.79378 2.18471,-1.88243 3.13157,-0.93554 1.18516,1.18517 0.8295,3.8396 -1.672,12.47878 -1.77377,6.12593 -1.76813,6.89243 0.0508,6.89243 0.80202,0 2.0109,0.50014 2.6864,1.11149 0.6755,0.61129 1.24145,0.83796 1.25767,0.5037 0.0668,-1.37664 1.33506,-10.25646 1.93541,-13.55086 0.60464,-3.31797 1.3785,-6.08845 2.88726,-10.33658 1.85503,-5.22317 -9.10063,-19.47591 -25.67174,-33.39763 -16.8794,-14.18075 -32.15799,-24.22479 -36.87896,-24.24386 -2.87237,-0.0114 -6.97835,3.00581 -9.27272,6.81445 -6.46648,10.7343 -9.96268,31.90036 -7.58931,45.94585 2.48081,14.6813 2.46426,13.04051 0.19906,19.74711 l -2.06469,6.11289 3.03999,3.50105 c 1.67198,1.92554 4.27269,6.06985 5.77934,9.20957 2.56592,5.34714 2.7412,6.09128 2.76844,11.75299 0.0251,5.21081 -0.22285,6.58208 -1.79771,9.94337 -4.13803,8.8318 -11.93892,15.12851 -19.48765,15.73 -5.549,0.44218 -6.57838,-0.58396 -6.85479,-6.83286 -0.10821,-2.44643 -0.39904,-4.65028 -0.6463,-4.89757 -0.91995,-0.91995 -9.0847,-0.0851 -14.00035,1.43158 -13.455107,4.15136 -23.02435,15.53698 -27.154692,32.30904 -2.003193,8.13434 -2.016827,8.0195 1.402803,11.8229 3.477461,3.86781 4.3615,6.19779 3.11117,8.19989 -0.73025,1.16932 -0.630524,1.51654 0.741251,2.58096 0.871763,0.67636 2.793901,1.5442 4.271419,1.92843 1.477519,0.38429 3.38061,0.99054 4.229095,1.34729 0.848485,0.35676 2.812914,0.65837 4.365394,0.67026 5.61292,0.043 13.75345,5.84392 13.08337,9.32341 -0.28415,1.47537 -3.60663,3.52294 -11.07386,6.82446 -9.59615,4.24276 -15.861319,4.37526 -26.081288,0.55145 -4.849054,-1.81426 -8.603792,-5.24533 -16.537952,-15.11227 -5.14202,-6.39463 -6.402807,-7.57933 -8.819228,-8.28733 -5.193813,-1.52171 -11.624639,-9.61347 -17.330533,-21.8067 l -2.083248,-4.45183 0.309936,-10.56325 c 0.193381,-6.59074 0.645421,-11.36151 1.201995,-12.68584 0.769237,-1.83031 0.72751,-2.66598 -0.303086,-6.06984 -0.917216,-3.02932 -1.141396,-5.6593 -0.96404,-11.3094 0.209398,-6.67059 0.43795,-7.79895 2.433191,-12.01229 2.244236,-4.73915 8.761423,-13.37215 10.63861,-14.09251 0.570322,-0.21887 2.925453,-0.39792 5.233633,-0.39792 5.214734,0 17.058213,-2.10869 21.585881,-3.84323 5.008096,-1.91862 10.909997,-6.18019 18.199697,-13.14145 11.041572,-10.54411 15.929892,-17.45554 18.387612,-25.99768 1.46594,-5.09509 1.75442,-6.24735 3.53108,-14.10359 1.39025,-6.14761 4.70484,-18.4497 7.419,-27.53557 5.53197,-18.51875 8.88516,-24.433454 20.59409,-36.326538 7.07127,-7.182419 17.7208,-16.032695 20.34455,-16.907279 0.49609,-0.165361 0.47242,-1.430486 -0.0781,-4.171552 -1.09593,-5.45704 -0.98696,-12.011124 0.24909,-14.981044 2.98255,-7.166374 15.8228,-14.931084 24.66481,-14.915214 6.59207,0.01182 13.44815,5.535228 18.52659,14.925382 l 2.44556,4.521899 5.47664,0.01142 c 6.08941,0.01269 22.23509,1.635049 27.43173,2.756432 12.00757,2.591117 21.57488,5.894379 28.52066,9.847204 22.956,13.064199 40.44186,26.198734 59.78883,44.910433 35.93041,34.7507 52.03597,59.57939 110.81888,170.8411 16.50896,31.24744 20.35873,38.32005 24.41607,44.85619 3.15157,5.07702 3.81123,5.73479 7.48573,7.46389 4.4951,2.11527 20.03416,7.41694 57.42174,19.59129 13.85174,4.51046 28.78911,9.65881 33.19416,11.44076 15.09093,6.10464 26.82138,14.12011 40.07999,27.38681 7.3106,7.31506 8.84885,9.24477 11.28128,14.15235 3.7202,7.50573 3.58323,9.06491 -1.0384,11.82021 -5.70812,3.403 -9.82396,4.43988 -19.13756,4.82128 -12.75987,0.52251 -24.89363,-1.84092 -34.53258,-6.72647 -1.86849,-0.94702 -7.30845,-4.02288 -12.08879,-6.8352 -22.09054,-12.99605 -37.80827,-19.29055 -52.53894,-21.04034 -6.28525,-0.74655 -5.96651,-0.45662 7.24527,6.59115 23.67899,12.63144 40.71789,23.63385 58.09334,37.51231 30.09434,24.03755 41.98052,38.42851 44.34728,53.69269 0.43717,2.81944 0.3524,3.00353 -2.68637,5.83338 -6.58474,6.13197 -18.14521,8.94778 -31.53487,7.68101 -18.98229,-1.79592 -33.33809,-8.53676 -65.407,-30.71237 -45.00586,-31.12144 -51.64853,-35.41954 -65.60692,-42.45058 -8.75041,-4.40764 -18.24481,-8.03213 -25.39362,-9.69394 -2.10152,-0.48852 -3.81145,-0.70121 -3.79985,-0.47267 0.0255,0.50202 -0.4634,0.14715 17.44048,12.65844 49.35084,34.48656 69.06437,54.38222 79.30112,80.03376 2.51659,6.30611 2.71574,7.22103 2.0531,9.43274 -1.85892,6.20451 -10.26654,11.87979 -20.46566,13.81453 -6.40119,1.21425 -22.1602,1.21983 -29.32339,0.0101 z m 27.95089,-2.97968 c 8.59519,-1.7739 15.36396,-4.97749 17.00824,-8.04986 0.58177,-1.08705 0.33352,-1.13567 -3.19146,-0.62465 -11.28044,1.63541 -34.9342,-3.43161 -54.52806,-11.68073 -32.3125,-13.60371 -55.49454,-33.48768 -90.5889,-77.70095 -25.36997,-31.96215 -31.6587,-38.9169 -40.59329,-44.89279 -5.30797,-3.55014 -10.41489,-5.53619 -14.23582,-5.53619 -2.878,0 -9.04924,2.19364 -14.31701,5.08917 -4.74391,2.60756 -4.26761,2.29533 -35.36458,23.18146 -23.63846,15.87668 -33.40945,21.70455 -48.83463,29.12713 -17.21206,8.28244 -35.90384,13.76322 -47.10875,13.81312 -4.21279,0.0188 -4.64844,0.13365 -3.57969,0.94394 4.179,3.16827 22.11924,4.05599 34.33392,1.69874 8.05943,-1.55529 21.4182,-5.95272 25.90059,-8.52589 6.35281,-3.64692 16.86416,-11.15748 27.21229,-19.4436 21.70034,-17.37636 26.22639,-20.59198 35.70605,-25.36846 11.27939,-5.68328 19.73434,-6.29933 28.74094,-2.09425 11.75334,5.48757 23.01666,16.52457 48.02436,47.05957 30.75657,37.55449 44.31355,51.12967 64.98015,65.06763 11.12369,7.50204 19.20556,11.3597 31.21164,14.89809 14.50142,4.27386 28.12473,5.32914 39.22401,3.03852 z m 102.72905,-34.35875 c 8.76197,-2.66867 10.05204,-4.65573 3.02258,-4.65573 -14.76724,0 -45.19128,-9.5572 -65.18828,-20.47774 -9.44536,-5.15822 -9.78179,-5.38951 -30.90467,-21.24725 -41.07157,-30.83393 -61.112,-42.4256 -88.64927,-51.27587 -5.97631,-1.92071 -24.53657,-6.39584 -26.52644,-6.39584 -2.47082,0 7.30425,9.79292 17.42013,17.45191 4.19218,3.17404 5.84653,4.04027 7.72339,4.04397 3.64143,0.007 13.06565,2.45348 19.82913,5.14727 16.36368,6.51726 32.83608,16.25593 62.81546,37.13716 38.56591,26.86196 49.35454,33.29178 63.46614,37.82461 14.74647,4.73679 26.84665,5.5374 36.99183,2.44751 z m 12.03492,-76.00389 c 2.52215,-0.6528 2.58375,-0.72547 1.0074,-1.18853 -0.92345,-0.27126 -3.58499,-0.85005 -5.91453,-1.28625 -6.5217,-1.22097 -18.84369,-6.76939 -33.14154,-14.923 -17.1624,-9.78722 -20.20342,-11.28952 -30.11866,-14.87935 -13.21158,-4.78327 -27.784,-8.29359 -40.96756,-9.86862 -7.19618,-0.85971 -22.13408,-0.67005 -22.23202,0.28227 -0.0353,0.34346 2.61022,2.1242 5.879,3.95713 l 5.94323,3.33275 8.45261,0.56998 c 9.84922,0.66422 18.40486,2.66531 28.09009,6.57019 10.28851,4.14807 15.89099,7.06919 36.66163,19.1152 13.16761,7.63662 34.31003,11.43176 46.34035,8.31823 z M 109.78123,309.12125 c -0.57372,-0.57368 -2.98068,-1.35516 -5.34881,-1.73649 -2.36813,-0.38133 -5.665683,-0.91344 -7.327891,-1.18235 -3.49505,-0.56556 -5.999001,-1.78437 -9.662636,-4.70341 -2.465884,-1.9647 -6.455749,-2.87828 -6.455749,-1.47819 0,0.76958 3.654958,3.9807 7.829472,6.87865 3.081291,2.13905 3.639538,2.27786 10.63951,2.6451 4.063174,0.21316 8.283464,0.43983 9.378404,0.5037 1.79991,0.10497 1.89078,0.0161 0.9477,-0.92701 z m 144.32349,-8.58895 c 0.71403,-0.71405 0.49813,-1.34099 -1.19602,-3.47278 -1.13704,-1.43077 -1.97842,-3.21548 -1.86973,-3.96599 0.36549,-2.5238 2.91173,-3.14201 12.08674,-2.93435 l 8.53113,0.19301 2.55026,2.42757 c 3.32637,3.16632 7.59148,5.96743 9.08634,5.96743 1.76151,0 1.40273,-0.83937 -1.00659,-2.3549 -1.17819,-0.74111 -2.4454,-2.2097 -2.81604,-3.26364 -0.60107,-1.70915 -0.45753,-2.08928 1.32853,-3.51824 l 2.00241,-1.60216 -3.30512,0 c -4.97513,-0.007 -7.4532,-2.99729 -4.58618,-5.53781 1.82259,-1.615 7.25033,-3.19628 10.97123,-3.19628 3.17237,0 3.42013,-0.12727 4.24918,-2.18269 0.4842,-1.20049 1.43281,-4.87541 2.10802,-8.16659 l 1.22764,-5.98381 -2.22313,-1.85597 -2.22312,-1.85589 0.82835,-4.24901 c 0.45559,-2.33697 0.98031,-5.24795 1.16605,-6.46891 0.38343,-2.52038 -1.5824,-12.95737 -2.96568,-15.74538 -1.78868,-3.60508 -2.41148,-2.30849 -3.17521,6.61055 -0.42779,4.99583 -2.45652,9.95089 -5.26759,12.86583 -2.38975,2.478 -3.09634,2.61017 -5.98119,1.11835 -5.72218,-2.95907 -10.56966,-9.48164 -13.43404,-18.07623 -2.73705,-8.21259 -1.90808,-26.60481 1.43756,-31.8954 1.19262,-1.88585 1.97396,0.12546 1.30232,3.35242 -1.99261,9.57379 -2.58115,19.50023 -1.27419,21.49118 0.78512,1.19599 0.79843,1.18027 4.46835,-5.26943 5.53004,-9.71872 11.51489,-25.35194 12.91602,-33.73833 2.53683,-15.18406 -2.88525,-48.9831 -10.17246,-63.41114 -4.69703,-9.2997 -13.87465,-19.64797 -18.4419,-20.79432 -2.53053,-0.63507 -5.96396,1.45508 -12.30937,7.4935 -5.41005,5.14841 -19.49062,20.90823 -20.01294,22.39972 -0.12449,0.35548 1.45571,0.63929 3.55924,0.63929 4.37485,0 6.84602,1.08712 9.41726,4.14283 1.58603,1.88491 1.78916,2.61427 1.51697,5.44694 -0.78512,8.17088 -9.57678,12.50263 -16.95601,8.35436 -4.78774,-2.6915 -6.49803,-9.1592 -3.65509,-13.82239 0.75728,-1.24212 1.28503,-2.32098 1.17279,-2.3974 -0.11225,-0.0764 -1.41297,-0.48597 -2.89049,-0.91009 -1.47752,-0.42418 -6.76637,-2.56228 -11.75299,-4.75136 -42.15945,-18.50753 -39.61644,-17.65628 -44.99716,-15.0621 -4.78639,2.30775 -10.99811,8.54046 -15.62081,15.67379 -4.20855,6.49423 -7.3447,14.52851 -12.5707,32.2042 -3.73554,12.63453 -5.15489,15.09345 -14.75508,25.56201 -3.29219,3.58996 -5.41879,6.46145 -5.28805,7.14031 0.59631,3.09641 11.23487,5.85359 20.02747,5.19052 2.77035,-0.20894 7.00142,-0.0457 9.40239,0.3626 2.40097,0.4084 4.91046,0.80786 5.57665,0.88778 2.18527,0.2622 5.25958,-9.32489 4.36836,-13.62245 -0.2681,-1.29283 -0.87764,-4.16392 -1.35453,-6.38019 -1.24747,-5.79738 -1.00213,-23.40672 0.42574,-30.55777 2.29639,-11.50081 5.1505,-18.42949 9.73094,-23.62304 3.57526,-4.05384 7.74513,-5.78388 11.32901,-4.70039 10.86926,3.286 45.61251,31.3647 55.93824,45.20797 1.82968,2.45295 4.50321,6.98625 5.9412,10.07399 2.48691,5.34002 3.13608,7.22339 4.77848,13.86322 0.52619,2.12723 1.00933,2.82697 1.85496,2.6864 4.02463,-0.66885 -1.05129,12.43728 -8.39142,21.66673 -2.21626,2.78674 -6.64418,7.45973 -9.83983,10.38441 -5.0476,4.61959 -7.15113,7.71903 -5.23883,7.71903 0.96051,0 9.35156,-6.59733 14.15803,-11.1315 3.91962,-3.69755 4.93586,-5.18018 7.42349,-10.83014 1.58521,-3.60038 3.56876,-8.50943 4.40789,-10.90899 0.83912,-2.39962 1.82734,-4.46352 2.19605,-4.58642 1.24237,-0.41411 1.55451,1.18222 0.72605,3.71307 -1.80689,5.51995 -4.08701,11.4317 -5.76187,14.93919 -2.38748,4.99979 -5.96608,13.43306 -8.12214,19.14058 -1.44797,3.83309 -1.77297,5.81733 -1.75998,10.74559 0.0191,7.26631 1.39565,11.15863 6.35835,17.97952 4.69689,6.45562 4.43817,7.12628 -1.58275,4.10301 -12.03164,-6.04144 -22.43217,-17.78362 -25.76483,-29.08831 l -0.9045,-3.06821 0.31826,3.17203 c 0.43155,4.30113 3.87565,13.01003 6.73616,17.03338 2.27032,3.19325 2.91735,4.97957 1.8037,4.97957 -0.88821,0 -4.60208,-4.20562 -5.78241,-6.54809 -1.15463,-2.2915 -2.85802,-2.87136 -3.50232,-1.19236 -0.42252,1.10109 1.65258,4.80758 3.7585,6.71344 1.70726,1.54501 1.73904,2.37021 0.0913,2.37021 -1.42969,0 -5.2012,-3.9795 -6.15895,-6.49853 -0.93268,-2.45315 -0.75935,-6.07186 0.39804,-8.31004 0.56355,-1.0898 0.85258,-1.98142 0.64229,-1.98142 -0.73735,0 -3.50967,3.05195 -5.60051,6.16542 -2.98796,4.44935 -2.78741,5.89893 1.31225,9.4852 3.2974,2.88452 3.59061,4.43706 0.66245,3.5077 -2.15695,-0.68457 -6.77192,-6.19692 -6.77192,-8.08868 0,-2.633 2.19037,-6.35863 6.32941,-10.7658 2.06492,-2.19869 3.60108,-4.40012 3.41369,-4.89207 -0.18739,-0.49194 -0.34071,-1.32305 -0.34071,-1.8469 0,-1.55159 -1.34965,-1.10901 -4.98278,1.63407 -5.3467,4.03678 -7.13017,7.94657 -7.72303,16.93062 -0.4237,6.42069 -0.68309,7.55019 -2.07385,9.03059 -1.83104,1.94905 -3.24222,1.28961 -2.04149,-0.95394 1.30904,-2.44596 0.16843,-2.70332 -4.00337,-0.9033 l -4.021,1.73501 1.93969,1.1796 c 2.78632,1.69444 3.11085,2.57713 1.52906,4.15894 -1.95725,1.95725 -14.50277,2.54644 -19.31405,0.90707 -4.25879,-1.45113 -4.97794,-1.38121 -4.97794,0.48375 0,0.86623 -0.52888,2.04858 -1.1753,2.62756 -1.58322,1.41802 -7.89743,2.50326 -14.89853,2.56075 -3.83884,0.0316 -5.30621,0.23922 -4.40995,0.62438 2.08962,0.89793 8.63858,0.76717 15.01473,-0.2998 12.39581,-2.07423 16.16902,-2.51897 24.41405,-2.87767 7.25446,-0.31558 8.79129,-0.20349 10.24189,0.74695 2.27463,1.49042 2.1544,2.21165 -0.64391,3.86271 -4.1476,2.4471 -2.45451,3.46142 2.68639,1.60935 3.73489,-1.34555 6.62485,-1.25401 8.48849,0.26877 1.27205,1.03937 1.41953,1.46429 0.746,2.14912 -1.6096,1.63662 -0.79878,1.92816 5.3728,1.93193 9.58172,0.007 13.92303,1.74105 12.01184,4.80139 -0.79171,1.26771 -0.6842,1.32661 2.04508,1.12077 l 2.88073,-0.21733 0.36946,2.6864 c 0.2032,1.47751 0.60336,3.06417 0.88925,3.52589 0.68494,1.10619 1.78372,1.0749 1.78372,-0.051 0,-1.53064 3.06171,-3.85317 6.40652,-4.85983 1.76514,-0.53123 5.50351,-0.95508 8.3075,-0.94191 9.79336,0.0457 16.67872,2.88512 15.9713,6.58577 -0.27837,1.45622 -0.13255,1.55126 1.7905,1.16663 1.15145,-0.23029 2.48565,-0.81082 2.96489,-1.29007 z m -33.42591,-9.30844 c 0,-1.45522 -2.17074,-3.18815 -4.95756,-3.95766 -1.39334,-0.3847 -2.43004,-1.09438 -2.43004,-1.66342 0,-1.80499 3.52599,-2.50648 12.76039,-2.53871 10.57913,-0.0369 14.10359,0.95689 14.10359,3.97687 0,2.57639 -4.14615,4.12637 -12.59391,4.70825 -5.85767,0.40343 -6.88247,0.32519 -6.88247,-0.52533 z m 10.80428,-2.55899 c 4.87216,-0.69101 6.73634,-1.46328 5.45046,-2.25799 -1.21472,-0.75078 -13.87801,-1.19323 -14.85844,-0.51921 -0.81272,0.55877 -0.77977,0.92244 0.22216,2.45161 0.89045,1.35898 1.54836,1.70217 2.70619,1.41156 0.84136,-0.21121 3.75719,-0.69987 6.47963,-1.08597 z m 23.44728,-17.22478 c -3.41439,-0.52902 -7.78972,-1.81614 -10.07399,-2.96357 -7.15747,-3.5952 -11.79448,-13.60962 -11.70614,-25.28148 0.0444,-5.86924 0.19196,-6.48241 2.85086,-11.84829 4.16858,-8.41252 8.85075,-11.83479 11.77339,-8.60533 0.91769,1.01404 1.112,2.79983 1.11442,10.24189 0.003,7.66261 0.23343,9.67197 1.54066,13.40505 1.84549,5.27024 7.09408,13.053 12.19579,18.08429 3.9356,3.88131 4.5479,5.57817 2.42315,6.71532 -1.24501,0.6663 -6.58616,0.79941 -10.11814,0.25212 z m 7.65183,-2.79909 c 0.36424,-0.58933 -8.19182,-9.51818 -9.12081,-9.51818 -0.3002,0 -0.54581,0.30666 -0.54581,0.68148 0,0.90948 -4.05149,3.34241 -5.57122,3.34557 -0.66321,0 -1.94764,-0.7393 -2.8543,-1.64596 -1.45519,-1.45515 -1.64847,-2.23508 -1.64847,-6.65165 0,-3.56599 0.48095,-6.42029 1.67431,-9.93658 1.38923,-4.0934 1.67511,-6.21317 1.679,-12.4493 0.003,-4.62826 -0.27196,-7.68686 -0.71537,-7.96087 -0.39603,-0.2448 -2.00105,0.89188 -3.56673,2.52595 -6.32066,6.59658 -8.04833,18.61109 -4.10738,28.56352 2.60557,6.58013 4.86213,9.15618 9.58265,10.93935 5.84008,2.20613 14.39923,3.39285 15.19413,2.10667 z m -12.9814,-9.31475 c 1.0612,-0.62687 2.04637,-1.45797 2.18927,-1.8469 0.1429,-0.38892 -0.88473,-3.06806 -2.28363,-5.95366 -2.25642,-4.65445 -2.6246,-5.09488 -3.26255,-3.90286 -1.02423,1.91379 -1.05071,10.62315 -0.036,11.8458 1.03134,1.24266 1.04948,1.24192 3.39291,-0.14238 z m 37.04334,33.36224 c 0.16693,-1.48444 -0.031,-1.64025 -1.8276,-1.43904 -2.97759,0.33352 -3.33903,1.10659 -1.27603,2.72938 2.01739,1.58686 2.81749,1.25421 3.10363,-1.29034 z m -97.5305,-6.70169 c 0,-0.84917 -1.37239,-0.84917 -2.6864,0 -0.78501,0.50732 -0.5997,0.65326 0.8395,0.66132 1.01579,0.007 1.8469,-0.29194 1.8469,-0.66132 z m 99.42232,-1.70989 c 1.51779,-1.82884 -0.006,-2.50722 -4.58002,-2.03858 -4.44431,0.45528 -6.86279,1.29552 -6.86279,2.38425 0,1.42513 10.22964,1.11613 11.44281,-0.34567 z M 81.906041,283.8041 c 0.222729,-0.8311 0.411193,-2.41776 0.418816,-3.5259 0.01941,-2.82414 2.9074,-11.02383 5.882371,-16.70146 3.481114,-6.64366 10.945343,-14.34476 16.973992,-17.51276 6.15974,-3.23684 9.95336,-4.30489 16.43243,-4.62631 l 5.34873,-0.26535 0.48867,-2.60984 c 1.53897,-8.2193 2.5706,-11.00482 4.07571,-11.00482 0.72809,0 0.59392,1.27986 -1.17555,11.21409 -0.60514,3.39742 -1.00438,7.17517 -0.88719,8.39499 0.19253,2.00399 0.38411,1.73213 1.98654,-2.8191 0.97539,-2.77035 2.47029,-6.87879 3.32198,-9.12992 l 1.54854,-4.09293 -2.4788,-7.73273 c -3.13851,-9.79064 -4.02366,-10.94881 -9.02993,-11.81531 -3.26447,-0.56509 -4.38857,-0.47113 -7.22404,0.6037 -1.8469,0.70014 -3.84095,1.27308 -4.43123,1.27328 -0.59028,2.1e-4 -4.75469,-1.20854 -9.25423,-2.68606 -7.583394,-2.49015 -8.732924,-2.6864 -15.736798,-2.6864 -7.618764,0 -21.847617,1.46107 -27.093862,2.78211 -1.560737,0.39295 -3.291636,1.21613 -3.846451,1.82916 -4.391575,4.85264 -2.086182,21.04457 4.43269,31.13313 3.303463,5.11235 10.335645,13.70996 11.615404,14.20104 1.183123,0.454 0.760902,-0.67919 -2.218984,-5.95568 -3.631432,-6.43016 -7.530509,-15.06068 -8.31534,-18.40572 -0.398151,-1.69699 -0.988829,-3.77969 -1.312627,-4.62819 -0.936425,-2.45382 -0.68522,-6.40907 0.521678,-8.21393 1.845185,-2.7594 4.460078,-5.35432 5.395447,-5.35432 1.414503,0 1.040234,1.12392 -1.468848,4.41099 -2.970772,3.89192 -3.012035,6.05817 -0.267679,14.05342 2.251577,6.55958 2.209024,6.46764 9.237567,19.96135 4.759678,9.13784 5.677513,12.39288 3.908446,13.86107 -1.595713,1.32432 -9.83568,1.63736 -14.893132,0.56575 -2.585657,-0.54789 -4.820975,-0.88342 -4.967377,-0.74561 -0.680061,0.63997 3.630069,5.86347 6.804544,8.2465 3.782924,2.83986 14.52069,9.49286 15.321169,9.49286 0.265315,0 0.664621,-0.68 0.887344,-1.5111 z m -9.650688,-0.15749 c 0,-0.17898 -1.925294,-1.54139 -4.27843,-3.0275 -5.219073,-3.29614 -9.801831,-8.08082 -12.118345,-12.6522 -0.954028,-1.88269 -2.414998,-3.77989 -3.246599,-4.21596 -0.831601,-0.43607 -2.659265,-1.69223 -4.06147,-2.7915 -1.402212,-1.09921 -2.711871,-1.83616 -2.910362,-1.6377 -0.593607,0.59363 2.40998,10.67917 3.896827,13.08497 0.758531,1.22728 2.144202,2.7449 3.07927,3.37251 1.228986,0.82479 14.402521,6.32727 19.471209,8.13293 0.09235,0.0329 0.1679,-0.0866 0.1679,-0.26555 z M 222.98938,260.24594 c -0.96459,-1.72588 -2.01913,-3.13791 -2.34342,-3.13791 -1.56928,0 -9.59229,-8.58351 -11.36768,-12.16179 -4.52538,-9.12099 -3.01894,-20.21676 4.16801,-30.69988 1.09406,-1.59579 1.85704,-3.03362 1.69552,-3.19521 -0.16153,-0.16152 -1.31124,0.39208 -2.55492,1.23017 -3.74741,2.52542 -6.395,6.63124 -7.69394,11.9317 -2.65622,10.83895 0.84802,22.58629 9.68935,32.48197 2.40091,2.68721 9.70878,8.04516 9.95708,7.30029 0.11209,-0.33627 -0.5854,-2.02353 -1.55,-3.74934 z m 73.25198,-10.86131 c 1.90771,-9.90273 2.28094,-12.1595 4.33181,-26.19237 4.85054,-33.18936 2.62882,-54.53729 -8.04981,-77.34843 -3.23161,-6.90317 -11.70231,-20.36927 -12.81307,-20.36927 -0.79961,0 -0.76775,0.62586 0.39766,7.8113 1.29964,8.01305 3.03261,30.33601 3.01716,38.86485 -0.0123,6.78134 -1.44221,18.98954 -2.66918,22.78837 -0.36608,1.13346 -1.61002,4.78078 -2.7643,8.1052 -1.15427,3.32442 -2.53914,7.40438 -3.07747,9.06659 -0.53834,1.66221 -1.27843,3.57875 -1.64464,4.25908 -0.50672,0.94125 -0.37441,1.45784 0.55358,2.16134 0.6707,0.50847 1.43549,0.93406 1.69953,0.94582 0.26404,0.0121 0.82001,0.65655 1.23548,1.43285 0.63057,1.17826 0.48424,1.70553 -0.88531,3.1901 -1.7865,1.93662 -2.39421,3.22502 -3.21461,6.81559 -0.2954,1.29283 -1.02652,4.16392 -1.62471,6.3802 -2.35872,8.73898 -2.31579,8.28417 -0.94607,10.0255 0.70585,0.89732 2.32403,2.2747 3.59595,3.06081 1.84343,1.1393 2.59073,1.28034 3.68369,0.69544 2.49377,-1.3346 4.60867,-6.72029 5.31155,-13.52601 0.72168,-6.98772 1.56982,-9.83181 3.10802,-10.42208 1.57185,-0.60316 3.03722,1.01714 5.24624,5.80094 1.89962,4.11375 2.01948,4.87239 2.07935,13.16073 0.0476,6.5906 -0.17014,9.07693 -0.86866,9.91865 -0.80453,0.96952 -0.76531,1.3078 0.28635,2.46987 0.6702,0.74057 1.4394,1.11264 1.70934,0.82687 0.26994,-0.28576 1.30589,-4.75062 2.30212,-9.92194 z m -16.31948,-24.68127 c -0.38155,-0.46173 -0.90601,-1.97544 -1.16547,-3.36384 -0.25945,-1.3884 -1.08081,-3.2987 -1.82523,-4.24505 -1.11611,-1.41888 -1.22313,-2.00687 -0.61017,-3.35215 1.0644,-2.33609 5.27495,-2.30829 7.48995,0.0497 2.28237,2.42944 2.30773,7.61137 0.049,10.01697 -1.79815,1.91513 -2.88984,2.16309 -3.9381,0.89457 z m 2.88465,-3.87681 c 0.59745,-1.88236 -0.26564,-5.37111 -1.44027,-5.82182 -1.74342,-0.66905 -1.85185,0.43109 -0.2143,2.17423 1.35336,1.44058 1.4752,1.90714 0.78618,3.01045 -0.97903,1.56764 -1.01957,1.99545 -0.18905,1.99545 0.34449,0 0.82034,-0.61122 1.05744,-1.35831 z m -62.58898,26.47579 c -0.0935,-4.30441 -0.40918,-6.09087 -1.23839,-7.00713 -1.53452,-1.69559 -3.00155,-0.93191 -3.00155,1.56247 0,1.17503 -0.60788,2.71461 -1.40815,3.56647 l -1.40817,1.49894 2.8369,3.07767 c 1.56029,1.6927 3.17617,3.07794 3.59085,3.07828 0.50889,4.7e-4 0.71319,-1.87733 0.62851,-5.7767 z m -7.26214,-4.2979 c 0.22829,-0.36938 -0.0561,-0.6716 -0.63196,-0.6716 -0.57587,0 -1.04703,0.30222 -1.04703,0.6716 0,0.36938 0.28438,0.6716 0.63196,0.6716 0.34758,0 0.81874,-0.30222 1.04703,-0.6716 z m 54.9442,-3.88332 c 1.29348,-6.65132 3.94532,-15.3664 4.88476,-16.05331 1.01937,-0.74541 1.00576,-0.93701 -0.17302,-2.43555 l -1.27943,-1.62655 -2.19529,3.96284 c -3.6544,6.59685 -5.63393,21.33241 -2.51838,18.74669 0.50952,-0.42284 1.08613,-1.59021 1.28136,-2.59412 z m -46.46697,-5.33868 c 1.82687,-1.07919 3.85251,-4.88159 2.60054,-4.88159 -0.33294,0 -2.3572,1.66335 -4.49836,3.69635 -3.27174,3.10655 -3.58209,3.58534 -1.9447,3.00031 1.07156,-0.38288 2.8007,-1.19968 3.84252,-1.81507 z m -7.96626,-10.41691 c -0.17648,-1.38222 -0.5903,-2.34657 -0.91961,-2.14307 -0.69407,0.42895 -0.7916,3.03637 -0.17378,4.64639 0.7076,1.84401 1.43562,0.17717 1.09339,-2.50332 z m 4.80745,-1.34857 c 0.92927,-1.42708 2.31308,-11.92089 1.572,-11.92089 -0.19066,0 -1.46917,1.62984 -2.84114,3.62187 -2.08483,3.0271 -2.374,3.84706 -1.76079,4.99287 0.40354,0.75401 0.73371,2.14637 0.73371,3.09406 0,2.12622 0.99025,2.21762 2.29622,0.21209 z m 5.65026,-7.05179 c 0.39702,-1.0158 0.81145,-2.60245 0.92098,-3.5259 0.13684,-1.15381 0.61198,-1.679 1.51897,-1.679 1.75354,0 2.92599,-3.91153 2.99395,-9.98836 0.0444,-3.97069 -0.0852,-4.502 -0.92756,-3.80286 -0.65061,0.53996 -1.04496,2.42662 -1.1753,5.6229 -0.15253,3.74094 -0.42009,4.81033 -1.20353,4.81033 -1.45036,0 -1.61038,-3.9026 -0.41754,-10.18306 0.54985,-2.89506 1.20329,-5.79261 1.45209,-6.43903 0.26031,-0.67636 0.14216,-1.1753 -0.2783,-1.1753 -0.773,0 -0.96443,0.63822 -2.11505,7.0518 -2.50097,13.94032 -3.21059,21.15538 -2.08067,21.15538 0.32456,0 0.91494,-0.83111 1.31196,-1.8469 z m -11.84235,-9.04174 c 0.25823,-2.04932 1.08934,-5.56595 1.8469,-7.81467 1.51095,-4.48521 1.69765,-5.75151 0.76281,-5.17373 -1.18593,0.73292 -3.98103,9.47727 -4.25713,13.31829 -0.36496,5.07709 1.00053,4.80368 1.64742,-0.32989 z m 10.61187,-56.2713 c 0,-0.36938 -0.30222,-0.6716 -0.6716,-0.6716 -0.36938,0 -0.6716,0.30222 -0.6716,0.6716 0,0.36938 0.30222,0.6716 0.6716,0.6716 0.36938,0 0.6716,-0.30222 0.6716,-0.6716 z"
       style="fill:#a0a0a1" />
    <path
       inkscape:connector-curvature="0"
       id="path3859"
       d="m 490.99754,518.59093 c -13.45051,-1.59928 -22.65984,-3.75491 -35.0705,-8.20916 -36.59213,-13.13292 -60.70112,-32.76726 -98.16107,-79.94208 -25.64451,-32.2952 -32.83261,-40.21604 -41.89428,-46.16493 -6.13592,-4.02819 -12.06739,-5.93828 -16.41552,-5.28623 -3.68957,0.55327 -15.46049,6.42311 -23.03462,11.48663 -5.83282,3.89951 -24.10723,16.31664 -29.55037,20.07901 -6.51504,4.50334 -23.52405,15.11226 -30.15363,18.80767 -22.71253,12.66005 -45.94487,20.4952 -60.77121,20.4952 -3.73731,0 -5.93545,0.31437 -6.89443,0.98604 -1.2655,0.88644 -1.52587,0.85568 -2.57541,-0.30403 -1.90279,-2.10258 -1.16226,-14.16544 1.29934,-21.16579 4.10743,-11.68079 11.57302,-23.58885 19.6047,-31.27061 8.11511,-7.76154 11.21713,-9.48674 35.50088,-19.74354 40.537,-17.12182 58.56165,-26.73624 66.72302,-35.59027 2.978,-3.23073 5.34833,-7.82782 9.01998,-17.49348 2.26964,-5.97488 6.6037,-22.54499 6.21619,-23.76595 -0.22798,-0.71828 -0.1,-1.50036 0.28441,-1.73797 0.38441,-0.23754 0.69892,-1.13265 0.69892,-1.98907 0,-0.85643 0.41987,-1.9056 0.93303,-2.33146 1.13958,-0.94575 1.73527,-3.70555 1.04197,-4.82732 -0.27969,-0.45253 -0.26755,-1.30317 0.027,-1.89029 2.82696,-5.63539 2.94218,-6.00994 2.14432,-6.97126 -0.63478,-0.76489 -0.59023,-1.14797 0.21082,-1.81279 0.55862,-0.4636 1.01568,-1.23769 1.01568,-1.7201 0,-0.48247 0.4726,-1.34978 1.05022,-1.92742 0.57761,-0.57764 0.86045,-1.3573 0.62851,-1.73259 -0.23193,-0.37522 0.0704,-3.09507 0.67187,-6.04392 0.60146,-2.94893 0.9105,-5.65783 0.68677,-6.01989 -0.22374,-0.36199 0.0191,-1.34669 0.53952,-2.18827 0.79643,-1.28772 2.98015,-12.0278 5.84148,-28.72981 2.68708,-15.68493 5.00303,-44.19614 3.75416,-46.21685 -0.26146,-0.42304 -0.44041,-2.05945 -0.39768,-3.63644 0.17893,-6.60283 -4.97809,-24.58463 -10.15345,-35.40376 -4.19689,-8.77364 -6.47826,-12.68772 -10.98158,-18.84085 -1.48687,-2.03158 -2.7074,-3.99601 -2.7123,-4.36539 -0.005,-0.36938 -0.73202,-0.77382 -1.61581,-0.8988 -1.49101,-0.21075 -1.57428,-0.0658 -1.1546,2.01479 2.29801,11.3906 4.46139,35.34984 4.32607,47.91076 -0.0914,8.47988 -0.12574,8.38888 -1.26817,-3.358 -0.8095,-8.32353 -2.05363,-15.61945 -4.34751,-25.49471 -1.74254,-7.50177 -3.24382,-11.64298 -6.73173,-18.56899 -1.29704,-2.57558 -2.15034,-5.01926 -1.89623,-5.43041 0.26199,-0.42392 0.15958,-0.56066 -0.23655,-0.31586 -0.3842,0.23748 -2.19586,-1.62043 -4.02589,-4.12859 -3.64752,-4.99918 -8.06954,-8.96222 -11.68639,-10.47345 -2.10967,-0.88148 -2.59895,-0.85482 -5.13303,0.27972 -1.5406,0.68973 -5.54128,3.89568 -8.89041,7.12426 -3.34913,3.22857 -5.88985,5.28736 -5.64604,4.57506 0.32134,-0.93869 0.0986,-0.83305 -0.80973,0.38402 -0.68917,0.92345 -1.25524,1.89902 -1.25794,2.16786 -0.008,0.78194 -12.52366,15.18614 -13.53117,15.57278 -0.50221,0.19268 -0.91312,0.81317 -0.91312,1.37886 0,0.79893 0.82451,1.02848 3.6938,1.02848 3.13862,0 3.6938,0.1857 3.6938,1.23541 0,1.30371 2.5245,2.79419 4.73279,2.79419 0.77272,0 1.3116,-0.45669 1.3116,-1.1115 0,-0.99954 0.13527,-0.98906 1.3432,0.1041 1.93325,1.74959 1.83645,6.79283 -0.18806,9.79696 -2.02089,2.99882 -4.0725,3.94947 -8.54273,3.9584 -4.35058,0.009 -7.72514,-1.72379 -8.80646,-4.5212 -0.98264,-2.54207 -0.40198,-8.60064 0.96956,-10.11617 1.5944,-1.76174 1.38921,-3.14557 -0.60088,-4.0523 -0.99586,-0.45373 -1.54545,-0.4992 -1.30356,-0.10779 0.55258,0.8941 0.46522,0.88054 -3.75341,-0.58295 -7.27925,-2.52521 -13.48868,-5.63458 -12.56573,-6.29221 0.60067,-0.42801 0.37241,-0.51236 -0.72714,-0.26871 -1.06094,0.23506 -4.12554,-0.7861 -9.06659,-3.02112 -14.90953,-6.7442 -23.58645,-10.10979 -26.91214,-10.43853 -3.07927,-0.30444 -3.75142,-0.0963 -7.41578,2.29552 -4.63579,3.02603 -10.14845,8.80749 -13.93955,14.61931 -1.44569,2.21628 -2.89982,3.95579 -3.23138,3.86559 -0.33156,-0.0901 -0.79528,0.66542 -1.03049,1.679 -0.33451,1.44159 -7.0382,21.71173 -8.69811,26.30077 -0.2624,0.72546 -0.53071,0.76536 -1.12818,0.1679 -1.14721,-1.14723 -2.16792,-0.95857 -1.18988,0.21988 1.22484,1.47584 0.956,5.58133 -0.64583,9.86264 -1.71654,4.58783 -8.00439,13.18014 -8.75568,11.96454 -0.33479,-0.54171 -0.77655,-0.0282 -1.27511,1.48256 -0.87316,2.6457 -4.97844,6.9438 -6.01839,6.30108 -0.40625,-0.25105 -0.88119,0.55883 -1.14155,1.94669 -0.52199,2.78244 0.21929,3.92577 3.69484,5.69886 4.29511,2.19123 8.12859,2.80964 18.77839,3.02952 6.7866,0.14009 11.33669,0.54272 12.91691,1.14299 2.57205,0.97705 7.60739,6.32197 10.32472,10.9595 4.79476,8.18297 5.64516,18.16266 2.15404,25.27812 -3.93139,8.01279 -12.09161,13.99083 -19.11584,14.00386 -3.32114,0.007 -4.63528,-0.76724 -2.61859,-1.54105 0.53175,-0.2041 1.06132,-1.83226 1.27941,-3.93356 0.20466,-1.97202 1.61953,-6.86294 3.14414,-10.8689 l 2.77203,-7.28342 -1.76947,-6.2352 c -0.9732,-3.42939 -2.57667,-7.85073 -3.56326,-9.82516 -1.51803,-3.03812 -2.20439,-3.71375 -4.46467,-4.39502 -3.65548,-1.10182 -8.37215,-1.05682 -10.39429,0.0991 -2.62923,1.50297 -4.97405,1.20928 -14.04476,-1.75925 l -8.453819,-2.76666 -10.07399,0.39625 c -10.533828,0.41431 -20.954826,1.76691 -25.520775,3.31246 -3.931684,1.33084 -5.402614,4.55526 -5.274788,11.56279 0.135589,7.43326 2.286298,15.0214 5.996092,21.15538 3.850729,6.36696 14.563867,18.961 16.758043,19.70023 1.24677,0.42001 1.661234,1.03634 1.661234,2.47021 0,1.82151 -0.179881,1.93319 -3.861696,2.39854 -2.364997,0.29893 -5.813915,0.15736 -8.898691,-0.36521 -2.770348,-0.46931 -6.019209,-0.8712 -7.219693,-0.89303 -1.200484,-0.0222 -2.182698,-0.27723 -2.182698,-0.56743 0,-0.6397 -9.810831,-7.96812 -10.667241,-7.96812 -1.247663,0 -1.289491,2.00694 -0.134978,6.4765 1.499366,5.80463 3.470436,9.67593 6.017947,11.81947 1.094848,0.9213 6.774718,3.55653 12.621937,5.85615 5.847226,2.29962 12.808172,5.36164 15.46878,6.80444 2.660601,1.44287 5.252343,2.6234 5.759421,2.6234 1.339773,0 3.846068,2.89164 3.821145,4.40865 -0.01175,0.71498 -0.413692,1.81627 -0.893201,2.44744 -0.744676,0.98007 -1.230423,1.03742 -3.330239,0.39295 -1.889283,-0.57985 -2.887434,-0.55695 -4.311695,0.0989 l -1.853298,0.85334 4.278672,3.94887 c 6.823295,6.29738 9.280589,7.17422 21.182951,7.55851 8.38056,0.27059 10.11585,0.5039 10.63389,1.42957 0.34048,0.6084 0.47719,1.47584 0.30382,1.92762 -0.35236,0.91828 -8.75665,5.16353 -14.40803,7.27799 -5.042238,1.88652 -13.268705,1.48101 -20.285098,-1.00001 -5.830235,-2.06161 -7.711976,-3.74558 -17.057052,-15.26478 -5.440317,-6.70592 -6.583205,-7.76799 -9.163335,-8.51501 -1.621281,-0.46938 -3.970321,-1.83776 -5.220093,-3.0408 -2.658251,-2.55893 -8.847784,-12.31908 -11.303924,-17.82492 -1.654807,-3.70958 -1.70374,-4.21213 -1.45277,-14.92025 0.177188,-7.55999 0.552532,-11.67797 1.181169,-12.95878 0.802272,-1.6346 0.768242,-2.30345 -0.26314,-5.17165 -0.948506,-2.6377 -1.14006,-4.94041 -0.961199,-11.55459 0.212084,-7.84267 0.337143,-8.48109 2.473272,-12.62574 2.06183,-4.00051 5.369598,-8.59889 8.327798,-11.57716 0.871877,-0.87778 2.258944,-1.18376 5.372795,-1.18537 5.002166,0 14.653673,-1.59156 20.480113,-3.3717 4.085788,-1.24837 10.440878,-4.81671 13.385935,-7.5162 0.803763,-0.73668 1.732068,-1.17221 2.062898,-0.96771 0.595144,0.36783 2.44307,-1.38229 2.93636,-2.78089 0.140445,-0.39826 3.957547,-4.51503 8.482447,-9.14846 4.524904,-4.63343 8.227094,-8.75403 8.227094,-9.15692 0,-0.4029 0.73242,-1.99526 1.62759,-3.53853 0.89518,-1.54333 2.07794,-4.46821 2.62835,-6.4998 0.55043,-2.03159 1.30925,-4.60046 1.68628,-5.7086 0.37704,-1.10813 1.18105,-4.43255 1.7867,-7.38759 1.79945,-8.77975 2.98917,-12.52083 3.81877,-12.00813 0.52159,0.32237 0.6243,-0.16837 0.33646,-1.60754 -0.50584,-2.52917 3.09742,-15.68144 7.76948,-28.35929 3.52471,-9.564512 7.36791,-15.071828 17.63481,-25.270937 5.51563,-5.479176 8.99829,-8.408826 10.64041,-8.95074 1.3426,-0.443121 2.4411,-1.164822 2.4411,-1.603846 0,-0.439025 1.54039,-1.806603 3.42309,-3.039122 3.03468,-1.986678 3.37511,-2.442701 3.00018,-4.018843 -0.97678,-4.106246 -1.20723,-14.044674 -0.38533,-16.61784 2.96065,-9.269031 20.79638,-17.278457 29.45532,-13.227404 3.6695,1.716749 8.89643,7.415793 11.70709,12.764491 1.37233,2.611554 2.97384,4.931977 3.55891,5.156486 0.58506,0.224509 3.42796,0.408198 6.31756,0.408198 5.50725,0 22.58877,1.70149 24.51952,2.442385 0.61753,0.236968 1.38055,1.06881 1.6956,1.848531 0.46389,1.148045 0.58093,1.194144 0.6154,0.24238 0.0789,-2.179085 5.82207,-1.249497 16.49676,2.670158 8.57382,3.148236 24.71069,12.022367 24.23689,13.32856 -0.1436,0.395841 0.32492,1.085708 1.04116,1.53306 0.71624,0.447285 1.12157,1.105587 0.90075,1.462878 -0.22082,0.357291 -0.0814,0.649638 0.30974,0.649638 0.39118,0 0.71123,-0.45333 0.71123,-1.007399 0,-0.55407 0.2432,-1.007399 0.54045,-1.007399 1.40303,0 20.34996,14.400299 31.19502,23.709337 4.0272,3.456788 4.45712,4.052368 3.80482,5.271248 -0.67875,1.26825 -0.58676,1.34145 1.19401,0.95031 1.79036,-0.39322 2.67918,0.3401 12.33329,10.17554 11.52259,11.73902 16.73893,17.55621 24.25936,27.0535 7.55359,9.53919 16.65571,23.065 14.71382,21.86486 -0.68931,-0.42607 -0.71074,-0.24406 -0.10463,0.88845 0.41923,0.78336 0.92055,1.42427 1.11404,1.42427 0.19349,0 0.14029,-0.37778 -0.11823,-0.8395 -0.25853,-0.46173 0.005,-0.38617 0.58465,0.1679 3.46952,3.31394 25.98206,42.10169 44.63192,76.89812 18.53996,34.5914 21.8131,40.92975 21.9069,42.42238 0.0503,0.80021 0.39365,1.40465 0.76303,1.3432 0.36938,-0.0611 0.59649,0.5859 0.50471,1.4385 -0.0924,0.85763 0.12198,1.37154 0.47978,1.15045 0.84157,-0.52016 4.24406,6.18435 3.63701,7.16656 -0.27249,0.44091 -0.16083,0.56301 0.27082,0.29625 0.43958,-0.27166 1.6552,1.23715 3.02764,3.75793 1.26123,2.31655 4.50509,8.29184 7.20857,13.27846 9.05935,16.7102 9.52113,17.30228 15.72084,20.15691 2.97935,1.37188 12.36805,4.77514 20.86378,7.56282 69.57397,22.8292 74.0344,24.43285 82.86023,29.79114 17.17388,10.42651 33.28981,25.90768 37.71374,36.22828 1.93546,4.51523 1.73011,6.3896 -0.88549,8.0825 -3.17786,2.05684 -5.18079,2.59264 -5.18079,1.38598 0,-1.19109 -1.4141,-1.79223 -4.25243,-1.80781 -8.58127,-0.047 -21.92245,-5.4906 -42.75953,-17.44708 -18.63812,-10.69468 -27.91617,-14.56383 -45.25896,-18.87376 -14.50686,-3.60521 -26.37617,-5.31557 -36.34036,-5.23659 -8.87195,0.0702 -11.41719,0.50833 -11.41719,1.9649 0,1.28551 14.06999,8.78734 17.29369,9.22059 1.72531,0.2319 2.52261,0.6808 2.53157,1.4254 0.008,0.6986 2.94625,2.6463 8.22376,5.45224 21.43109,11.39429 38.44931,21.775 51.53551,31.43542 23.97952,17.70195 39.75166,32.1185 47.8046,43.6958 3.67964,5.28998 7.16538,13.47463 7.71495,18.11485 l 0.37738,3.1864 -3.80232,2.87082 c -2.09128,1.57893 -4.14429,2.75678 -4.56224,2.61749 -0.41795,-0.13936 0.4273,-0.86905 1.87833,-1.62165 3.80787,-1.97497 3.76953,-3.29721 -0.11104,-3.82912 -1.73073,-0.23721 -4.69126,-0.43258 -6.57894,-0.43405 -8.72664,-0.007 -31.81258,-6.2626 -47.12298,-12.76892 -16.59487,-7.05213 -20.71499,-9.60246 -45.6319,-28.24552 -29.0508,-21.73611 -42.4935,-30.60324 -59.43654,-39.20575 -17.13614,-8.70057 -30.65776,-13.59082 -47.30561,-17.10859 -9.9569,-2.10392 -12.51244,-1.97397 -11.15251,0.56709 1.0178,1.90177 12.18539,12.19464 18.30742,16.8734 4.21541,3.22166 6.14882,4.26916 8.33464,4.5155 2.56107,0.28865 2.76908,0.44399 2.07757,1.55126 -0.42264,0.67677 -0.62876,1.33662 -0.45806,1.46644 1.85969,1.41378 12.04882,8.62031 21.84305,15.44913 42.33063,29.51397 62.00936,48.56577 72.82827,70.50806 4.49689,9.12039 6.08801,14.61434 4.7125,16.27171 -0.55384,0.6673 -1.13081,0.8168 -1.61274,0.41773 -0.44774,-0.37072 -1.96931,-0.38583 -3.77259,-0.0376 -2.9967,0.57886 -7.87562,0.66254 -11.75299,0.20148 z M 384.33622,316.08284 c -0.21438,-0.53573 -0.37353,-0.37663 -0.40575,0.40578 -0.0292,0.70794 0.12957,1.10458 0.35274,0.88148 0.22316,-0.22317 0.24702,-0.80243 0.053,-1.28726 z M 447.49749,299.013 c -0.22316,-0.22317 -0.80242,-0.24701 -1.28723,-0.053 -0.53575,0.21437 -0.37662,0.37354 0.40576,0.40578 0.70797,0.0289 1.10464,-0.12962 0.88147,-0.35273 z M 224.29567,149.35797 c -0.57753,-1.50499 -2.41899,-1.86463 -3.5682,-0.69685 -0.96104,0.97651 -0.94196,1.1577 0.21201,2.01346 1.51108,1.12049 3.92762,0.17253 3.35619,-1.31661 z m -2.56963,-5.68583 c -0.59879,-0.96884 -2.85395,-0.9444 -3.4608,0.0376 -0.26292,0.42546 0.0833,1.18397 0.76931,1.68558 1.05457,0.77113 1.3941,0.76536 2.19687,-0.0376 0.52223,-0.52223 0.74482,-1.28074 0.49462,-1.68558 z m 97.00627,-41.96105 c 0,-0.14158 -0.60485,-0.41565 -1.34412,-0.60894 -0.73927,-0.19335 -1.17477,-0.0775 -0.96777,0.25742 0.36149,0.58497 2.31189,0.88148 2.31189,0.35152 z M 234.44184,83.843053 c 0.23529,-0.380662 -0.0343,-0.49329 -0.63196,-0.263938 -1.16349,0.446479 -1.37637,0.927881 -0.41032,0.927881 0.34758,0 0.81661,-0.298794 1.04228,-0.663943 z M 602.48303,419.73453 c 2.06228,-0.91619 6.25201,-1.63279 5.037,-0.86153 -0.55407,0.35172 -2.21628,0.82372 -3.6938,1.04884 -1.83386,0.27952 -2.26013,0.22002 -1.3432,-0.18731 z"
       style="fill:#01ec1b;fill-opacity:1"
       sodipodi:nodetypes="cssscssssssccscccccsscsccscssscccssssscsssscsscssssssssscscsccsccsccscsssccssssssccsscscssscsssscssscssscscsscsccssscsssccssssssscscccsscssscssscssssssssssssccsssssccssccsscsccccscsscssssscssssccsssscscsccsssssssccssccccccccccscccsscscssccsccsccccsccsscscss" />
    <path
       inkscape:connector-curvature="0"
       id="path3857"
       d="m 490.99754,518.59093 c -13.45051,-1.59928 -22.65984,-3.75491 -35.0705,-8.20916 -36.59213,-13.13292 -60.70112,-32.76726 -98.16107,-79.94208 -25.64451,-32.2952 -32.83261,-40.21604 -41.89428,-46.16493 -6.13592,-4.02819 -12.06739,-5.93828 -16.41552,-5.28623 -3.68957,0.55327 -15.46049,6.42311 -23.03462,11.48663 -5.83282,3.89951 -24.10723,16.31664 -29.55037,20.07901 -6.51504,4.50334 -23.52405,15.11226 -30.15363,18.80767 -22.71253,12.66005 -45.94487,20.4952 -60.77121,20.4952 -3.73731,0 -5.93545,0.31437 -6.89443,0.98604 -1.2655,0.88644 -1.52587,0.85568 -2.57541,-0.30403 -1.90279,-2.10258 -1.16226,-14.16544 1.29934,-21.16579 4.10743,-11.68079 11.57302,-23.58885 19.6047,-31.27061 8.11511,-7.76154 11.21713,-9.48674 35.50088,-19.74354 40.537,-17.12182 58.56165,-26.73624 66.72302,-35.59027 2.978,-3.23073 5.34833,-7.82782 9.01998,-17.49348 2.26964,-5.97488 6.6037,-22.54499 6.21619,-23.76595 -0.22798,-0.71828 -0.1,-1.50036 0.28441,-1.73797 0.38441,-0.23754 0.69892,-1.13265 0.69892,-1.98907 0,-0.85643 0.41987,-1.9056 0.93303,-2.33146 1.13958,-0.94575 1.73527,-3.70555 1.04197,-4.82732 -0.27969,-0.45253 -0.26755,-1.30317 0.027,-1.89029 2.82696,-5.63539 2.94218,-6.00994 2.14432,-6.97126 -0.6323,-0.76193 -0.60123,-1.13884 0.14493,-1.75812 0.52238,-0.43351 1.1363,-1.53138 1.36427,-2.43965 0.22797,-0.90834 0.73132,-1.65146 1.11855,-1.65146 0.42467,0 0.51352,0.5996 0.22392,1.5111 -1.3666,4.30085 -2.07635,8.61984 -1.47738,8.99003 0.357,0.22062 1.90534,-0.8074 3.44075,-2.28458 9.6602,-9.29366 27.45018,-19.46967 41.49569,-23.73587 l 4.6141,-1.40149 0,-3.21126 c 0,-4.26156 -2.57746,-39.55646 -3.02967,-41.48717 -0.19465,-0.83111 -0.66991,-1.5111 -1.05612,-1.5111 -1.33185,0 -7.66914,2.90084 -8.469,3.87667 -0.5976,0.72902 -0.69957,5.12276 -0.40038,17.25205 0.33444,13.55771 0.24408,16.37292 -0.54139,16.86755 -0.51856,0.3266 -3.09861,1.53521 -5.73346,2.68579 -10.42794,4.55392 -26.46367,15.66257 -28.16311,19.5099 -1.17052,2.64993 -1.15032,1.23493 0.0649,-4.54183 0.56478,-2.68485 0.8704,-5.28931 0.67917,-5.78764 -0.19123,-0.49839 0.0622,-1.57027 0.56313,-2.38203 0.7666,-1.24219 2.90623,-11.8049 5.80867,-28.67568 1.97672,-11.49006 4.01091,-31.9641 4.01091,-40.36983 0,-3.03866 0.31443,-4.24989 1.413,-5.44312 0.77716,-0.84413 2.63907,-3.65034 4.13759,-6.236 4.8123,-8.30345 14.1459,-19.18275 20.62699,-24.04292 l 2.33579,-1.7516 -1.2185,-9.26551 c -0.67018,-5.09603 -1.54199,-11.76186 -1.93735,-14.81293 -0.39536,-3.05101 -0.54952,-5.71666 -0.34257,-5.92364 0.20695,-0.20692 2.21874,-0.72641 4.47065,-1.15435 2.25191,-0.42801 4.09437,-1.10962 4.09437,-1.51479 0,-0.40518 -0.68371,-1.379 -1.51934,-2.16403 -1.42242,-1.33628 -1.84017,-1.38363 -6.5481,-0.74205 -2.76581,0.37697 -5.40696,1.0534 -5.86923,1.50317 -0.67276,0.65461 -0.63,3.73369 0.21423,15.42845 l 1.05472,14.61058 -5.39287,5.69718 c -9.21277,9.73268 -15.50322,18.71586 -15.5398,22.19192 -0.0273,2.59654 -0.99996,0.8663 -1.5519,-2.76067 -1.0881,-7.15012 -5.40841,-20.50064 -9.19738,-28.42148 -4.37013,-9.13577 -6.65619,-13.03554 -11.22656,-19.15146 -2.23334,-2.98855 -2.61161,-3.81838 -1.59333,-3.49514 1.47441,0.46797 1.64936,-0.27415 2.40764,-10.21294 0.48601,-6.37012 1.9811,-10.11933 4.26381,-10.69227 2.22154,-0.55756 18.79374,0.79376 26.63219,2.17162 3.31114,0.58207 6.95516,0.88288 8.09782,0.66851 1.96054,-0.36777 2.66269,0.20638 12.46618,10.19414 17.63328,17.96467 30.6811,33.95431 38.23059,46.85023 l 1.57266,2.6864 -1.67186,-1.5111 c -0.91953,-0.83111 -1.99139,-1.5111 -2.38192,-1.5111 -1.65447,0 -11.34453,7.07147 -16.09537,11.74587 l -5.14116,5.05849 0.4456,9.33449 c 0.51594,10.80818 2.11551,29.91619 4.83951,57.81107 1.26162,12.91969 1.37096,13.43198 2.86656,13.43198 3.57784,0 23.64964,6.3663 29.69807,9.41952 3.43325,1.73313 4.17163,2.46282 5.58872,5.52323 8.14076,17.58086 11.16685,24.34729 11.16452,24.96422 -0.001,0.39867 -4.5348,4.16365 -10.07399,8.36679 -5.53919,4.20307 -10.07125,7.94153 -10.07125,8.30762 0,3.1735 28.02842,44.57727 34.14033,50.43234 1.92064,1.83991 2.1211,1.88343 5.58498,1.21257 1.97606,-0.38274 5.1795,-0.89215 7.11874,-1.13198 1.93924,-0.23983 3.5259,-0.75045 3.5259,-1.13473 0,-0.38429 -2.50581,-3.4537 -5.56845,-6.8209 -11.48313,-12.625 -21.68668,-25.53696 -26.64338,-33.7155 l -2.30847,-3.80891 2.60316,-2.09626 c 1.43174,-1.15293 6.40327,-4.99213 11.04785,-8.53153 4.64459,-3.53933 8.53698,-6.91109 8.64977,-7.49276 0.18285,-0.943 -10.40163,-24.33655 -16.43694,-36.32862 -2.23659,-4.44404 -2.4608,-4.65708 -7.15194,-6.79491 -6.33095,-2.88506 -18.48723,-7.34434 -25.79227,-9.46122 -3.19724,-0.92654 -5.93018,-1.80164 -6.07319,-1.94462 -0.41053,-0.41055 -4.32651,-26.84396 -5.57844,-37.6553 -3.45651,-29.84943 -3.45583,-28.41362 -0.0147,-31.34495 1.44303,-1.22923 4.38968,-3.26444 6.54809,-4.52255 2.15841,-1.25817 5.06184,-3.00292 6.45207,-3.87728 l 2.52767,-1.58981 -1.08958,-2.16705 c -2.12953,-4.2355 0.80321,-0.42895 5.75231,7.46617 10.87003,17.34063 28.85204,49.31225 46.33113,82.37583 1.95273,3.69379 4.23543,7.92487 5.07266,9.40239 3.38552,5.97461 11.07175,21.38251 10.8015,21.65276 -0.15907,0.1591 -0.62285,-0.33412 -1.03062,-1.09611 -0.40777,-0.76193 -1.33551,-1.70325 -2.06164,-2.09183 -1.15847,-0.62003 -12.23958,-4.02544 -13.09853,-4.02544 -0.75896,0 -0.18303,2.05798 2.07312,7.40795 2.61741,6.20671 3.91183,8.03884 5.67946,8.03884 0.63474,0 3.53454,0.5998 6.44401,1.33285 2.90946,0.73312 5.5166,1.33756 5.79363,1.3432 1.01474,0.0208 0.45433,-2.01171 -1.57341,-5.70651 -1.14241,-2.08162 -1.91904,-3.94283 -1.72585,-4.13604 0.1932,-0.19322 1.01506,0.96246 1.82637,2.56812 0.81131,1.60566 2.60139,4.88381 3.97796,7.28478 1.37657,2.40096 4.86337,8.74758 7.74846,14.10358 2.88507,5.35601 6.46059,11.67233 7.94557,14.03623 2.51082,3.99689 3.07952,4.47278 8.11698,6.79228 2.97935,1.37188 12.36805,4.77514 20.86378,7.56282 69.57397,22.8292 74.0344,24.43285 82.86023,29.79114 17.17388,10.42651 33.28981,25.90768 37.71374,36.22828 1.93546,4.51523 1.73011,6.3896 -0.88549,8.0825 -3.17786,2.05684 -5.18079,2.59264 -5.18079,1.38598 0,-1.19109 -1.4141,-1.79223 -4.25243,-1.80781 -8.58127,-0.047 -21.92245,-5.4906 -42.75953,-17.44708 -18.63812,-10.69468 -27.91617,-14.56383 -45.25896,-18.87376 -14.50686,-3.60521 -26.37617,-5.31557 -36.34036,-5.23659 -8.87195,0.0702 -11.41719,0.50833 -11.41719,1.9649 0,1.28551 14.06999,8.78734 17.29369,9.22059 1.72531,0.2319 2.52261,0.6808 2.53157,1.4254 0.008,0.6986 2.94625,2.6463 8.22376,5.45224 21.43109,11.39429 38.44931,21.775 51.53551,31.43542 23.97952,17.70195 39.75166,32.1185 47.8046,43.6958 3.67964,5.28998 7.16538,13.47463 7.71495,18.11485 l 0.37738,3.1864 -3.80232,2.87082 c -2.09128,1.57893 -4.14429,2.75678 -4.56224,2.61749 -0.41795,-0.13936 0.4273,-0.86905 1.87833,-1.62165 3.80787,-1.97497 3.76953,-3.29721 -0.11104,-3.82912 -1.73073,-0.23721 -4.69126,-0.43258 -6.57894,-0.43405 -8.72664,-0.007 -31.81258,-6.2626 -47.12298,-12.76892 -16.59487,-7.05213 -20.71499,-9.60246 -45.6319,-28.24552 -29.0508,-21.73611 -42.4935,-30.60324 -59.43654,-39.20575 -17.13614,-8.70057 -30.65776,-13.59082 -47.30561,-17.10859 -9.9569,-2.10392 -12.51244,-1.97397 -11.15251,0.56709 1.0178,1.90177 12.18539,12.19464 18.30742,16.8734 4.21541,3.22166 6.14882,4.26916 8.33464,4.5155 2.56107,0.28865 2.76908,0.44399 2.07757,1.55126 -0.42264,0.67677 -0.62876,1.33662 -0.45806,1.46644 1.85969,1.41378 12.04882,8.62031 21.84305,15.44913 42.33063,29.51397 62.00936,48.56577 72.82827,70.50806 4.49689,9.12039 6.08801,14.61434 4.7125,16.27171 -0.55384,0.6673 -1.13081,0.8168 -1.61274,0.41773 -0.44774,-0.37072 -1.96931,-0.38583 -3.77259,-0.0376 -2.9967,0.57886 -7.87562,0.66254 -11.75299,0.20148 z M 347.10738,359.05661 c 3.95606,-0.58483 5.20787,-1.02359 5.21729,-1.82857 0.007,-0.58254 -2.60229,-11.78791 -5.79803,-24.90089 -4.21494,-17.29516 -6.1573,-24.15011 -7.07374,-24.96455 -1.32139,-1.17443 -16.09423,-6.30269 -24.75019,-8.59191 l -5.03699,-1.33212 -4.3654,2.98553 c -2.40096,1.64206 -8.59647,6.25058 -13.76778,10.24122 l -9.40239,7.25562 -1.78849,5.02041 c -1.96753,5.52303 -2.19823,6.69941 -1.31381,6.69941 0.32533,0 3.57419,-2.29721 7.2197,-5.1049 10.01872,-7.7162 18.77448,-13.69989 20.04671,-13.69989 1.06158,0 20.27266,7.6107 20.96914,8.30722 0.60326,0.60323 1.47009,5.45251 3.91051,21.87641 1.34784,9.07089 2.73712,17.21006 3.0873,18.08704 0.70274,1.75993 0.60141,1.76026 12.84617,-0.0497 z m 255.37565,60.67792 c 2.06228,-0.91619 6.25201,-1.63279 5.037,-0.86153 -0.55407,0.35172 -2.21628,0.82372 -3.6938,1.04884 -1.83386,0.27952 -2.26013,0.22002 -1.3432,-0.18731 z M 83.336742,321.64483 c -8.619131,-2.53247 -9.727579,-3.43308 -20.307686,-16.50019 -5.200644,-6.42311 -6.345587,-7.47954 -8.911405,-8.22239 -1.619239,-0.46878 -3.966607,-1.83669 -5.216379,-3.03973 -2.658251,-2.55892 -8.847784,-12.31908 -11.303924,-17.82491 -1.654807,-3.70958 -1.70374,-4.21214 -1.45277,-14.92026 0.177188,-7.55999 0.552532,-11.67797 1.181169,-12.95877 0.802272,-1.63461 0.768242,-2.30346 -0.26314,-5.17165 -0.948506,-2.63771 -1.14006,-4.94042 -0.961199,-11.5546 0.212084,-7.84267 0.337143,-8.48109 2.473272,-12.62573 2.06183,-4.00052 5.369598,-8.59889 8.327798,-11.57717 0.871877,-0.87778 2.258944,-1.18376 5.372795,-1.18537 5.002166,0 14.653673,-1.59156 20.480113,-3.3717 4.085788,-1.24837 10.440878,-4.81671 13.385935,-7.5162 0.845805,-0.77523 1.80863,-1.12486 2.285748,-0.82996 0.453397,0.28019 4.026856,0.50652 7.941011,0.50289 7.10828,-0.007 7.11704,-0.007 7.45466,1.71829 0.19105,0.97496 1.34071,2.40063 2.64421,3.27908 4.04731,2.72743 8.69106,3.62086 20.03423,3.85431 6.85814,0.14117 11.41924,0.54245 13.00309,1.14413 2.57205,0.97705 7.60739,6.32197 10.32472,10.9595 4.79476,8.18297 5.64516,18.16266 2.15404,25.27812 -3.93139,8.01279 -12.09161,13.99083 -19.11584,14.00386 -3.32114,0.007 -4.63528,-0.76724 -2.61859,-1.54105 0.53175,-0.2041 1.06132,-1.83226 1.27941,-3.93356 0.20466,-1.97202 1.61953,-6.86294 3.14414,-10.8689 l 2.77203,-7.28342 -1.76947,-6.2352 c -0.9732,-3.42939 -2.57667,-7.85073 -3.56326,-9.82516 -1.51803,-3.03812 -2.20439,-3.71374 -4.46467,-4.39501 -3.65546,-1.10183 -8.37213,-1.05683 -10.39427,0.0991 -2.62923,1.50298 -4.97405,1.20929 -14.04476,-1.75925 l -8.453819,-2.76665 -10.07399,0.39624 c -10.533828,0.41431 -20.954826,1.76691 -25.520775,3.31246 -3.931684,1.33084 -5.402614,4.55526 -5.274788,11.56279 0.135589,7.43326 2.286298,15.0214 5.996092,21.15538 3.850729,6.36697 14.563867,18.961 16.758043,19.70023 1.24677,0.42002 1.661234,1.03634 1.661234,2.47021 0,1.82151 -0.179881,1.9332 -3.861696,2.39855 -2.364997,0.29893 -5.813915,0.15735 -8.898691,-0.36522 -2.770348,-0.46931 -6.019209,-0.8712 -7.219693,-0.89303 -1.200484,-0.0222 -2.182698,-0.27723 -2.182698,-0.56743 0,-0.6397 -9.810831,-7.96812 -10.667241,-7.96812 -1.247663,0 -1.289491,2.00694 -0.134978,6.4765 1.499366,5.80463 3.470436,9.67593 6.017947,11.81948 1.094848,0.9213 6.774718,3.55652 12.621937,5.85614 5.847226,2.29962 12.808172,5.36158 15.46878,6.80444 2.660601,1.44287 5.252343,2.6234 5.759421,2.6234 1.339773,0 3.846068,2.89164 3.821145,4.40865 -0.01175,0.71499 -0.413692,1.81627 -0.893201,2.44744 -0.744676,0.98007 -1.230423,1.03742 -3.330239,0.39296 -1.889283,-0.57986 -2.887434,-0.55696 -4.311695,0.0989 l -1.853298,0.85333 4.278672,3.94887 c 4.528785,4.1797 8.702192,7.7244 21.182951,7.55851 22.83825,-0.30356 6.40691,6.68349 -2.58669,10.28024 -4.899852,1.93622 -12.188592,2.05516 -18.173738,0.29665 z M 104.61836,192.49171 c -0.51909,-0.51908 -3.12115,-0.82325 -7.181793,-0.8395 -3.502283,-0.0141 -6.294175,-0.21545 -6.204208,-0.44762 0.08997,-0.23217 3.462787,-3.85747 7.49515,-8.05617 4.032371,-4.19877 6.956941,-6.93406 6.499041,-6.07845 -0.74144,1.38538 -0.55157,1.96389 1.73501,5.28636 1.41216,2.05194 2.94533,3.87621 3.40706,4.05398 1.32278,0.50921 1.01465,1.32486 -1.58925,4.2071 -2.65661,2.94053 -2.95871,3.07666 -4.16101,1.8743 z m 5.99188,-10.37212 c -2.23431,-3.69016 -2.25555,-3.79655 -1.13651,-5.69093 1.20302,-2.03655 0.95552,-3.27089 -0.65585,-3.27089 -1.29128,0 -1.23796,-0.29711 0.6415,-3.57418 0.88509,-1.54334 1.77376,-3.41045 1.97482,-4.14921 0.20107,-0.73876 0.69742,-2.62763 1.10302,-4.19749 0.40561,-1.56987 0.98431,-2.8543 1.28602,-2.8543 0.3017,0 0.97091,1.58665 1.48711,3.52589 0.93769,3.52268 0.94171,3.52651 4.3735,4.1975 l 3.43493,0.6716 -0.90798,3.53919 c -0.4994,1.94663 -1.40999,4.5155 -2.02355,5.7086 -0.96485,1.87631 -6.81219,9.92691 -7.17149,9.87372 -0.0708,-0.0108 -1.15324,-1.71124 -2.40552,-3.7795 z m 193.5298,0.44057 c 0,-1.6622 0.13098,-2.3422 0.29105,-1.51109 0.16009,0.8311 0.16009,2.19109 0,3.02219 -0.16007,0.83111 -0.29105,0.15111 -0.29105,-1.5111 z m -22.88642,-5.37279 c -0.39725,-8.42266 -2.54999,-22.77662 -4.88511,-32.57257 -1.58011,-6.62868 -1.58266,-6.85307 -0.062,-5.47689 1.48461,1.34353 2.80142,1.44139 2.80142,0.20819 0,-1.35085 -2.49228,-3.34449 -3.63348,-2.90661 -0.7256,0.27844 -1.36915,-0.61169 -2.36335,-3.26894 -5.02895,-13.44106 -14.24028,-25.7052 -21.62367,-28.79019 -2.10968,-0.88147 -2.59895,-0.85481 -5.13303,0.27972 -1.5406,0.68973 -5.54128,3.89568 -8.89041,7.12426 -3.34914,3.22858 -5.90588,5.392 -5.68165,4.80771 0.29096,-0.75824 -1.17374,-2.33925 -5.11558,-5.52182 -5.55947,-4.48864 -7.54664,-5.17951 -7.8095,-2.71494 -0.12574,1.17886 4.89128,6.11451 10.04505,9.88211 1.06255,0.77677 0.57738,1.54502 -5.20663,8.24422 -3.5081,4.06318 -6.61521,7.46677 -6.9047,7.56362 -0.28948,0.0968 -0.57287,-0.44191 -0.62976,-1.19713 -0.0569,-0.75521 -0.76107,-3.10104 -1.56485,-5.21302 -0.80377,-2.11191 -2.6283,-7.28094 -4.05451,-11.48663 -2.31412,-6.82405 -2.9859,-8.05859 -6.24396,-11.47428 -3.84454,-4.0306 -8.64108,-11.006569 -11.22542,-16.325904 -1.43741,-2.958597 -3.29876,-4.109852 -4.22413,-2.612522 -0.83457,1.350318 8.03151,16.360626 12.74602,21.579026 1.82642,2.02165 2.75385,4.33423 5.27762,13.16032 1.684,5.88926 3.51012,11.68993 4.05805,12.89041 0.54792,1.20049 0.89731,2.1827 0.77643,2.1827 -0.73835,0 -8.23099,-2.85598 -12.35431,-4.70905 -3.878,-1.74287 -4.67922,-2.34247 -3.92573,-2.93785 1.05804,-0.83607 3.3431,-10.20434 2.73067,-11.19529 -0.21557,-0.34883 -1.11802,-0.63419 -2.00543,-0.63419 -1.30403,0 -1.73505,0.48301 -2.24741,2.5185 -1.31297,5.21617 -1.5163,7.65287 -0.71879,8.6138 1.19676,1.44199 0.57884,1.24219 -7.60299,-2.45873 -14.99759,-6.78382 -23.66662,-10.14807 -26.99843,-10.47742 -3.0776,-0.30423 -3.75343,-0.0955 -7.41601,2.29049 -4.66081,3.03637 -10.81572,9.56982 -14.26222,15.13939 -2.1326,3.44632 -2.51488,3.76768 -3.4695,2.91676 -0.59006,-0.52593 -2.43282,-1.30458 -4.09503,-1.73031 -1.66221,-0.42573 -3.54987,-0.92714 -4.19481,-1.11425 -0.75168,-0.21813 -1.89033,0.44554 -3.17207,1.84891 -1.09971,1.20398 -2.18207,2.00654 -2.40523,1.78337 -0.9582,-0.95817 7.54194,-27.89548 10.76217,-34.1057 3.61814,-6.977644 11.53632,-16.321942 20.01302,-23.61766 5.09445,-4.38467 6.17172,-4.820135 5.12329,-2.071011 -1.5928,4.176408 1.47846,19.586792 4.19316,21.039663 2.4626,1.317946 2.881,-0.206987 1.24092,-4.522886 -1.09121,-2.87149 -1.62006,-6.17643 -1.9713,-12.319281 -0.26401,-4.617245 -0.30155,-8.546101 -0.0834,-8.730791 0.21813,-0.18469 1.7082,-1.190141 3.31124,-2.234344 2.55089,-1.66157 2.86145,-2.122563 2.4884,-3.693783 -0.97979,-4.126709 -1.21182,-14.058146 -0.38866,-16.63524 2.96065,-9.269032 20.79638,-17.278458 29.45532,-13.227405 3.6695,1.716749 8.89643,7.415794 11.70709,12.764491 1.37233,2.611555 2.97384,4.931977 3.55891,5.156486 0.58506,0.224509 3.53234,0.414095 6.54951,0.421301 3.01717,0.0072 9.41462,0.457514 14.21656,1.00069 4.80193,0.543169 9.00429,0.990609 9.33858,0.994296 0.33428,0.004 0.11916,0.546635 -0.47805,1.206549 -2.91858,3.224986 -6.46781,15.850604 -6.4954,23.106026 -0.0272,7.14951 2.93361,5.746607 3.56205,-1.687864 0.47028,-5.563327 2.01077,-10.953087 4.87418,-17.053411 1.71973,-3.66381 2.1925,-4.176522 3.87046,-4.197496 3.45982,-0.04325 15.29791,3.780345 22.26614,7.191767 4.7102,2.30597 16.42762,9.160629 16.44214,9.61866 0.007,0.209069 -1.64417,1.066567 -3.66844,1.905596 -4.89592,2.029237 -11.04261,6.057154 -14.46321,9.477744 l -2.77973,2.779749 -4.65692,-0.785502 c -6.58467,-1.110624 -12.73527,-0.142178 -23.44641,3.691849 -5.48227,1.962413 -8.55755,2.514669 -9.10152,1.634471 -0.23254,-0.37623 -1.25085,-3.598161 -2.2629,-7.159786 -1.88395,-6.630029 -3.04076,-8.25953 -3.77805,-5.321888 -0.4888,1.947504 2.67738,15.136103 3.93582,16.394546 0.95774,0.957768 6.65743,-0.314913 15.90785,-3.551955 8.823,-3.087476 20.82767,-2.954634 21.75661,0.240836 0.18128,0.62358 0.67524,3.098222 1.0977,5.49919 0.99099,5.632163 1.92529,8.059193 3.10245,8.059193 0.93714,0 0.89434,-3.46465 -0.14385,-11.645332 -0.23323,-1.837698 0.0553,-3.197753 1.00431,-4.733231 2.31662,-3.74833 10.38478,-9.331336 16.75443,-11.593618 1.89217,-0.672002 3.4403,-1.604249 3.4403,-2.071615 0,-0.467366 0.2432,-0.849775 0.54045,-0.849775 1.6741,0 31.39336,23.071318 34.76058,26.984991 l 1.30114,1.51225 -1.679,-1.15919 c -3.06133,-2.11365 -4.94756,-2.58438 -15.78259,-3.939194 -13.58761,-1.698945 -20.78369,-1.50586 -22.4918,0.603566 -1.40459,1.734608 -3.45322,12.057628 -3.59959,18.138288 -0.0737,3.06175 -0.35049,4.19588 -1.02443,4.19749 -0.68637,0 -0.80775,0.56254 -0.47281,2.18485 2.31165,11.1967 4.75064,39.80986 4.27921,50.20205 -0.14242,3.13973 -0.3231,4.34861 -0.40149,2.6864 z M 144.11394,121.11185 c 0.60636,-0.73057 0.70491,-2.54825 0.36161,-6.66952 l -0.47191,-5.66528 2.04464,-1.0573 c 4.4296,-2.29062 10.94026,-3.3093 21.90998,-3.42811 5.91007,-0.0638 10.74243,-0.3863 10.73856,-0.71619 -0.0281,-2.40399 -2.77468,-11.191601 -3.7831,-12.10417 -1.18198,-1.069656 -1.24649,-1.044337 -1.2396,0.486775 0.004,0.888325 0.45787,3.100573 1.0086,4.91604 0.55073,1.8154 0.86187,3.440265 0.69142,3.610715 -0.17046,0.17046 -4.32652,0.37429 -9.23569,0.45286 -8.95432,0.14346 -15.15852,1.28202 -21.55977,3.95666 -1.42633,0.59598 -3.36277,0.89276 -4.43094,0.67913 -2.13522,-0.42707 -9.08014,0.84534 -10.9343,2.00331 -0.66844,0.4174 -1.21534,1.29068 -1.21534,1.94059 0,1.42332 -0.2798,1.41244 4.47373,0.17428 4.71226,-1.22742 7.56753,-1.28786 7.92565,-0.1679 0.14765,0.46172 0.46751,3.48392 0.71081,6.71599 0.45058,5.98556 1.14602,7.11284 3.00565,4.87212 z m 126.42772,-3.33604 c 1.21729,-1.6743 0.96709,-3.71878 -0.45508,-3.71878 -1.4071,0 -3.81184,3.05833 -3.35035,4.26096 0.61181,1.59438 2.44155,1.33367 3.80543,-0.54218 z M 194.15063,106.01 c 0,-0.53728 -1.20829,-1.65462 -2.6851,-2.48297 -3.25623,-1.82655 -6.83928,-5.241636 -8.14151,-7.759865 -1.01437,-1.961607 -2.26957,-2.483843 -2.26957,-0.944269 0,0.502625 1.07488,2.546034 2.38864,4.540952 3.60478,5.473802 10.70754,9.882452 10.70754,6.646152 z M 215.7249,94.73176 c -1.00994,-3.518106 -1.85903,-11.794627 -1.47099,-14.338444 0.95086,-6.233718 1.15654,-10.826047 0.51365,-11.468969 -0.43883,-0.438823 -0.8283,0.327539 -1.14541,2.25382 -0.26427,1.605257 -1.20238,4.45895 -2.08471,6.34151 -1.88705,4.026238 -1.93123,4.941023 -0.57972,12.003898 0.98899,5.168427 0.97742,5.416113 -0.33592,7.192493 -1.58622,2.145491 -1.65787,2.67001 -0.52068,3.811122 0.67258,0.67489 1.34818,0.29766 3.39792,-1.897265 1.60094,-1.714392 2.43396,-3.17324 2.22586,-3.898165 z M 174.85335,84.70814 c -1.36671,-1.366704 -2.72145,-2.24838 -3.01055,-1.959324 -0.60221,0.602224 3.44167,4.444242 4.67775,4.444242 0.44975,0 -0.3005,-1.118213 -1.6672,-2.484918 z m 17.28249,-6.164543 c 11.03092,-5.060165 11.41898,-19.564555 0.67159,-25.102227 -8.99407,-4.634257 -19.81218,2.057552 -19.81218,12.255311 0,4.091947 1.15888,7.066864 3.7549,9.639022 4.44283,4.401998 10.17654,5.597512 15.38569,3.207894 z m -8.7308,-3.763643 c -6.7965,-2.445226 -8.41171,-10.966397 -3.05205,-16.101285 2.71958,-2.605516 8.04376,-3.114998 11.28473,-1.079858 2.99115,1.878262 5.18695,6.504232 4.59219,9.67455 -1.10811,5.906777 -7.26121,9.508228 -12.82487,7.506593 z M 122.6253,163.08593 c -0.55407,-0.29161 -1.83014,-0.85447 -2.83573,-1.25078 -1.10226,-0.43433 -2.22216,-1.66302 -2.82003,-3.09393 -0.54543,-1.30539 -1.30933,-2.37343 -1.69756,-2.37343 -1.02372,0 -0.87857,-1.83729 0.67227,-8.5099 1.91452,-8.2373 2.65403,-10.37259 3.4269,-9.89494 0.36695,0.22679 1.40237,-0.27831 2.30092,-1.12245 1.61814,-1.52016 1.66788,-1.52406 5.2142,-0.40611 1.96927,0.62069 4.0828,1.12862 4.69675,1.12862 0.61395,0 1.11627,0.16494 1.11627,0.36662 0,0.71996 -8.27247,24.82682 -8.66562,25.25248 -0.22053,0.23882 -0.8543,0.1955 -1.40837,-0.0962 z m 92.83187,-10.75056 c -1.20969,-0.73755 -2.52064,-2.17195 -2.91322,-3.18761 -0.98264,-2.54207 -0.40198,-8.60063 0.96956,-10.11617 0.61649,-0.6812 1.14477,-1.81922 1.17393,-2.5289 0.0291,-0.70968 0.20545,-0.9125 0.39176,-0.45078 0.21248,0.5266 1.69471,0.8395 3.97657,0.8395 3.27118,-0.16683 4.30569,-0.20427 6.33537,0.2983 2.39272,0.60444 1.52451,-0.10771 4.69006,2.7239 3.16554,2.8316 0.93123,10.72799 -3.37816,12.90861 -2.63189,1.33171 -8.6935,1.06932 -11.24587,-0.48685 z m 8.8385,-2.97773 c -0.57753,-1.50499 -2.41899,-1.86463 -3.5682,-0.69686 -0.96104,0.97651 -0.94196,1.15771 0.21201,2.01346 1.51108,1.1205 3.92762,0.17253 3.35619,-1.3166 z m -2.56963,-5.68583 c -0.59879,-0.96885 -2.85395,-0.9444 -3.4608,0.0376 -0.26292,0.42546 0.0833,1.18396 0.76931,1.68558 1.05457,0.77113 1.3941,0.76535 2.19687,-0.0376 0.52223,-0.52224 0.74482,-1.28074 0.49462,-1.68558 z"
       style="fill:#090907"
       sodipodi:nodetypes="sssscssssssccsccccccsccsscssscsccssccssssscssccssccscssssscscccsscssscssssscssscsssscsssssscssccccssscccsssccscsssssssssscssssccsssscscsccsssssssccsscccccccscsssscsssscssccscssssccssssscscccccscssccsscscssscsssscssscssscsssscsccsccssssssccssssscssssscsccsssssssssssssccsssscssssscsssssccssssssscscccsssssscsssssssscsssssscsscsscsssscsssscsscccssscssscscscsccsccsscssssccsscscssssssssssssssscssssssssssssccscscsccsccscscscczccsccscscccscssccccc" />
    <g
       transform="matrix(0.96592583,0.25881905,-0.25881905,0.96592583,0,0)"
       style="font-size:72px;font-style:normal;font-variant:normal;font-weight:normal;font-stretch:normal;text-align:start;line-height:125%;letter-spacing:0px;word-spacing:0px;writing-mode:lr-tb;text-anchor:start;fill:#000000;fill-opacity:1;stroke:none;font-family:RedStateBlueState BB;-inkscape-font-specification:RedStateBlueState BB"
       id="text3892">
      <path
         d="m 402.00615,-44.073234 c -0.048,0.480035 -0.072,0.936035 -0.072,1.368 -3e-5,0.432034 -3e-5,0.888034 0,1.368 -3e-5,2.78403 0.096,5.544028 0.288,8.28 0.23997,2.736022 0.35997,5.496019 0.36,8.28 -3e-5,0.960016 -0.024,1.944015 -0.072,2.952 -0.048,0.960013 -0.12003,1.920012 -0.216,2.88 -3e-5,0.48001 -3e-5,1.03201 0,1.656 -3e-5,0.576008 -0.024,1.200008 -0.072,1.872 -3e-5,0.624007 -0.048,1.224006 -0.144,1.8 -0.096,0.576005 -0.24003,1.080004 -0.432,1.512 -0.48003,0.816003 -1.17603,1.536002 -2.088,2.1599999 -0.86403,0.5760012 -1.70403,1.1040007 -2.52,1.584 -1.39202,0.7679994 -2.85602,1.3199989 -4.392,1.656 -1.48802,0.3839982 -3.00002,0.575998 -4.536,0.576 -1.44001,-2e-6 -2.88001,-0.1440019 -4.32,-0.432 -1.39201,-0.2400014 -2.73601,-0.624001 -4.032,-1.152 -1.39201,-0.5279999 -2.54401,-1.1519993 -3.456,-1.872 -0.912,-0.7199979 -1.68,-1.5599969 -2.304,-2.5199999 -0.624,-0.959995 -1.128,-2.015994 -1.512,-3.168 -0.336,-1.199992 -0.624,-2.51999 -0.864,-3.96 -0.144,-0.815988 -0.24,-1.607987 -0.288,-2.376 -0.048,-0.815986 -0.072,-1.631985 -0.072,-2.448 0,-0.815983 0,-1.631983 0,-2.448 0.048,-0.815981 0.096,-1.63198 0.144,-2.448 l 0.144,-14.112 c 0.048,-0.815964 0.072,-1.415964 0.072,-1.8 0.048,-0.383963 0.528,-0.623963 1.44,-0.72 0.144,3.7e-5 0.36,-0.02396 0.648,-0.072 0.288,-0.04796 0.576,-0.07196 0.864,-0.072 0.336,-0.04796 0.624,-0.04796 0.864,0 0.288,3.7e-5 0.504,0.07204 0.648,0.216 0.192,0.240037 0.24,0.696037 0.144,1.368 -0.096,0.672035 -0.144,1.152035 -0.144,1.44 -0.096,1.152033 -0.144,2.352032 -0.144,3.6 0,1.20003 0,2.376028 0,3.528 0,1.152026 -0.024,2.376025 -0.072,3.672 -0.048,1.248022 -0.072,2.496021 -0.072,3.744 0,1.200019 0.048,2.376018 0.144,3.528 0.096,1.152015 0.264,2.256014 0.504,3.312 0.576,2.256011 1.70399,3.792009 3.384,4.608 1.67999,0.816008 3.62399,1.368007 5.832,1.656 1.05599,0.144007 2.13598,0.216007 3.24,0.216 1.58398,7e-6 3.04798,-0.191993 4.392,-0.576 1.34398,-0.383992 2.35198,-1.055992 3.024,-2.016 0.67198,-0.95999 1.12797,-2.063989 1.368,-3.312 0.23997,-1.247986 0.35997,-2.543985 0.36,-3.888 -3e-5,-1.007983 -0.048,-1.991982 -0.144,-2.952 -0.096,-1.00798 -0.19203,-1.919979 -0.288,-2.736 -0.24003,-2.447975 -0.38403,-4.727973 -0.432,-6.84 -0.048,-2.159969 -0.096,-4.463967 -0.144,-6.912 0.62397,-0.09596 1.46397,-0.167964 2.52,-0.216 1.05597,-0.09596 1.87197,-0.02396 2.448,0.216"
         id="path3897"
         inkscape:connector-curvature="0" />
      <path
         d="m 438.21203,-40.905234 c 0.67196,0.816032 1.17596,1.752031 1.512,2.808 0.33596,1.056029 0.50396,2.136028 0.504,3.24 -4e-5,1.104026 -0.14404,2.184024 -0.432,3.24 -0.28804,1.008022 -0.69604,1.920021 -1.224,2.736 -1.24803,1.872019 -2.90403,3.288017 -4.968,4.248 -2.01603,0.960015 -4.10403,1.704015 -6.264,2.232 -1.92002,0.480014 -3.88802,0.912013 -5.904,1.296 -2.01602,0.336013 -4.00801,0.696012 -5.976,1.08 -0.096,0.288011 -0.16801,0.696011 -0.216,1.224 -0.048,0.48001 -0.072,1.00801 -0.072,1.584 -1e-5,1.200008 0.048,2.448007 0.144,3.744 0.14399,1.248004 0.26399,2.208003 0.36,2.88 0.096,0.432002 0.16799,0.8880015 0.216,1.3679999 0.048,0.4320006 0.096,0.8880002 0.144,1.368 l -4.68,0 c -0.048,-0.3839999 -0.096,-0.7439996 -0.144,-1.08 -1e-5,-0.3359989 -0.024,-0.6479986 -0.072,-0.936 l -0.648,-10.4399999 c -0.048,-1.679986 -0.096,-3.335985 -0.144,-4.968 -0.048,-1.679981 -0.12001,-3.35998 -0.216,-5.04 -0.096,-1.151977 -0.19201,-2.327976 -0.288,-3.528 -0.096,-1.199973 -0.24001,-2.423972 -0.432,-3.672 -0.57601,0.09603 -1.152,0.144029 -1.728,0.144 -0.576,2.9e-5 -1.08,0.04803 -1.512,0.144 -0.192,-1.15197 -0.336,-2.327969 -0.432,-3.528 -0.048,-1.247966 -0.072,-2.447965 -0.072,-3.6 0.96,0.09604 1.92,0.09604 2.88,0 1.00799,-0.09596 2.01599,-0.215964 3.024,-0.36 0.23999,-0.04796 0.45599,-0.09596 0.648,-0.144 0.19199,-0.04796 0.40799,-0.09596 0.648,-0.144 1.72799,-0.239963 3.50399,-0.311963 5.328,-0.216 0.62398,0.04804 1.22398,0.07204 1.8,0.072 0.62398,3.7e-5 1.24798,3.7e-5 1.872,0 0.62398,3.7e-5 1.22398,3.7e-5 1.8,0 0.62398,3.7e-5 1.24798,0.02404 1.872,0.072 1.19998,0.04804 2.35198,0.120037 3.456,0.216 1.15197,0.04804 2.25597,0.216036 3.312,0.504 1.05597,0.240036 2.06397,0.624035 3.024,1.152 1.00797,0.528034 1.96797,1.296034 2.88,2.304 m -6.048,10.296 c 0.91197,-0.431977 1.55997,-0.935977 1.944,-1.512 0.43197,-0.575976 0.43197,-1.343975 0,-2.304 -0.33603,-0.815973 -0.84003,-1.391972 -1.512,-1.728 -0.67203,-0.383972 -1.48803,-0.695971 -2.448,-0.936 -1.29603,-0.287971 -2.68802,-0.503971 -4.176,-0.648 -1.44002,-0.19197 -2.90402,-0.28797 -4.392,-0.288 -1.39202,3e-5 -2.68802,0.07203 -3.888,0.216 -0.096,3e-5 -0.31201,0.02403 -0.648,0.072 -0.33601,2.9e-5 -0.69601,0.02403 -1.08,0.072 -0.33601,2.9e-5 -0.64801,0.02403 -0.936,0.072 -0.28801,0.04803 -0.45601,0.09603 -0.504,0.144 -0.19201,0.192029 -0.26401,0.624029 -0.216,1.296 0.096,0.624027 0.16799,1.056027 0.216,1.296 0.096,0.816026 0.14399,1.752025 0.144,2.808 0.048,1.008023 0.072,1.800022 0.072,2.376 l 0.288,1.224 c 0.38399,0.09602 0.83999,0.14402 1.368,0.144 0.57599,2e-5 1.12799,2e-5 1.656,0 0.52798,2e-5 1.05598,2e-5 1.584,0 0.52798,2e-5 0.98398,-0.02398 1.368,-0.072 1.91998,-0.09598 3.83998,-0.28798 5.76,-0.576 1.91997,-0.335979 3.71997,-0.887978 5.4,-1.656"
         id="path3899"
         inkscape:connector-curvature="0" />
      <path
         d="m 481.99478,-20.025234 c 0.19196,2.11201 0.43196,4.176008 0.72,6.192 0.33596,1.968004 0.59996,3.9840016 0.792,6.0479999 -0.81604,0.096 -1.56004,0.072 -2.232,-0.072 -0.67204,-0.1440002 -1.41604,-0.1920001 -2.232,-0.144 0.048,-0.8159993 -0.072,-1.7519984 -0.36,-2.8079999 -0.24004,-1.103996 -0.45604,-2.063995 -0.648,-2.88 -0.24004,0.09601 -0.57604,0.216005 -1.008,0.36 -0.38404,0.144005 -0.81604,0.288005 -1.296,0.432 -0.48004,0.144005 -0.93604,0.288004 -1.368,0.432 -0.43203,0.144004 -0.76803,0.264004 -1.008,0.36 -0.57603,0.288004 -1.27203,0.576003 -2.088,0.864 -0.76803,0.288003 -1.58403,0.576002 -2.448,0.864 -0.86403,0.240002 -1.70403,0.4560017 -2.52,0.6479999 -0.81603,0.1920014 -1.53603,0.3360012 -2.16,0.432 -0.67202,0.096001 -1.65602,0.096001 -2.952,0 -1.24802,-0.095999 -2.56802,-0.2399986 -3.96,-0.432 -1.34402,-0.1919982 -2.64002,-0.4079979 -3.888,-0.6479999 -1.24801,-0.287998 -2.18401,-0.551997 -2.808,-0.792 -1.82401,-0.623996 -3.26401,-1.535996 -4.32,-2.736 -1.05601,-1.247993 -1.87201,-2.639992 -2.448,-4.176 -0.528,-1.583989 -0.864,-3.239987 -1.008,-4.968 -0.144,-1.775983 -0.216,-3.503982 -0.216,-5.184 0,-1.775978 0.168,-3.551976 0.504,-5.328 0.384,-1.823973 0.936,-3.551971 1.656,-5.184 0.71999,-1.631968 1.63199,-3.119966 2.736,-4.464 1.15199,-1.391964 2.51999,-2.567962 4.104,-3.528 1.39199,-0.815961 2.97598,-1.53596 4.752,-2.16 1.77598,-0.671959 3.45598,-1.079958 5.04,-1.224 0.67198,-0.04796 1.43998,-0.04796 2.304,0 0.86397,0.04804 1.72797,0.168042 2.592,0.36 0.86397,0.192041 1.67997,0.432041 2.448,0.72 0.81597,0.288041 1.48797,0.64804 2.016,1.08 l 0.936,0.576 c 0.096,0.04804 0.35997,0.216039 0.792,0.504 0.43197,0.288038 0.86397,0.624038 1.296,1.008 0.47997,0.384037 0.91196,0.792037 1.296,1.224 0.38396,0.384036 0.57596,0.720036 0.576,1.008 -0.048,0.288035 -0.28804,0.648035 -0.72,1.08 -0.38404,0.432034 -0.84003,0.888033 -1.368,1.368 -0.48003,0.432033 -0.96003,0.864032 -1.44,1.296 -0.48003,0.384031 -0.81603,0.672031 -1.008,0.864 -0.48003,-0.815968 -1.05603,-1.343968 -1.728,-1.584 -0.67203,-0.287967 -1.41603,-0.575967 -2.232,-0.864 -1.72803,-0.575966 -3.36002,-0.863966 -4.896,-0.864 -1.87202,3.4e-5 -3.67202,0.384034 -5.4,1.152 -1.68002,0.720032 -3.43201,1.752031 -5.256,3.096 -1.68001,1.296029 -3.00001,3.000027 -3.96,5.112 -0.96001,2.112023 -1.44001,4.27202 -1.44,6.48 -10e-6,1.392017 0.16799,2.616016 0.504,3.672 0.38399,1.104013 1.10399,2.136012 2.16,3.096 1.05599,0.912011 2.13599,1.60801 3.24,2.088 0.57599,0.240009 1.48799,0.432009 2.736,0.576 1.29598,0.09601 2.71198,0.144009 4.248,0.144 1.77598,9e-6 3.47998,-0.04799 5.112,-0.144 1.67997,-0.143991 2.87997,-0.287991 3.6,-0.432 1.34397,-0.28799 2.61597,-0.62399 3.816,-1.008 1.19997,-0.383989 2.23197,-0.911989 3.096,-1.584 0.86396,-0.719987 1.51196,-1.607987 1.944,-2.664 0.43196,-1.103984 0.55196,-2.519983 0.36,-4.248 -4e-5,-0.04798 -0.024,-0.07198 -0.072,-0.072 -4e-5,1.9e-5 -4e-5,-0.02398 0,-0.072 -1.39204,-0.04798 -3.04803,1.9e-5 -4.968,0.144 -1.87203,0.144019 -3.79203,0.312018 -5.76,0.504 -1.96802,0.192018 -3.91202,0.384018 -5.832,0.576 -1.87202,0.192017 -3.50402,0.312017 -4.896,0.36 -0.048,-0.911982 -0.12002,-1.919981 -0.216,-3.024 -0.096,-1.103979 -0.12002,-2.183977 -0.072,-3.24 0.86398,2.4e-5 1.96798,2.4e-5 3.312,0 1.39198,-0.04798 2.80798,-0.07198 4.248,-0.072 1.48798,2.4e-5 2.92797,2.4e-5 4.32,0 1.39197,-0.04798 2.51997,-0.07198 3.384,-0.072 1.24797,-0.04798 2.51997,-0.09598 3.816,-0.144 1.29596,-0.09598 2.59196,-0.143976 3.888,-0.144 0.62396,2.4e-5 1.22396,2.4e-5 1.8,0 0.57596,2.4e-5 1.15196,0.04802 1.728,0.144 -0.14404,0.528023 -0.24004,1.104023 -0.288,1.728 -0.048,0.576022 -0.072,1.176021 -0.072,1.8 -4e-5,1.440019 0.096,2.928017 0.288,4.464 0.19196,1.488014 0.33596,2.856013 0.432,4.104"
         id="path3901"
         inkscape:connector-curvature="0" />
      <path
         d="m 503.97165,-26.145234 c 1.58398,0.816017 3.14398,1.656016 4.68,2.52 1.58398,0.864015 3.16798,1.704014 4.752,2.52 1.58397,0.816012 3.19197,1.608011 4.824,2.376 1.67997,0.72001 3.43197,1.344009 5.256,1.872 -0.24003,0.576008 -0.55203,1.128007 -0.936,1.656 -0.33603,0.528006 -0.69603,1.080006 -1.08,1.656 -0.33603,0.528005 -0.67203,1.080004 -1.008,1.656 -0.28803,0.528003 -0.50403,1.104003 -0.648,1.728 -0.91203,-0.383998 -1.96803,-0.911997 -3.168,-1.584 -1.20003,-0.671996 -2.44803,-1.391995 -3.744,-2.16 -1.24802,-0.767994 -2.47202,-1.511993 -3.672,-2.232 -1.20002,-0.719991 -2.28002,-1.295991 -3.24,-1.728 -0.91202,-0.43199 -1.89602,-0.959989 -2.952,-1.584 -1.00801,-0.623988 -2.06401,-1.247988 -3.168,-1.872 -1.05601,-0.623986 -2.13601,-1.175986 -3.24,-1.656 -1.10401,-0.527985 -2.18401,-0.911984 -3.24,-1.152 -0.432,0.384015 -0.648,0.960015 -0.648,1.728 0,0.768013 0,1.464013 0,2.088 l 0,5.328 0,2.664 -4.392,0 c 0.096,-1.487994 0.072,-2.879993 -0.072,-4.176 -0.096,-1.29599 -0.144,-2.687989 -0.144,-4.176 0,-0.959987 0.024,-1.895986 0.072,-2.808 0.048,-0.959984 0.096,-1.823983 0.144,-2.592 0.096,-1.055981 0.144,-2.08798 0.144,-3.096 0.048,-1.055978 0.072,-2.111977 0.072,-3.168 l 0,-3.168 c 0,-1.103972 0,-2.159971 0,-3.168 0,-1.055969 0.024,-2.111967 0.072,-3.168 l -2.592,0 c 0.048,-0.815966 0.024,-1.607965 -0.072,-2.376 -0.096,-0.815963 -0.144,-1.631962 -0.144,-2.448 0,-0.767961 0.12,-1.63196 0.36,-2.592 0.432,-0.09596 0.888,-0.143959 1.368,-0.144 0.48,4.1e-5 0.96,4.1e-5 1.44,0 1.44,4.1e-5 2.856,0.07204 4.248,0.216 2.63999,0.240041 5.27999,0.384041 7.92,0.432 2.68798,0.04804 5.35198,0.07204 7.992,0.072 1.24798,4e-5 2.44798,0.14404 3.6,0.432 1.19997,0.28804 2.27997,0.744039 3.24,1.368 0.95997,0.576038 1.75197,1.368037 2.376,2.376 0.62397,0.960035 0.98397,2.112034 1.08,3.456 0.19197,2.30403 -0.14403,4.296029 -1.008,5.976 -0.81603,1.680025 -1.96803,3.120024 -3.456,4.32 -1.48802,1.152021 -3.19202,2.11202 -5.112,2.88 -1.92002,0.720019 -3.88802,1.296018 -5.904,1.728 m -6.84,-5.688 c 0.67199,-0.09598 1.31999,-0.167976 1.944,-0.216 0.67199,-0.04798 1.34399,-0.07198 2.016,-0.072 3.45598,-0.143976 6.81598,-0.959975 10.08,-2.448 0.33598,-0.143974 0.69598,-0.335973 1.08,-0.576 0.38398,-0.239973 0.71998,-0.503973 1.008,-0.792 0.33597,-0.335972 0.57597,-0.695972 0.72,-1.08 0.14397,-0.383971 0.16797,-0.83997 0.072,-1.368 -0.096,-0.527969 -0.28803,-0.935969 -0.576,-1.224 -0.28802,-0.287968 -0.62402,-0.503968 -1.008,-0.648 -0.33602,-0.143968 -0.72002,-0.239968 -1.152,-0.288 -0.38402,-0.09597 -0.76802,-0.191968 -1.152,-0.288 -1.82402,-0.431967 -3.72002,-0.647967 -5.688,-0.648 -1.92001,-0.04797 -3.81601,-0.119967 -5.688,-0.216 -0.62401,-0.04797 -1.22401,3.3e-5 -1.8,0.144 -0.52801,0.09603 -1.10401,0.192033 -1.728,0.288 -0.28801,0.04803 -0.52801,0.07203 -0.72,0.072 -0.14401,-0.04797 -0.26401,-0.04797 -0.36,0 -0.096,0.04803 -0.16801,0.168033 -0.216,0.36 -0.048,0.144032 -0.072,0.408032 -0.072,0.792 -0.096,0.816031 -0.19201,1.77603 -0.288,2.88 -0.096,1.056028 -0.12,2.160027 -0.072,3.312 -1e-5,0.04803 -1e-5,0.312025 0,0.792 -1e-5,0.480024 -0.024,0.840024 -0.072,1.08 0.62399,-0.04798 1.22399,2.4e-5 1.8,0.144 0.62399,0.09602 1.24799,0.09602 1.872,0"
         id="path3903"
         inkscape:connector-curvature="0" />
      <path
         d="m 547.07153,-11.025234 c -0.52803,-1.055996 -1.08003,-2.111995 -1.656,-3.168 -0.52803,-1.055993 -1.05603,-2.135992 -1.584,-3.24 -3.07202,0.240009 -6.31202,0.384009 -9.72,0.432 -3.36001,0.04801 -6.52801,0.312008 -9.504,0.792 -0.67201,1.920006 -1.15201,3.648004 -1.44,5.184 -0.96,0.048 -1.752,0.048 -2.376,0 -0.624,-0.048 -1.464,-0.143997 -2.52,-0.288 0.24,-0.527996 0.504,-1.103996 0.792,-1.728 0.288,-0.671995 0.6,-1.391994 0.936,-2.16 0.624,-1.535992 1.272,-3.14399 1.944,-4.824 0.72,-1.679987 1.36799,-3.215985 1.944,-4.608 0.76799,-1.775982 1.55999,-3.47998 2.376,-5.112 0.86399,-1.679977 1.67999,-3.383975 2.448,-5.112 1.00799,-2.447971 2.01599,-4.991968 3.024,-7.632 1.05598,-2.687963 2.32798,-5.087961 3.816,-7.2 0.52798,0.384041 1.00798,1.00804 1.44,1.872 0.43198,0.816039 0.83998,1.728038 1.224,2.736 0.38398,0.960036 0.74398,1.920035 1.08,2.88 0.33598,0.960033 0.67198,1.728032 1.008,2.304 0.95998,1.63203 1.89598,3.312028 2.808,5.04 0.91197,1.680025 1.82397,3.360023 2.736,5.04 1.53597,3.024019 2.99997,5.976016 4.392,8.856 1.43997,2.88001 2.85596,5.736007 4.248,8.568 -1.44004,0.096 -2.73603,0.264004 -3.888,0.504 -1.10403,0.192003 -2.28003,0.480003 -3.528,0.864 m -19.728,-11.52 c 0.76799,-0.143986 1.70399,-0.287985 2.808,-0.432 1.10399,-0.191985 2.25599,-0.359985 3.456,-0.504 1.19998,-0.191985 2.39998,-0.335984 3.6,-0.432 1.24798,-0.143984 2.37598,-0.239984 3.384,-0.288 -0.38402,-0.863983 -0.81602,-1.775982 -1.296,-2.736 -0.48002,-0.95998 -1.00802,-1.919979 -1.584,-2.88 -0.52802,-1.007977 -1.08002,-1.943976 -1.656,-2.808 -0.57602,-0.911975 -1.12802,-1.727974 -1.656,-2.448 -0.81602,0.768026 -1.56002,1.680025 -2.232,2.736 -0.62401,1.008023 -1.22401,2.088022 -1.8,3.24 -0.52801,1.15202 -1.05601,2.304019 -1.584,3.456 -0.48001,1.104016 -0.96001,2.136015 -1.44,3.096"
         id="path3905"
         inkscape:connector-curvature="0" />
      <path
         d="m 589.74953,-40.257234 c 0.67196,1.392031 1.12796,2.760029 1.368,4.104 0.28796,1.296027 0.43196,2.592025 0.432,3.888 -4e-5,1.680022 -0.19204,3.360021 -0.576,5.04 -0.38404,1.632017 -0.84004,3.288016 -1.368,4.968 -0.43204,1.296013 -1.08004,2.424012 -1.944,3.384 -0.81604,0.96001 -1.77603,1.800009 -2.88,2.52 -1.10403,0.672007 -2.30403,1.224007 -3.6,1.656 -1.29603,0.432006 -2.59203,0.768006 -3.888,1.008 -1.63202,0.288005 -3.21602,0.720005 -4.752,1.296 -1.48802,0.528004 -3.04802,0.960003 -4.68,1.296 -0.76802,0.192003 -1.51201,0.312003 -2.232,0.36 -0.72001,2e-6 -1.48801,-0.024 -2.304,-0.072 -0.52801,-0.048 -1.22401,-0.072 -2.088,-0.072 -0.81601,-0.048 -1.48801,-0.191997 -2.016,-0.432 0.19199,-0.959996 0.16799,-2.063995 -0.072,-3.312 -0.19201,-1.295992 -0.36001,-2.567991 -0.504,-3.816 l -0.144,-0.936 c -0.14401,-1.343988 -0.33601,-2.663986 -0.576,-3.96 -0.19201,-1.343984 -0.36001,-2.711982 -0.504,-4.104 -0.19201,-1.487979 -0.28801,-2.927978 -0.288,-4.32 -10e-6,-1.439975 -0.048,-2.903974 -0.144,-4.392 -0.048,-0.767971 -0.072,-1.559971 -0.072,-2.376 0.048,-0.863969 0.072,-1.727968 0.072,-2.592 -0.672,-0.04797 -1.344,-0.09597 -2.016,-0.144 -0.624,-0.04797 -1.248,0.04803 -1.872,0.288 0.048,-0.671967 0.048,-1.391966 0,-2.16 -0.048,-0.767964 -0.072,-1.535964 -0.072,-2.304 0,-1.055962 0.072,-2.063961 0.216,-3.024 0.384,-0.09596 0.792,-0.16796 1.224,-0.216 0.432,-0.04796 0.888,-0.07196 1.368,-0.072 l 2.088,0 c 0.28799,4.1e-5 0.62399,4.1e-5 1.008,0 0.38399,-0.04796 0.76799,-0.07196 1.152,-0.072 0.38399,4.1e-5 0.74399,0.02404 1.08,0.072 0.38399,4.1e-5 0.71999,0.02404 1.008,0.072 1.43999,-0.143959 2.92799,-0.215959 4.464,-0.216 3.31198,4.1e-5 6.47998,0.36004 9.504,1.08 1.29597,0.288039 2.61597,0.600039 3.96,0.936 1.34397,0.336038 2.61597,0.768038 3.816,1.296 1.19997,0.528037 2.30397,1.224036 3.312,2.088 1.00796,0.816034 1.84796,1.896033 2.52,3.24 m -20.952,21.24 c 1.87198,-0.143989 3.83998,-0.455989 5.904,-0.936 2.11197,-0.479988 4.03197,-1.175987 5.76,-2.088 1.77597,-0.911985 3.23997,-2.063984 4.392,-3.456 1.15197,-1.439981 1.72796,-3.19198 1.728,-5.256 -4e-5,-0.863977 -0.096,-1.679976 -0.288,-2.448 -0.28803,-1.247974 -0.74403,-2.303973 -1.368,-3.168 -0.62403,-0.863971 -1.39203,-1.58397 -2.304,-2.16 -0.86403,-0.575969 -1.84803,-1.031969 -2.952,-1.368 -1.05603,-0.383968 -2.16003,-0.695968 -3.312,-0.936 -1.10402,-0.239967 -2.28002,-0.407967 -3.528,-0.504 -1.24802,-0.09597 -2.42402,-0.09597 -3.528,0 -1.34402,0.09603 -2.66402,0.264033 -3.96,0.504 -1.29601,0.240032 -2.56801,0.408032 -3.816,0.504 -10e-6,2.30403 0.048,4.608027 0.144,6.912 0.096,2.256023 0.33599,4.536021 0.72,6.84 l 0.144,1.296 c -1e-5,0.336017 -1e-5,0.840016 0,1.512 0.048,0.672015 0.096,1.368014 0.144,2.088 0.096,0.720013 0.19199,1.392012 0.288,2.016 0.14399,0.576011 0.31199,0.93601 0.504,1.08 0.33599,-0.04799 0.74399,-0.09599 1.224,-0.144 0.47999,-0.04799 0.95999,-0.07199 1.44,-0.072 0.52798,-0.04799 1.00798,-0.09599 1.44,-0.144 0.47998,-0.04799 0.88798,-0.07199 1.224,-0.072"
         id="path3907"
         inkscape:connector-curvature="0" />
      <path
         d="m 623.05628,-13.329234 c -3e-5,0.384005 -3e-5,0.792004 0,1.224 -3e-5,0.432003 0.024,0.864003 0.072,1.296 0.048,0.528002 0.048,0.8880017 0,1.0799999 -3e-5,0.1440014 -0.28803,0.2640013 -0.864,0.36 -0.72003,0.1440011 -1.46403,0.240001 -2.232,0.288 -0.72003,0.048001 -1.46403,0.072001 -2.232,0.072 -0.76803,9e-7 -1.53602,9e-7 -2.304,0 -0.72002,-0.047999 -1.41602,-0.071999 -2.088,-0.072 -1.92002,9e-7 -3.81602,0.024001 -5.688,0.072 -1.82401,0.048001 -3.69601,0.1920007 -5.616,0.432 -1.24801,0.1920002 -2.47201,0.3360001 -3.672,0.432 -1.20001,0.048 -2.376,0.024 -3.528,-0.072 -0.144,-0.3359996 -0.216,-0.7679992 -0.216,-1.296 0,-0.5279979 0.024,-1.0559979 0.072,-1.5839999 0.096,-0.575997 0.168,-1.127996 0.216,-1.656 0.096,-0.527995 0.168,-0.983995 0.216,-1.368 0.144,-1.535993 0.264,-3.047991 0.36,-4.536 0.096,-1.535988 0.192,-3.071987 0.288,-4.608 0.096,-0.863984 0.192,-1.847983 0.288,-2.952 0.144,-1.103981 0.288,-2.23198 0.432,-3.384 0.19199,-1.151977 0.35999,-2.279976 0.504,-3.384 0.19199,-1.151974 0.35999,-2.159973 0.504,-3.024 0.19199,-0.815971 0.35999,-1.631971 0.504,-2.448 0.14399,-0.815969 0.26399,-1.655968 0.36,-2.52 0.096,-0.383967 0.14399,-0.815966 0.144,-1.296 0.048,-0.527965 0.16799,-0.983965 0.36,-1.368 0.43199,-0.09596 0.86399,-0.09596 1.296,0 0.47999,0.04803 0.93599,0.04803 1.368,0 0.95999,-0.09596 1.89599,-0.167964 2.808,-0.216 0.91199,-0.04796 1.82399,-0.09596 2.736,-0.144 1.10398,-0.04796 2.18398,-0.07196 3.24,-0.072 1.05598,-0.04796 2.13598,-0.143964 3.24,-0.288 0.62398,-0.04796 1.07998,-0.09596 1.368,-0.144 0.33598,-0.04796 0.81598,-0.04796 1.44,0 l 1.584,-0.144 c 0.23997,-0.09596 0.47997,-0.143963 0.72,-0.144 0.28797,3.7e-5 0.55197,3.7e-5 0.792,0 0.38397,-0.04796 0.79197,-0.07196 1.224,-0.072 0.47997,-0.04796 0.79197,0.02404 0.936,0.216 0.23997,0.240036 0.33597,0.672036 0.288,1.296 -3e-5,0.576035 -3e-5,1.032034 0,1.368 -3e-5,0.528033 -0.072,1.224033 -0.216,2.088 -0.096,0.864031 -0.21603,1.56003 -0.36,2.088 -0.096,0.288029 -0.12003,0.456029 -0.072,0.504 0.096,0.04803 -0.048,0.120029 -0.432,0.216 -0.19203,0.04803 -0.38403,0.04803 -0.576,0 -0.14403,-0.09597 -0.31203,-0.143971 -0.504,-0.144 l -3.024,0 c -0.76802,2.9e-5 -1.53602,2.9e-5 -2.304,0 -0.72002,2.9e-5 -1.46402,0.04803 -2.232,0.144 -1.05602,0.04803 -2.11202,0.07203 -3.168,0.072 -1.00802,2.9e-5 -2.04002,0.04803 -3.096,0.144 -0.28801,2.9e-5 -0.62401,0.04803 -1.008,0.144 -0.38401,0.09603 -0.76801,0.192028 -1.152,0.288 -0.38401,0.04803 -0.76801,0.09603 -1.152,0.144 -0.33601,2.8e-5 -0.62401,-0.07197 -0.864,-0.216 -0.33601,0.288028 -0.50401,0.768027 -0.504,1.44 -10e-6,0.624026 -0.024,1.176026 -0.072,1.656 -0.096,0.720024 -0.19201,1.680023 -0.288,2.88 -0.048,1.152021 -0.024,2.06402 0.072,2.736 0.76799,0.240019 1.58399,0.288019 2.448,0.144 0.91199,-0.14398 1.77599,-0.21598 2.592,-0.216 1.24798,-0.04798 2.49598,-0.04798 3.744,0 1.24798,2e-5 2.49598,-0.04798 3.744,-0.144 0.52798,-0.04798 1.07998,-0.11998 1.656,-0.216 0.62398,-0.09598 1.19998,-0.11998 1.728,-0.072 0.38397,0.09602 0.59997,0.19202 0.648,0.288 0.096,0.09602 0.19197,0.336019 0.288,0.72 0.096,0.240019 0.14397,0.552018 0.144,0.936 -3e-5,0.336018 -3e-5,0.720017 0,1.152 -3e-5,0.672016 -0.024,1.344016 -0.072,2.016 -3e-5,0.624014 -0.048,1.104014 -0.144,1.44 -0.62403,0.04801 -1.22402,0.07201 -1.8,0.072 -0.52802,1.3e-5 -1.08002,1.3e-5 -1.656,0 l -3.456,0 c -1.10402,-0.04799 -2.20802,-0.04799 -3.312,0 -1.05601,0.04801 -2.13601,0.09601 -3.24,0.144 -0.67201,0.04801 -1.34401,0.144013 -2.016,0.288 -0.67201,0.144013 -1.32001,0.192013 -1.944,0.144 -0.24001,0.432012 -0.38401,0.840012 -0.432,1.224 -0.048,0.336011 -0.072,0.696011 -0.072,1.08 -1e-5,0.52801 -1e-5,1.03201 0,1.512 0.048,0.480009 -1e-5,0.984008 -0.144,1.512 0.67199,0.09601 1.36799,0.09601 2.088,0 0.76799,-0.143992 1.48799,-0.215992 2.16,-0.216 1.10399,8e-6 2.18399,8e-6 3.24,0 1.10398,8e-6 2.20798,0.04801 3.312,0.144 0.52798,8e-6 1.05598,0.02401 1.584,0.072 0.52798,8e-6 1.05598,8e-6 1.584,0 1.29598,8e-6 2.63998,-0.07199 4.032,-0.216 0.95997,-0.09599 1.91997,-0.215992 2.88,-0.36 0.95997,-0.143992 1.89597,-0.239992 2.808,-0.288 -0.048,0.432008 -0.12003,0.984007 -0.216,1.656 -0.096,0.672006 -0.14403,1.224006 -0.144,1.656"
         id="path3909"
         inkscape:connector-curvature="0" />
      <path
         d="m 640.4859,-15.921234 c 0.096,0.624007 0.16799,1.392006 0.216,2.304 0.096,0.912004 0.14399,1.800004 0.144,2.664 -10e-6,0.576002 -0.024,1.1040016 -0.072,1.5839999 -0.048,0.4800007 -0.14401,0.9120003 -0.288,1.296 -0.91201,-0.1439999 -1.87201,-0.2639998 -2.88,-0.36 -0.96001,-0.1439996 -1.92001,-0.1919995 -2.88,-0.144 -0.864,0.048 -1.728,0.1920002 -2.592,0.432 -0.816,0.1919998 -1.608,0.1679998 -2.376,-0.072 -0.048,-0.5279994 -0.096,-1.0559989 -0.144,-1.584 0,-0.5279979 0,-1.0559969 0,-1.5839999 0,-0.719996 0.024,-1.415995 0.072,-2.088 0.096,-0.671994 0.192,-1.343993 0.288,-2.016 0.48,-0.191993 1.008,-0.287992 1.584,-0.288 0.576,8e-6 1.128,0.07201 1.656,0.216 l 1.512,0 c 0.048,-0.143993 0.26399,-0.239992 0.648,-0.288 0.43199,-0.04799 0.91199,-0.07199 1.44,-0.072 0.67199,8e-6 1.36799,0.02401 2.088,0.072 0.76799,0.04801 1.29599,0.02401 1.584,-0.072 m -6.912,-6.192 c -0.72,-1.775984 -1.2,-3.695982 -1.44,-5.76 -0.192,-2.111978 -0.336,-4.223976 -0.432,-6.336 -0.048,-2.111972 -0.192,-4.22397 -0.432,-6.336 -0.192,-2.111966 -0.648,-4.103964 -1.368,-5.976 1.776,-0.09596 3.504,-0.119962 5.184,-0.072 1.67999,0.04804 3.35999,-0.191961 5.04,-0.72 0.19199,1.008038 0.11999,2.064037 -0.216,3.168 -0.28801,1.056035 -0.48001,2.088034 -0.576,3.096 -0.096,1.104032 -0.21601,2.208031 -0.36,3.312 -0.096,1.104028 -0.24001,2.208027 -0.432,3.312 -0.14401,1.104025 -0.31201,2.232024 -0.504,3.384 -0.14401,1.152022 -0.28801,2.30402 -0.432,3.456 -0.096,0.912018 -0.28801,1.968017 -0.576,3.168 -0.24001,1.200015 -0.28801,2.184014 -0.144,2.952 -0.33601,-0.04799 -0.79201,-0.04799 -1.368,0 -0.57601,0.04801 -1.03201,0.216013 -1.368,0.504 l -0.576,-1.152"
         id="path3911"
         inkscape:connector-curvature="0" />
    </g>
  </g>
</svg>
