<?xml version="1.0" encoding="UTF-8" standalone="no"?>
<!-- Created with Inkscape (http://www.inkscape.org/) -->

<svg
   xmlns:dc="http://purl.org/dc/elements/1.1/"
   xmlns:cc="http://creativecommons.org/ns#"
   xmlns:rdf="http://www.w3.org/1999/02/22-rdf-syntax-ns#"
   xmlns:svg="http://www.w3.org/2000/svg"
   xmlns="http://www.w3.org/2000/svg"
   xmlns:sodipodi="http://sodipodi.sourceforge.net/DTD/sodipodi-0.dtd"
   xmlns:inkscape="http://www.inkscape.org/namespaces/inkscape"
   width="176.46268mm"
   height="40.239933mm"
   viewBox="0 0 625.26145 142.58244"
   id="svg2"
   version="1.1"
   inkscape:version="0.91 r13725"
   sodipodi:docname="simplicity.svg">
  <defs
     id="defs4" />
  <sodipodi:namedview
     id="base"
     pagecolor="#ffffff"
     bordercolor="#666666"
     borderopacity="1.0"
     inkscape:pageopacity="0.0"
     inkscape:pageshadow="2"
     inkscape:zoom="1.4"
     inkscape:cx="386.099"
     inkscape:cy="34.705362"
     inkscape:document-units="px"
     inkscape:current-layer="layer1"
     showgrid="false"
     fit-margin-top="0"
     fit-margin-left="0"
     fit-margin-right="0"
     fit-margin-bottom="0"
     inkscape:window-width="1920"
     inkscape:window-height="1056"
     inkscape:window-x="0"
     inkscape:window-y="24"
     inkscape:window-maximized="1" />
  <metadata
     id="metadata7">
    <rdf:RDF>
      <cc:Work
         rdf:about="">
        <dc:format>image/svg+xml</dc:format>
        <dc:type
           rdf:resource="http://purl.org/dc/dcmitype/StillImage" />
        <dc:title></dc:title>
      </cc:Work>
    </rdf:RDF>
  </metadata>
  <g
     inkscape:label="Layer 1"
     inkscape:groupmode="layer"
     id="layer1"
     transform="translate(-32.66689,-116.53936)">
    <path
       style="fill:#000000;fill-opacity:0;fill-rule:evenodd;stroke:#241f1e;stroke-width:10;stroke-linecap:round;stroke-linejoin:miter;stroke-miterlimit:4;stroke-dasharray:20, 20;stroke-dashoffset:0;stroke-opacity:1"
       d="m 78.571429,174.14791 574.285711,0"
       id="path4199"
       inkscape:connector-curvature="0" />
    <path
       inkscape:connector-curvature="0"
       id="path4184"
       d="m 73.875819,258.98002 c -11.39294,-1.2854 -21.76888,-7.57643 -28.163103,-17.07556 -1.502729,-2.23242 -3.289281,-5.64584 -4.071609,-7.77924 -0.265174,-0.72314 -0.562406,-1.40232 -0.66049,-1.50926 -0.102029,-0.11125 -0.971616,0.0529 -2.032003,0.38348 -1.019496,0.31786 -2.113564,0.57795 -2.43122,0.57795 -0.703112,0 -2.041425,-0.5389 -2.605782,-1.04926 -0.665639,-0.60191 -1.244722,-1.9321 -1.244722,-2.85906 0,-1.41667 3.063837,-19.99123 3.406956,-20.65476 0.807463,-1.56146 3.06995,-2.36793 4.707228,-1.67793 1.0823,0.45613 15.734815,14.26681 16.123575,15.19723 0.36315,0.86915 0.39519,2.23033 0.0726,3.08592 -0.46546,1.23453 -1.48336,1.99271 -3.63989,2.71119 -1.45647,0.4852 -2.04414,0.78292 -2.04414,1.03551 0,0.71105 2.44627,5.2461 3.80895,7.06129 3.48574,4.6432 8.68559,8.39961 14.05042,10.15009 2.81617,0.91889 3.59471,1.04612 3.7843,0.61848 0.0881,-0.19862 0.13308,-13.88949 0.10006,-30.42413 l -0.06,-30.063 -1.25476,-0.71024 c -1.82148,-1.03102 -4.39337,-3.70269 -5.3535,-5.56121 -1.17784,-2.27993 -1.56485,-3.83081 -1.55847,-6.2453 0.0103,-3.9015 1.2529,-6.89083 4.00924,-9.64513 2.68746,-2.68548 5.72454,-3.94115 9.53244,-3.94115 3.80181,0 6.97347,1.32632 9.64637,4.0339 2.5681,2.60143 3.8421,5.72259 3.85942,9.45522 0.0234,5.04132 -2.56323,9.47897 -6.98223,11.97879 l -1.15045,0.65081 0,30.32907 c 0,30.12217 0.003,30.32907 0.43564,30.32907 0.81324,0 4.70565,-1.36393 6.59148,-2.30971 5.79305,-2.90529 10.001651,-7.12935 12.967811,-13.01536 1.4426,-2.8627 1.43229,-2.91614 -0.69992,-3.62622 -0.95798,-0.31904 -2.05877,-0.79555 -2.44619,-1.05888 -1.450981,-0.9863 -1.998261,-3.15819 -1.226771,-4.86842 0.28195,-0.62501 2.430661,-2.78028 7.639421,-7.66274 3.98592,-3.73622 7.60588,-7.0145 8.04436,-7.28506 1.71431,-1.05782 4.15538,-0.31625 5.03544,1.52971 0.30844,0.64697 0.92896,3.96217 2.01712,10.77673 1.76381,11.04579 1.75958,10.83334 0.24717,12.4212 -0.5473,0.57463 -1.13741,0.93127 -1.84317,1.11398 -0.92728,0.24009 -1.21974,0.21392 -2.73917,-0.24503 -0.93557,-0.28259 -1.88851,-0.52458 -2.11764,-0.53778 -0.33139,-0.0191 -0.66965,0.55873 -1.65378,2.82481 -2.19823,5.06165 -4.85016,8.88656 -8.81291,12.71095 -3.21139,3.09924 -5.895331,5.00231 -9.715251,6.88863 -5.46438,2.69837 -10.37733,3.91397 -16.43501,4.06648 -1.80785,0.0455 -4.11986,-0.0112 -5.1378,-0.12606 z m 6.80487,-79.82481 c 2.46448,-1.18936 3.71795,-3.94474 2.96805,-6.52432 -1.22994,-4.23084 -6.61521,-5.42345 -9.46357,-2.09579 -0.94935,1.10911 -1.51829,2.91343 -1.33661,4.23892 0.2683,1.95748 1.77692,3.91745 3.50322,4.55132 1.14851,0.42171 3.27579,0.33811 4.32891,-0.17013 z"
       style="fill:#241f1e"
       sodipodi:nodetypes="cssccscsscsscssscscsssssssscssssscsssssccscssssccssssss" />
    <text
       xml:space="preserve"
       style="font-style:normal;font-weight:normal;font-size:40px;line-height:125%;font-family:sans-serif;letter-spacing:0px;word-spacing:0px;fill:#241f1e;fill-opacity:1;stroke:none;stroke-width:1px;stroke-linecap:butt;stroke-linejoin:miter;stroke-opacity:1"
       x="62.142853"
       y="145.21936"
       id="text4201"
       sodipodi:linespacing="125%"><tspan
         sodipodi:role="line"
         id="tspan4203"
         x="62.142853"
         y="145.21936"
         style="font-style:normal;font-variant:normal;font-weight:normal;font-stretch:normal;font-family:'URW Bookman L';-inkscape-font-specification:'URW Bookman L';fill:#241f1e;fill-opacity:1">Easy</tspan></text>
    <text
       xml:space="preserve"
       style="font-style:normal;font-weight:normal;font-size:40px;line-height:125%;font-family:sans-serif;letter-spacing:0px;word-spacing:0px;fill:#241f1e;fill-opacity:1;stroke:none;stroke-width:1px;stroke-linecap:butt;stroke-linejoin:miter;stroke-opacity:1"
       x="516.42859"
       y="145.21936"
       id="text4205"
       sodipodi:linespacing="125%"><tspan
         sodipodi:role="line"
         id="tspan4207"
         x="516.42859"
         y="145.21936"
         style="font-style:normal;font-variant:normal;font-weight:normal;font-stretch:normal;font-family:'URW Bookman L';-inkscape-font-specification:'URW Bookman L';fill:#241f1e;fill-opacity:1">Harder</tspan></text>
  </g>
</svg>
