<?xml version="1.0" encoding="UTF-8" standalone="no"?>
<!DOCTYPE svg PUBLIC "-//W3C//DTD SVG 1.1//EN"
 "http://www.w3.org/Graphics/SVG/1.1/DTD/svg11.dtd">
<!-- Generated by graphviz version 2.38.0 (20140413.2041)
 -->
<!-- Title: G Pages: 1 -->
<svg width="159pt" height="190pt"
 viewBox="0.00 0.00 159.13 190.00" xmlns="http://www.w3.org/2000/svg" xmlns:xlink="http://www.w3.org/1999/xlink">
<g id="graph0" class="graph" transform="scale(1 1) rotate(0) translate(4 186)">
<title>G</title>
<polygon fill="white" stroke="none" points="-4,4 -4,-186 155.134,-186 155.134,4 -4,4"/>
<!-- data -->
<g id="node1" class="node"><title>data</title>
<polygon fill="none" stroke="black" points="92.0669,-36 44.0669,-36 44.0669,-0 98.0669,-0 98.0669,-30 92.0669,-36"/>
<polyline fill="none" stroke="black" points="92.0669,-36 92.0669,-30 "/>
<polyline fill="none" stroke="black" points="98.0669,-30 92.0669,-30 "/>
<text text-anchor="middle" x="71.0669" y="-15.2" font-family="Times,serif" font-size="11.00">data</text>
</g>
<!-- filename -->
<g id="node2" class="node"><title>filename</title>
<polygon fill="none" stroke="black" points="98.0669,-109 44.0669,-109 44.0669,-73 98.0669,-73 98.0669,-109"/>
<text text-anchor="middle" x="71.0669" y="-88.2" font-family="Times,serif" font-size="11.00">foo</text>
</g>
<!-- filename&#45;&gt;data -->
<g id="edge1" class="edge"><title>filename&#45;&gt;data</title>
<path fill="none" stroke="black" d="M71.0669,-72.8129C71.0669,-64.7895 71.0669,-55.0475 71.0669,-46.0691"/>
<polygon fill="black" stroke="black" points="74.567,-46.0288 71.0669,-36.0288 67.567,-46.0289 74.567,-46.0288"/>
</g>
<!-- process1 -->
<g id="node3" class="node"><title>process1</title>
<ellipse fill="none" stroke="black" cx="30.0669" cy="-164" rx="30.1339" ry="18"/>
<text text-anchor="middle" x="30.0669" y="-161.2" font-family="Times,serif" font-size="11.00">process</text>
</g>
<!-- process1&#45;&gt;data -->
<g id="edge2" class="edge"><title>process1&#45;&gt;data</title>
<path fill="none" stroke="black" d="M23.5416,-146.106C17.4078,-127.525 10.4834,-97.1047 20.0669,-73 24.5255,-61.7857 32.5399,-51.554 40.9145,-43.0851"/>
<polygon fill="black" stroke="black" points="43.4239,-45.5293 48.2864,-36.1162 38.6151,-40.4425 43.4239,-45.5293"/>
<text text-anchor="middle" x="27.5669" y="-88.2" font-family="Times,serif" font-size="11.00">fd6</text>
</g>
<!-- process1&#45;&gt;filename -->
<g id="edge4" class="edge"><title>process1&#45;&gt;filename</title>
<path fill="none" stroke="black" stroke-dasharray="1,5" d="M39.5762,-146.533C44.4522,-138.089 50.5061,-127.605 55.9992,-118.093"/>
<polygon fill="black" stroke="black" points="59.0673,-119.779 61.0372,-109.369 53.0054,-116.278 59.0673,-119.779"/>
</g>
<!-- process2 -->
<g id="node4" class="node"><title>process2</title>
<ellipse fill="none" stroke="black" cx="121.067" cy="-164" rx="30.1339" ry="18"/>
<text text-anchor="middle" x="121.067" y="-161.2" font-family="Times,serif" font-size="11.00">process</text>
</g>
<!-- process2&#45;&gt;data -->
<g id="edge3" class="edge"><title>process2&#45;&gt;data</title>
<path fill="none" stroke="black" d="M120.586,-145.847C119.573,-127.306 116.473,-97.1673 107.067,-73 103.205,-63.0774 97.2888,-53.1222 91.3611,-44.5105"/>
<polygon fill="black" stroke="black" points="94.1959,-42.4576 85.5052,-36.3976 88.52,-46.5545 94.1959,-42.4576"/>
<text text-anchor="middle" x="123.567" y="-88.2" font-family="Times,serif" font-size="11.00">fd7</text>
</g>
<!-- process2&#45;&gt;filename -->
<g id="edge5" class="edge"><title>process2&#45;&gt;filename</title>
<path fill="none" stroke="black" stroke-dasharray="1,5" d="M109.97,-147.243C103.829,-138.522 96.0457,-127.47 89.0576,-117.547"/>
<polygon fill="black" stroke="black" points="91.8019,-115.365 83.1825,-109.204 86.0787,-119.395 91.8019,-115.365"/>
</g>
</g>
</svg>
