<?xml version="1.0" encoding="UTF-8" standalone="no"?>
<!DOCTYPE svg PUBLIC "-//W3C//DTD SVG 1.1//EN"
 "http://www.w3.org/Graphics/SVG/1.1/DTD/svg11.dtd">
<!-- Generated by graphviz version 2.38.0 (20140413.2041)
 -->
<!-- Title: G Pages: 1 -->
<svg width="218pt" height="128pt"
 viewBox="0.00 0.00 218.07 128.00" xmlns="http://www.w3.org/2000/svg" xmlns:xlink="http://www.w3.org/1999/xlink">
<g id="graph0" class="graph" transform="scale(1 1) rotate(0) translate(4 124)">
<title>G</title>
<polygon fill="white" stroke="none" points="-4,4 -4,-124 214.067,-124 214.067,4 -4,4"/>
<!-- data1 -->
<g id="node1" class="node"><title>data1</title>
<polygon fill="none" stroke="black" points="90.0669,-36 42.0669,-36 42.0669,-0 96.0669,-0 96.0669,-30 90.0669,-36"/>
<polyline fill="none" stroke="black" points="90.0669,-36 90.0669,-30 "/>
<polyline fill="none" stroke="black" points="96.0669,-30 90.0669,-30 "/>
<text text-anchor="middle" x="69.0669" y="-15.2" font-family="Times,serif" font-size="11.00">data</text>
</g>
<!-- data2 -->
<g id="node2" class="node"><title>data2</title>
<polygon fill="none" stroke="black" points="204.067,-36 156.067,-36 156.067,-0 210.067,-0 210.067,-30 204.067,-36"/>
<polyline fill="none" stroke="black" points="204.067,-36 204.067,-30 "/>
<polyline fill="none" stroke="black" points="210.067,-30 204.067,-30 "/>
<text text-anchor="middle" x="183.067" y="-15.2" font-family="Times,serif" font-size="11.00">data</text>
</g>
<!-- filename -->
<g id="node3" class="node"><title>filename</title>
<polygon fill="none" stroke="black" points="210.067,-120 156.067,-120 156.067,-84 210.067,-84 210.067,-120"/>
<text text-anchor="middle" x="183.067" y="-99.2" font-family="Times,serif" font-size="11.00">foo</text>
</g>
<!-- filename&#45;&gt;data2 -->
<g id="edge1" class="edge"><title>filename&#45;&gt;data2</title>
<path fill="none" stroke="black" d="M183.067,-83.6099C183.067,-72.7743 183.067,-58.6012 183.067,-46.2913"/>
<polygon fill="black" stroke="black" points="186.567,-46.0838 183.067,-36.0838 179.567,-46.0839 186.567,-46.0838"/>
</g>
<!-- process1 -->
<g id="node4" class="node"><title>process1</title>
<ellipse fill="none" stroke="black" cx="30.0669" cy="-102" rx="30.1339" ry="18"/>
<text text-anchor="middle" x="30.0669" y="-99.2" font-family="Times,serif" font-size="11.00">process</text>
</g>
<!-- process1&#45;&gt;data1 -->
<g id="edge2" class="edge"><title>process1&#45;&gt;data1</title>
<path fill="none" stroke="black" d="M37.9591,-84.4061C43.2801,-73.2184 50.414,-58.2188 56.5079,-45.4061"/>
<polygon fill="black" stroke="black" points="59.7835,-46.6677 60.9179,-36.1337 53.4621,-43.6611 59.7835,-46.6677"/>
<text text-anchor="middle" x="59.5669" y="-57.2" font-family="Times,serif" font-size="11.00">fd6</text>
</g>
<!-- process2 -->
<g id="node5" class="node"><title>process2</title>
<ellipse fill="none" stroke="black" cx="108.067" cy="-102" rx="30.1339" ry="18"/>
<text text-anchor="middle" x="108.067" y="-99.2" font-family="Times,serif" font-size="11.00">process</text>
</g>
<!-- process2&#45;&gt;data1 -->
<g id="edge3" class="edge"><title>process2&#45;&gt;data1</title>
<path fill="none" stroke="black" d="M100.175,-84.4061C94.8537,-73.2184 87.7197,-58.2188 81.6259,-45.4061"/>
<polygon fill="black" stroke="black" points="84.6717,-43.6611 77.2159,-36.1337 78.3502,-46.6677 84.6717,-43.6611"/>
<text text-anchor="middle" x="98.5669" y="-57.2" font-family="Times,serif" font-size="11.00">fd7</text>
</g>
</g>
</svg>
