<?xml version="1.0" encoding="UTF-8" standalone="no"?>
<!DOCTYPE svg PUBLIC "-//W3C//DTD SVG 1.1//EN"
 "http://www.w3.org/Graphics/SVG/1.1/DTD/svg11.dtd">
<!-- Generated by graphviz version 2.38.0 (20140413.2041)
 -->
<!-- Title: G Pages: 1 -->
<svg width="134pt" height="116pt"
 viewBox="0.00 0.00 134.00 116.00" xmlns="http://www.w3.org/2000/svg" xmlns:xlink="http://www.w3.org/1999/xlink">
<g id="graph0" class="graph" transform="scale(1 1) rotate(0) translate(4 112)">
<title>G</title>
<polygon fill="white" stroke="none" points="-4,4 -4,-112 130,-112 130,4 -4,4"/>
<!-- data2 -->
<g id="node1" class="node"><title>data2</title>
<polygon fill="none" stroke="black" points="84,-36 36,-36 36,-0 90,-0 90,-30 84,-36"/>
<polyline fill="none" stroke="black" points="84,-36 84,-30 "/>
<polyline fill="none" stroke="black" points="90,-30 84,-30 "/>
<text text-anchor="middle" x="63" y="-15.2" font-family="Times,serif" font-size="11.00">data</text>
</g>
<!-- filename1 -->
<g id="node2" class="node"><title>filename1</title>
<polygon fill="none" stroke="black" points="54,-108 0,-108 0,-72 54,-72 54,-108"/>
<text text-anchor="middle" x="27" y="-87.2" font-family="Times,serif" font-size="11.00">foo</text>
</g>
<!-- filename1&#45;&gt;data2 -->
<g id="edge1" class="edge"><title>filename1&#45;&gt;data2</title>
<path fill="none" stroke="black" d="M35.8989,-71.6966C39.9968,-63.7284 44.9488,-54.0995 49.4927,-45.2641"/>
<polygon fill="black" stroke="black" points="52.7425,-46.598 54.2035,-36.1043 46.5174,-43.3965 52.7425,-46.598"/>
</g>
<!-- filename2 -->
<g id="node3" class="node"><title>filename2</title>
<polygon fill="none" stroke="black" points="126,-108 72,-108 72,-72 126,-72 126,-108"/>
<text text-anchor="middle" x="99" y="-87.2" font-family="Times,serif" font-size="11.00">bar</text>
</g>
<!-- filename2&#45;&gt;data2 -->
<g id="edge2" class="edge"><title>filename2&#45;&gt;data2</title>
<path fill="none" stroke="black" d="M90.1011,-71.6966C86.0032,-63.7284 81.0512,-54.0995 76.5073,-45.2641"/>
<polygon fill="black" stroke="black" points="79.4826,-43.3965 71.7965,-36.1043 73.2575,-46.598 79.4826,-43.3965"/>
</g>
</g>
</svg>
