<?xml version="1.0" encoding="UTF-8" standalone="no"?>
<!DOCTYPE svg PUBLIC "-//W3C//DTD SVG 1.1//EN"
 "http://www.w3.org/Graphics/SVG/1.1/DTD/svg11.dtd">
<!-- Generated by graphviz version 2.38.0 (20140413.2041)
 -->
<!-- Title: G Pages: 1 -->
<svg width="285pt" height="188pt"
 viewBox="0.00 0.00 285.00 188.00" xmlns="http://www.w3.org/2000/svg" xmlns:xlink="http://www.w3.org/1999/xlink">
<g id="graph0" class="graph" transform="scale(1 1) rotate(0) translate(4 184)">
<title>G</title>
<polygon fill="none" stroke="none" points="-4,4 -4,-184 281,-184 281,4 -4,4"/>
<!-- join1 -->
<g id="node1" class="node"><title>join1</title>
<ellipse fill="none" stroke="black" cx="182" cy="-90" rx="34.394" ry="18"/>
<text text-anchor="middle" x="182" y="-86.3" font-family="Times,serif" font-size="14.00">JOIN</text>
</g>
<!-- join3 -->
<g id="node3" class="node"><title>join3</title>
<ellipse fill="none" stroke="black" cx="138" cy="-162" rx="34.394" ry="18"/>
<text text-anchor="middle" x="138" y="-158.3" font-family="Times,serif" font-size="14.00">JOIN</text>
</g>
<!-- join1&#45;&#45;join3 -->
<g id="edge5" class="edge"><title>join1&#45;&#45;join3</title>
<path fill="none" stroke="black" d="M171.795,-107.235C164.788,-118.382 155.515,-133.135 148.455,-144.367"/>
</g>
<!-- join2 -->
<g id="node2" class="node"><title>join2</title>
<ellipse fill="none" stroke="black" cx="95" cy="-90" rx="34.394" ry="18"/>
<text text-anchor="middle" x="95" y="-86.3" font-family="Times,serif" font-size="14.00">JOIN</text>
</g>
<!-- join2&#45;&#45;join3 -->
<g id="edge6" class="edge"><title>join2&#45;&#45;join3</title>
<path fill="none" stroke="black" d="M104.973,-107.235C111.821,-118.382 120.883,-133.135 127.782,-144.367"/>
</g>
<!-- a -->
<g id="node4" class="node"><title>a</title>
<ellipse fill="none" stroke="black" cx="178" cy="-18" rx="27" ry="18"/>
<text text-anchor="middle" x="178" y="-14.3" font-family="Times,serif" font-size="14.00">a</text>
</g>
<!-- a&#45;&#45;join1 -->
<g id="edge1" class="edge"><title>a&#45;&#45;join1</title>
<path fill="none" stroke="black" d="M178.989,-36.3034C179.609,-47.1537 180.405,-61.0833 181.023,-71.8957"/>
</g>
<!-- b -->
<g id="node5" class="node"><title>b</title>
<ellipse fill="none" stroke="black" cx="250" cy="-18" rx="27" ry="18"/>
<text text-anchor="middle" x="250" y="-14.3" font-family="Times,serif" font-size="14.00">b</text>
</g>
<!-- b&#45;&#45;join1 -->
<g id="edge2" class="edge"><title>b&#45;&#45;join1</title>
<path fill="none" stroke="black" d="M235.91,-33.504C224.551,-45.1974 208.614,-61.6034 197.015,-73.5434"/>
</g>
<!-- c -->
<g id="node6" class="node"><title>c</title>
<ellipse fill="none" stroke="black" cx="27" cy="-18" rx="27" ry="18"/>
<text text-anchor="middle" x="27" y="-14.3" font-family="Times,serif" font-size="14.00">c</text>
</g>
<!-- c&#45;&#45;join2 -->
<g id="edge3" class="edge"><title>c&#45;&#45;join2</title>
<path fill="none" stroke="black" d="M41.0896,-33.504C52.4489,-45.1974 68.3862,-61.6034 79.985,-73.5434"/>
</g>
<!-- d -->
<g id="node7" class="node"><title>d</title>
<ellipse fill="none" stroke="black" cx="99" cy="-18" rx="27" ry="18"/>
<text text-anchor="middle" x="99" y="-14.3" font-family="Times,serif" font-size="14.00">d</text>
</g>
<!-- d&#45;&#45;join2 -->
<g id="edge4" class="edge"><title>d&#45;&#45;join2</title>
<path fill="none" stroke="black" d="M98.0112,-36.3034C97.3912,-47.1537 96.5952,-61.0833 95.9774,-71.8957"/>
</g>
</g>
</svg>
